<svg width="1499" height="883" viewBox="0 0 1499 883" fill="none" xmlns="http://www.w3.org/2000/svg">
<path fill-rule="evenodd" clip-rule="evenodd" d="M800.217 54.8451C988.358 54.8451 1140.88 207.364 1140.88 395.505C1140.88 583.645 988.358 736.164 800.217 736.164C612.075 736.164 459.557 583.645 459.557 395.505C459.557 207.364 612.075 54.8451 800.217 54.8451Z" fill="#E7CAA9"/>
<path fill-rule="evenodd" clip-rule="evenodd" d="M284.352 267.361C288.708 277.953 293.088 290.671 296.52 305.315C299.639 318.623 301.343 330.821 302.231 341.431C307.757 331.551 316.112 318.186 328.091 303.815C343.637 285.167 365.867 258.459 400.971 245.042C445.859 227.886 488.455 241.367 504.412 247.393C497.629 233.879 490.321 215.582 486.287 193.134C484.289 182.021 483.431 171.769 483.22 162.689C488.877 160.229 494.405 157.399 499.731 154.241C551.007 123.819 559.125 74.6461 540.389 39.6915C522.527 6.37149 479.079 -11.3832 426.392 9.99683C410.663 16.3822 392.383 27.6781 374.967 30.4341C354.559 20.6421 336.18 13.1501 316.547 10.8715C256.74 3.93013 178.597 50.5741 200.931 113.251C114.52 145.866 131.495 227.531 190.523 230.254C189.005 238.429 187.408 254.675 196.663 266.866C211.3 286.143 249.116 290.053 284.352 267.361Z" fill="black"/>
<path fill-rule="evenodd" clip-rule="evenodd" d="M451.154 172.242C454.418 171.713 457.689 171.042 460.947 170.241C461.67 186.764 464.411 202.182 468.921 218.092C465.618 217.937 462.325 217.862 459.049 217.862C453.521 197.984 451.721 180.538 451.154 172.242ZM229.957 98.8251C226.646 100.486 223.35 102.11 220.091 103.714C204.786 47.4251 285.541 14.0691 339.055 37.7624C355.478 45.0331 371.323 54.6518 392.27 59.7051C397.659 61.0064 405.587 62.3078 413.857 62.6918C376.034 68.0438 354.194 49.1984 318.463 40.9904C280.889 32.3544 216.55 51.7491 229.957 98.8251ZM266.569 261.416C232.514 280.941 194.423 262.934 213.399 218.301C174.485 221.545 149.574 184.232 171.558 154.058C187.174 132.625 219.325 126.209 242.083 110.912C250.251 105.42 257.937 98.5398 263.17 91.1344C249.039 116.932 218.119 128.645 193.267 144.728C150.825 172.197 180.19 221.809 226.267 211.616C199.337 243.584 219.815 278.542 266.57 261.414L266.569 261.416ZM411.229 45.3451C406.638 44.1158 402.159 42.4984 397.87 40.7638C419.13 29.8224 432.499 16.5891 462.41 15.4891C509.299 13.7638 539.295 55.6651 527.842 94.7184C532.473 21.5371 458.614 4.48377 411.23 45.3438L411.229 45.3451Z" fill="#F0BAB3"/>
<path d="M1485.56 309.652C1482 304.746 1477.28 301.18 1472.48 299.24C1468.48 297.625 1464.33 296.805 1460.14 296.805C1445.57 296.805 1432.92 306.877 1429.4 321.297L1429.21 322.077L1429.08 322.868C1428.81 324.408 1428.54 325.913 1428.27 327.39C1432 290.357 1425.94 262.376 1410.15 244.17C1407.98 241.668 1405.74 239.497 1403.47 237.584C1403.34 237.433 1403.23 237.268 1403.1 237.117C1386.69 218.202 1366.25 217.245 1362.31 217.245L1361.9 217.246C1345.32 217.436 1323.76 223.544 1304.76 247.66C1292.4 235.549 1276.5 233.369 1273.2 233.048C1270.6 232.773 1268.01 232.633 1265.5 232.633C1233.8 232.633 1218.16 253.889 1213.72 266.888C1213.14 268.464 1211.67 272.753 1209.96 279.301C1207.56 276.214 1204.9 273.564 1202.13 271.3C1190.19 256.744 1172.37 252.428 1168.6 251.666L1167.92 251.529L1167.24 251.432C1164.18 251 1161.12 250.78 1158.15 250.78C1141.37 250.78 1128.81 257.601 1120.32 265.485C1109.6 260.23 1098.63 257.581 1087.53 257.581C1086.06 257.581 1084.57 257.629 1082.96 257.733C1044.11 260.417 982.516 291.996 967.203 353.802C963.68 368.024 961.295 388.076 961.78 409.697C961.408 410.324 961.04 410.912 960.67 411.525C957.28 401.457 956.732 396.124 956.651 394.986V394.249C956.655 387.094 957.776 376.753 959.434 372.762L959.858 371.744L959.966 371.393C960.363 370.509 960.99 369.056 961.568 367.17L961.752 366.573L961.904 365.968C966.9 345.964 960.166 326.47 945.487 314.416C939.715 307.296 931.859 301.678 922.358 298.398L921.878 298.233L921.816 298.214C922.207 296.958 922.556 295.678 922.858 294.37C931.4 262.142 906.367 235.446 903.466 232.492L903.114 232.133L902.748 231.79C901.743 230.849 900.71 229.94 899.654 229.057C898.102 227.201 896.918 225.953 896.412 225.438L896.06 225.08L895.696 224.737C880.116 210.162 858.356 202.46 832.767 202.46C818.152 202.46 805.204 204.896 796.975 206.913C795.488 200.042 792.684 194.621 789.876 190.649C787.256 186.946 784.252 183.917 781.111 181.39C768.378 165.565 748.707 162.837 744.739 162.449L744.286 162.409C742.244 162.25 740.206 162.169 738.226 162.169C706.214 162.169 690.07 182.534 685.16 195.466C678.914 209.842 673.034 228.001 667.771 245.421C654.972 248.908 648.608 250.457 647.564 250.709C641.843 251.95 636.664 252.578 632.167 252.578C626.895 252.578 622.947 251.79 619.807 250.132C617.514 246.266 615.691 241.137 613.643 234.558L613.188 233.104C610.384 224.154 605.559 217.144 599.343 212.51C592.912 203.948 583.664 199.117 572.93 199.117C560.69 199.117 551.406 205.789 548.852 207.834L548.415 208.184L547.995 208.553C539.387 216.148 534 225.025 531.542 235.676C522.998 267.908 548.036 294.6 550.936 297.554L551.288 297.912L551.652 298.253C552.656 299.193 553.688 300.101 554.742 300.982C556.298 302.842 557.484 304.093 557.99 304.608L558.34 304.964L558.706 305.306C574.287 319.882 596.048 327.586 621.639 327.585C630.956 327.585 639.568 326.586 646.746 325.345C641.771 347.296 638.568 363.384 638.002 366.258C632.124 391.75 628.674 417.85 626.646 439.141C623.618 425.365 616.498 413.521 605.875 404.397C595.192 391.926 579.276 383.092 559.107 379.3C554.134 378.222 549.462 377.38 545.142 376.693C540.99 364.364 534.592 353.265 525.587 346.037C517.836 336.576 507.476 330.372 494.072 330.372H493.928C501.975 302.396 507.15 285.55 507.244 285.242L507.403 284.729L507.536 284.208C512.516 264.944 507.288 251.153 502.024 242.977C499.008 238.293 495.418 234.52 491.674 231.458C479.932 217.153 462.959 213.046 458.411 212.185C454.634 211.409 451.35 211.046 448.102 211.046C446.426 211.046 444.756 211.149 443.116 211.352C390.932 214.085 346.078 265.4 317.53 308.194C298.062 337.448 279.514 372.233 262.294 411.765C262.01 411.758 261.783 411.753 261.623 411.746C258.168 411.512 255.503 411.132 253.384 410.472C252.298 407.366 251.631 403.13 250.8 397.248C250.491 395.057 250.19 392.953 249.852 390.981L249.706 390.201C247.32 378.63 241.911 370.9 235.387 366.093C228.204 356.357 217.66 352.544 208.339 352.544C198.424 352.544 190.55 356.732 188.372 358.016L187.4 358.589L186.487 359.254C178.147 365.318 171.695 373.433 167.831 382.72L167.582 383.346C161.996 397.933 163.62 412.206 167.183 423.609C160.335 421.529 152.712 420.145 144.25 419.64C141.754 419.461 139.214 419.372 136.699 419.372C70.5284 419.372 11.2669 478.666 1.6536 554.432C0.496269 562.094 -6.2423 614.62 19.4204 653.417C24.1977 660.92 29.8163 667.512 36.1323 673.2C39.9483 677.458 44.0923 681.323 48.5483 684.759C42.9616 686.745 37.9884 689.953 33.823 694.314C22.3604 706.32 21.787 722.418 21.8883 727.148C21.8896 747.326 31.339 761.815 38.4723 770.982L38.6551 771.214C41.7724 775.119 45.1297 778.602 48.6443 781.735C75.543 811.981 116.899 815.35 133.875 815.35C136.775 815.35 138.616 815.246 139.112 815.214L139.591 815.177C226.867 807.756 312.735 726.454 321.182 718.262C330.727 709.968 338.564 703.455 346.031 698.047C354.77 720.602 366.062 736.224 377.979 746.992C391.902 762.356 407.28 770.12 420.767 773.901C427.938 775.889 436.422 776.938 445.302 776.938C457.1 776.938 479.771 774.998 499.271 762.038C514.875 751.913 538.911 722.673 531.01 676.533C527.156 654.03 517.519 636.062 503.042 623.333C488.238 606.509 466.707 596.572 439.867 594.656C442.507 550.52 450.52 505.355 455.75 479.435L455.851 478.934L455.928 478.432C456.12 477.213 456.371 475.776 456.667 474.185C460.463 475.7 464.726 476.678 469.406 476.678H469.411C471.712 476.678 473.98 476.438 476.203 475.968C475.498 479.768 474.707 483.706 473.795 487.83C471.668 496.994 473.856 506.854 479.684 514.277C481.518 516.61 483.666 518.596 486.008 520.282C486.258 520.629 486.474 520.994 486.738 521.33C492.684 528.901 501.674 533.245 511.399 533.242C511.826 533.242 512.258 533.235 512.694 533.217C513.739 533.19 514.807 533.082 515.882 532.935C521.003 556.749 531.358 573.649 544.219 584.956C560.362 603.377 582.139 610.897 602.544 610.897C605.864 610.897 608.432 610.68 609.914 610.509C632.968 608.742 650.086 595.711 662.8 578.055C664.382 579.333 665.979 580.509 667.583 581.593C652.252 596.851 635.311 622.362 637.404 659.62L637.436 660.172L637.494 660.719C637.842 664.082 641.08 689.553 660.003 705.226C660.828 706.219 661.694 707.198 662.608 708.153C658.935 714.644 657.454 722.406 658.742 730.201C660.208 739.091 664.94 746.648 672.052 751.993C676.486 757.932 682.914 762.491 690.814 765.087C691.032 774.558 691.778 783.419 693.114 791.565C680.48 797.569 669.506 800.613 660.475 800.613C649.703 800.613 642.664 796.414 633.754 791.097C631.974 790.036 630.24 789.005 628.539 788.038C621.356 783.89 614.24 781.786 607.395 781.786C587.858 781.786 576.166 797.594 574.715 813.207L574.686 813.545C573.878 823.856 576.435 833.742 582.446 843.666C585.93 849.486 590.172 854.217 594.748 858.07C611.854 878.415 638.795 881.448 644.711 881.872C647.079 882.113 649.515 882.237 651.96 882.237C682.555 882.234 713.362 862.933 728.084 852.237C738.862 860.651 752.087 865.219 766.539 865.219C773.858 865.219 781.562 864.061 789.522 861.752C815.518 854.101 825.611 831.627 823.987 813.983L823.935 813.421L823.856 812.863C822.432 802.746 817.456 792.277 807.966 784.808C801.066 775.982 789.999 769.182 773.762 767.667C774.007 763.491 774.362 759.094 774.854 754.45C796.627 747.486 813.73 737.525 827.051 726.115C829.704 734.242 833.444 741.928 838.606 748.522C841.088 751.696 843.838 754.513 846.807 756.965C856.838 768.974 870.796 775.581 886.338 775.578C888.932 775.578 891.604 775.397 894.279 775.037C898.162 774.537 910.028 772.177 919.515 761.701C922.128 758.919 924.107 756.113 925.706 753.35C933.571 757.895 942.155 760.037 950.212 760.341C950.515 760.735 950.784 761.136 951.107 761.526C952.888 763.758 955.15 766.098 957.946 768.295C958.022 768.389 958.082 768.485 958.159 768.578C964.232 776.188 975.682 785.086 996.006 785.084H996.567C1023.47 785.084 1045.37 765.697 1049.9 738.533C1055.52 740.557 1061.33 741.495 1066.92 741.494C1068.82 741.494 1070.37 741.382 1071.47 741.262C1090.83 739.661 1104.73 726.505 1114.33 710.805C1122.76 719.442 1133.21 724.068 1143.38 725.641C1141.2 732.532 1140.42 739.471 1141.09 746.426C1142.94 765.649 1155.15 776.761 1158.73 779.63C1158.81 779.701 1158.91 779.759 1158.99 779.829C1161.81 783.299 1164.42 785.591 1165.78 786.683C1175.99 795.031 1189.01 799.625 1202.49 799.625C1207.11 799.625 1211.64 799.079 1216.12 797.957C1235.74 792.878 1249.51 778.182 1256.67 768.65C1263.19 776.747 1272.17 779.937 1280.03 779.937C1289.88 779.934 1297.28 775.241 1300.52 772.741C1307.99 767.181 1313.1 759.682 1316.13 749.833L1316.36 749.03C1323.75 721.614 1305.27 698.537 1303.14 695.995L1303.06 695.901C1325.12 679.092 1332.53 643.686 1334.91 626.209L1335 625.541L1335.05 624.87C1335.98 612.894 1330.2 603.762 1322.95 598.732C1319.7 594.088 1315.28 590.708 1310.75 588.881C1308.64 588.029 1306.48 587.466 1304.29 587.133C1304.11 576.622 1300.24 569.146 1296.53 564.39C1294.54 561.836 1292.28 559.698 1289.89 557.888C1289.75 557.704 1289.62 557.513 1289.48 557.338C1282 547.744 1270.82 543.676 1262.66 543.032C1261.07 542.888 1259.49 542.814 1257.96 542.814C1239.71 542.814 1226.98 553.297 1221.62 565.63C1217.23 562.329 1211.42 559.509 1203.76 558.164L1203.47 558.116C1201.44 557.785 1199.37 557.618 1197.33 557.618C1195.12 557.618 1192.94 557.825 1190.81 558.202C1188.81 547.722 1183.11 538.549 1177.3 532.628L1176.95 532.269L1176.58 531.928C1175.65 531.056 1174.65 530.264 1173.66 529.466C1172.55 528.053 1171.4 526.747 1170.25 525.574L1169.9 525.217L1169.53 524.874C1159.24 515.253 1145.18 510.165 1128.86 510.165C1124.97 510.165 1121.28 510.461 1117.93 510.892C1116.89 509.552 1115.8 508.317 1114.66 507.209C1117.42 502.193 1119.54 497.064 1121.71 491.782L1123.41 487.657C1123.41 487.657 1123.95 486.106 1124.11 485.652C1140.35 504.06 1162.28 511.545 1182.72 511.545C1186.1 511.545 1188.71 511.32 1190.21 511.15C1221.79 508.75 1242.28 484.462 1255.47 456.748C1260.66 458.406 1266.16 459.257 1271.9 459.257L1272.66 459.25C1286.94 459.25 1312.98 450.657 1325.41 419.472C1328.86 427.738 1333.33 435.51 1339.1 442.28C1341.44 445.029 1343.96 447.54 1346.61 449.841C1360.23 465.525 1379.09 473.822 1401.21 473.822H1401.21C1404.6 473.822 1408.12 473.626 1411.6 473.25C1476.35 466.448 1494.36 371.108 1498.37 341.69C1500.55 327.05 1494 315.75 1485.56 309.652Z" fill="black"/>
<path d="M1013.43 193.022C1012.6 188.497 1010.05 184.663 1006.29 182.233C1005.3 180.71 1004.05 179.37 1002.59 178.255C1002.75 177.005 1002.88 175.739 1002.95 174.445C1003.38 168.219 1002.69 162.922 1000.84 158.247C999.09 153.811 996.734 150.091 993.825 147.175C993.015 146.366 992.161 145.611 991.269 144.905C990.59 144.043 989.877 143.229 989.123 142.473C985.953 139.306 982.137 136.919 977.775 135.381L977.201 135.193C974.379 134.331 971.475 133.894 968.566 133.894C962.099 133.894 955.727 136.009 949.63 140.181C948.51 140.947 947.429 141.798 946.366 142.691C944.914 141.37 943.27 140.215 941.442 139.262C942.782 136.737 944.122 134.209 945.403 131.645C946.345 129.761 947.523 127.474 948.939 124.781C950.658 121.506 952.085 118.086 953.217 114.598C957.197 114.262 960.942 114.057 964.355 114.014L965.439 114.007C969.978 114.007 972.538 114.385 973.801 114.661C974.359 114.834 974.965 115.001 975.594 115.155C977.194 115.559 978.67 115.817 980.066 115.931C981.03 116.081 982.002 116.157 982.969 116.157C985.739 116.157 988.439 115.551 990.953 114.374C995.658 112.186 999.125 108.114 1000.53 103.145C1001.27 100.726 1001.56 98.1114 1001.39 95.3194C1001.18 92.1447 999.99 87.4194 995.49 82.9074C994.733 82.1527 993.882 81.4567 992.979 80.79C992.346 79.9287 991.643 79.0634 990.787 78.206C988.169 75.594 984.702 73.5314 980.179 71.8927C976.631 70.6127 972.13 69.654 966.461 68.966C959.682 68.118 952.583 67.6887 945.362 67.6887C940.989 67.6887 936.47 67.846 931.929 68.158C920.453 68.9474 909.267 70.1487 898.678 71.734C888.202 73.3034 878.537 75.0047 869.949 76.794C861.926 78.4674 855.586 79.65 851.153 80.302C846.794 80.926 842.865 81.3034 839.459 81.4247C838.977 81.442 838.506 81.45 838.045 81.45C835.649 81.45 834.17 81.206 833.343 80.9994C830.763 80.354 828.385 80.0394 826.074 80.0394C825.625 80.0394 825.183 80.0527 824.715 80.078C821.901 80.2407 819.497 80.7327 817.365 81.5834L816.825 81.8007L816.301 82.0607C814.669 82.874 813.266 83.73 812.01 84.678L811.494 85.066L811.017 85.5007C807.169 88.9954 804.783 93.0674 803.931 97.5607C803.389 100.373 803.261 103.073 803.546 105.594C803.883 109.019 804.877 112.231 806.403 114.966C807.767 117.503 809.907 120.377 813.203 122.915C816.641 127.427 822.665 132.11 833.19 133.819C835.433 134.183 837.898 134.37 840.522 134.37C842.713 134.37 845.062 134.238 847.563 133.987C845.659 138.431 843.901 142.965 842.327 147.551C839.753 155.039 837.682 162.747 836.171 170.457C834.609 178.423 833.817 186.521 833.817 194.521C833.817 196.297 833.849 198.557 833.925 201.281C834.014 204.598 834.371 207.977 834.99 211.298C835.681 215.062 836.762 218.591 838.201 221.77C839.901 225.542 842.399 228.634 845.527 230.927C847.801 234.001 850.737 236.407 854.233 237.979C856.859 239.229 859.546 239.862 862.225 239.862C865.487 239.862 868.63 238.917 871.301 237.141C872.363 236.437 873.323 235.589 874.229 234.681C877.587 237.925 882.053 240.009 887.181 240.626C888.163 240.767 889.155 240.839 890.134 240.839C890.847 240.839 891.553 240.774 892.257 240.699C892.903 242.371 893.65 243.977 894.495 245.509C896.527 249.185 899.197 252.318 902.429 254.889C904.609 257.561 907.169 259.887 910.171 261.753C914.805 264.63 920.333 266.089 926.607 266.089C927.005 266.089 927.411 266.083 927.819 266.071C931.435 266.033 934.771 265.195 937.742 263.582C940.263 262.267 942.435 260.486 944.255 258.222C945.983 256.045 948.426 251.721 947.614 245.545C948.473 246.005 949.345 246.423 950.237 246.805C953.958 248.334 957.783 249.238 961.614 249.497C962.625 249.586 963.639 249.631 964.635 249.631C970.991 249.631 976.955 247.841 982.367 244.305C987.098 241.209 991.201 237.651 994.654 233.623C998.089 229.537 1001.23 224.869 1003.99 219.741C1005.45 217.419 1006.84 214.863 1008.14 212.125L1011.55 204.855C1013.48 200.615 1014.1 196.761 1013.43 193.022Z" fill="black"/>
<path d="M416.815 645.645C417.275 659.794 419.535 672.989 422.741 684.077C422.741 684.077 434.849 735.684 468.215 728.029C468.215 728.029 497.346 722.396 487.479 676.228C480.722 644.402 447.962 640.312 416.815 645.645ZM345.69 432.772C355.226 431.14 367.195 428.444 379.798 425.638C382.841 412.832 400.961 327.598 420.007 274.541C405.605 278.301 364.779 353.196 334.25 434.73C338.063 434.078 341.877 433.426 345.69 432.772ZM432.703 474.785C425.273 511.625 414.937 573.537 415.494 626.47C477.475 617.798 501.814 645.318 507.838 680.501C515.261 723.856 486.375 742.381 486.375 742.381C468.175 754.549 441.469 755.242 427.045 751.245C392.681 741.609 373.514 706.09 365.026 660.332C342.475 670.013 327.455 681.641 305.247 700.964C305.247 700.964 220.142 784.732 137.598 791.753C137.598 791.753 89.0659 794.889 64.0793 763.597C56.5286 753.894 52.3739 744.909 52.4512 733.902C52.4512 733.902 50.9953 702.462 85.4753 716.605C120.591 730.64 198.002 747.136 285.719 690.078C304.025 678.537 327.709 656.376 362.434 641.377C360.049 619.796 359.462 597.265 360.673 573.776C362.559 523.656 371.645 469.717 376.347 443.689C366.921 445.951 357.386 447.583 348.486 449.107C340.859 450.413 334.503 451.501 327.51 452.697C314.878 485.905 295.789 523.449 295.789 523.449C252.989 613.553 202.686 671.314 127.035 680.39C82.8553 686.016 58.7486 667.506 46.1913 647.665C24.1686 614.577 31.9926 564.734 31.9926 564.734C40.8233 494.025 96.7673 446.295 149.769 450.152C203.299 453.273 202.459 498.04 202.459 498.04C202.459 498.04 203.946 541.113 171.461 561.55C161.935 567.061 153.358 570.47 143.502 570.217C143.502 570.217 114.458 568.725 130.279 538.853C130.279 538.853 138.191 523.917 135.709 505.589C135.709 505.589 133.537 485.264 111.387 485.824C89.2379 486.384 61.9646 514.334 52.6553 563.137C52.6553 563.137 34.1646 669.129 121.587 663.858C184.427 660.212 235.385 568.066 278.353 459.824C266.803 461.153 222.407 465.523 205.069 440.684C205.069 440.684 188.905 418.877 196.59 398.805C198.907 393.234 202.711 388.705 207.366 385.32C207.366 385.32 222.817 376.209 226.679 394.948C229.585 411.912 229.126 439.8 267.499 442.284C267.499 442.284 276.719 442.641 285.09 441.856C294.362 419.573 315.013 372.061 344.154 328.272C374.351 283.005 413.995 243.236 452.357 241.84C454.899 241.404 457.55 241.597 460.943 242.309C460.943 242.309 492.646 247.877 484.775 278.324C484.775 278.324 467.115 335.672 445.699 416.943C452.379 417.739 459.165 419.163 465.533 421.953C484.738 430.953 484.357 447.833 473.345 452.302C464.241 456.449 455.626 444.345 455.626 444.345C450.843 439.345 447.021 436.119 440.975 435.212C440.975 435.212 434.582 462.82 432.703 474.785Z" fill="#788D79"/>
<path d="M505.526 399.587C503.07 392.895 498.698 382.647 495.521 383.191C491.815 384.471 491.414 393.595 505.526 399.587ZM673.597 475.573C670.997 494.772 656.807 583.86 607.638 587.104C607.638 587.104 549.581 595.749 543.449 517.904C543.449 517.904 539.879 489.413 547.83 447.957C550.861 431.273 538.019 425.063 529.111 422.709C530.257 456.141 522.61 491.725 520.41 501.801C518.523 509.885 511.951 509.717 511.951 509.717C506.123 510.068 502.613 504.851 503.766 500.125C512.253 461.809 512.293 435.288 510.023 418.216C462.605 401.115 481.262 361.057 500.87 360.936C521.749 360.593 526.942 402.385 526.942 402.385C527.049 403.015 527.157 403.641 527.265 404.271C533.943 405.068 546.557 406.14 561.51 409.4C585.155 413.76 610.102 429.535 603.834 465.532C595.885 506.985 587.543 561.445 616.263 561.052C616.263 561.052 642.333 560.469 657.794 471.165C658.947 466.44 663.603 463.055 669.226 465.327C669.226 465.327 674.85 467.597 673.597 475.573Z" fill="#788D79"/>
<path d="M900.035 288.708C898.568 295.424 895.4 299.848 890.852 303.86C890.852 303.86 876.468 315.376 870.699 296.964C864.93 278.551 856.782 242.438 805.414 255.759C796.092 258.647 779.255 263.471 759.98 269.36C750.73 299.396 738.018 343.61 725.53 392.956C725.53 392.956 678.984 552.902 719.988 547.822C719.988 547.822 750.292 545.215 772.206 451.575C773.36 446.85 778.014 443.466 783.002 445.847C783.002 445.847 789.26 448.007 788.01 455.983C785.408 475.18 763.172 566.942 712.732 570.4C712.732 570.4 654.674 579.05 654.351 493.095C654.351 493.095 655.259 433.444 668.048 378.224C668.048 378.224 676.42 335.403 688.28 290.043C671.442 294.867 658.946 298.299 658.946 298.299C658.946 298.299 605.152 316.563 574.766 288.138C574.766 288.138 555.746 268.763 561.418 248.387C562.884 241.671 566.054 237.248 570.6 233.238C570.6 233.238 584.984 221.718 590.755 240.131C596.524 258.543 605.619 292.556 659.852 280.682C659.852 280.682 669.915 278.311 693.639 271.664C700.259 249.191 706.987 227.343 714.048 211.26C714.048 211.26 720.991 190.67 749.506 192.9C749.506 192.9 780.779 195.956 773.435 225.667C773.435 225.667 770.386 234.596 765.867 250.243C776.986 246.4 788.847 243.076 802.51 238.798C802.51 238.798 856.304 220.534 886.687 248.958C886.687 248.958 905.706 268.336 900.035 288.708Z" fill="#788D79"/>
<path d="M795.207 329.937C792.948 316.743 801.921 304.212 815.272 301.927C828.62 299.641 841.255 308.472 843.513 321.667C845.772 334.861 836.796 347.391 823.448 349.676C810.1 351.961 797.465 343.132 795.207 329.937ZM899.872 436.828C897.271 456.029 882.447 545.225 833.915 548.361C833.915 548.361 775.22 557.115 769.088 479.269C769.088 479.269 763.983 430.349 779.639 376.579C779.639 376.579 785.192 351.701 813.287 355.296C813.287 355.296 844.668 358.976 837.324 388.689C837.324 388.689 801.204 521.628 841.901 522.417C841.901 522.417 868.609 521.724 884.068 432.42C884.587 427.805 889.876 424.312 894.865 426.692C894.865 426.692 900.488 428.963 899.872 436.828Z" fill="#788D79"/>
<path d="M914.161 516.513C899.455 526.144 885.812 538.178 883.515 551.509C883.515 551.509 880.052 565.684 891.084 568.966C904.872 573.072 912.059 565.376 914.788 554.562C918.259 544.268 917.905 530.748 914.161 516.513ZM1014.8 416.504C1009.43 427.124 990.865 463.932 965.912 486.312C969.763 501.172 972.991 520.018 971.241 540.366C967.409 575.301 941.493 595.904 912.667 595.665C893.057 595.79 881.492 589.362 874.792 580.81C862.461 566.108 866.224 546.061 866.224 546.061C869.989 526.018 888.815 509.86 907.756 498.208C906.475 494.549 904.665 491.626 902.748 488.072C882.308 452.769 875.876 422.829 875.876 422.829C875.876 422.829 861.304 360.653 893.877 333.092C901.915 326.544 912.085 324.801 921.737 327.674C934.255 331.996 942.976 344.73 939.095 360.269C938.675 361.637 938.148 362.372 937.725 363.737C933.093 374.878 933.141 394.272 933.141 394.272C933.141 394.272 931.809 413.25 955.877 458.281C955.877 458.281 957.157 461.942 959.399 467.38C970.712 457.034 984.657 439.125 1000.79 407.261C1003.32 402.946 1008.94 401.341 1013.51 405.084C1013.51 405.084 1018.07 408.829 1014.8 416.504Z" fill="#788D79"/>
<path d="M1125.27 347.146C1121.32 335.537 1109.9 303.216 1089.23 304.815C1064.12 307.175 1054.29 360.591 1051.24 411.558C1051.24 411.558 1045.63 497.236 1073.28 490.563C1073.28 490.563 1079.52 488.846 1084.37 475.084C1088.88 459.435 1114.34 382.646 1125.27 347.146ZM1253.9 376.21C1251.3 395.408 1236.48 484.607 1187.94 487.742C1187.94 487.742 1130.52 496.279 1123.55 421.164C1115.33 441.971 1106.7 464.144 1101.44 479.274C1096.81 490.414 1094.17 497.976 1087.51 504.938C1078.74 514.848 1066.56 516.288 1066.56 516.288C992.395 526.399 984.698 416.487 997.076 366.507C1009.46 316.534 1059.95 290.429 1091.63 288.239C1109.75 287.077 1124.51 296.835 1134.49 305.471C1135.44 303.368 1136.28 300.641 1137.12 297.909C1137.12 297.909 1146.18 278.25 1171 281.762C1171 281.762 1202.17 288.063 1195.03 315.154C1195.03 315.154 1155.87 460.9 1196.57 461.69C1196.57 461.69 1222.64 461.107 1238.1 371.803C1238.62 367.186 1243.91 363.692 1248.9 366.074C1248.9 366.074 1255.15 368.235 1253.9 376.21Z" fill="#788D79"/>
<path d="M1292.38 379.323C1296.72 377.933 1305.29 248.419 1369.31 247.807C1369.31 247.807 1416.25 246.882 1403.76 334.383C1398.35 375.405 1394.13 423.338 1417.77 423.818C1417.77 423.818 1443.83 423.233 1459.29 333.93C1460.45 329.203 1465.1 325.819 1470.73 328.091C1470.73 328.091 1476.35 330.362 1475.1 338.337C1472.5 357.537 1457.98 444.738 1409.14 449.869C1326.92 458.774 1347.47 330.441 1347.47 330.441C1354.78 285.215 1344.71 287.586 1344.71 287.586C1328.71 289.678 1313.89 378.873 1305.37 405.553C1296.23 436.221 1272.6 435.741 1272.6 435.741C1225.65 436.666 1232.62 343.642 1232.62 343.642C1233.9 305.267 1242.95 281.727 1242.95 281.727C1242.95 281.727 1249.79 260.51 1277.78 263.479C1277.78 263.479 1309.05 266.53 1300.87 298.974C1300.87 298.974 1293.61 321.557 1290.82 351.135C1290.82 351.135 1288.14 381.342 1292.38 379.323Z" fill="#788D79"/>
<path d="M754.321 810.815C757.346 818.447 764.498 830.127 779.238 827.942C779.238 827.942 790.813 827.315 790.344 818.571C789.538 807.845 780.741 806.633 769.284 807.914C763.554 808.558 754.321 810.815 754.321 810.815ZM845.86 637.265C845.86 637.265 849.061 714.13 753.52 735.918C750.184 758.562 748.301 783.669 751.628 801.093C755.91 800.018 760.246 799.277 765.254 798.421C790.174 795.511 798.99 804.867 800.577 816.139C800.577 816.139 802.177 833.521 782.884 839.199C751.469 848.311 737.068 830.41 731.648 820.811C727.925 823.146 724.87 825.366 721.481 827.643C721.481 827.643 680.337 862.19 646.72 858.443C646.72 858.443 620.73 857.118 609.669 838.643C606.314 833.103 604.744 827.942 605.176 822.434C605.176 822.434 606.746 805.53 623.908 815.491C641.404 825.398 662.317 843.21 711.777 819.119C716.889 816.886 721.5 813.722 727.168 810.714C721.449 793.359 720.278 770.473 722.056 746.738C722.161 745.363 722.213 743.657 722.321 742.279C715.648 743.423 706.246 744.69 699.453 743.138C686.148 739.646 687.174 727.586 692.728 723.918C697.673 720.697 704.198 726.709 704.198 726.709C708.212 730.095 715.508 732.582 723.573 731.539C727.389 699.65 734.6 669.557 734.6 669.557C734.6 669.557 738.842 652.193 744.242 631.577C744.242 631.577 748.097 615.975 764.184 617.635C782.772 619.883 777.032 638.521 777.032 638.521C773.28 650.707 769.969 661.463 765.722 676.79C765.722 676.79 759.769 698.179 755.326 724.406C818.985 702.979 816.66 641.246 816.66 641.246C817.204 614.33 803.882 584.695 768.664 585.634C733.72 586.182 711.672 601.841 711.672 601.841C669.29 631.167 700.814 664.815 711.646 679.935C722.202 695.445 705.41 699.681 705.41 699.681C700.182 701.253 694.953 700.791 689.048 698.403C670.554 690.709 667.93 665.353 667.93 665.353C665.077 614.573 708.585 591.846 708.585 591.846C708.585 591.846 730.748 576.846 769.746 573.905C812.474 570.662 846.413 592.354 845.86 637.265Z" fill="#788D79"/>
<path d="M922.05 662.924C919.974 656.83 913.978 639.862 903.13 640.7C889.947 641.94 884.789 669.984 883.186 696.741C883.186 696.741 880.241 741.724 894.754 738.221C894.754 738.221 898.033 737.318 900.574 730.092C902.946 721.877 916.31 681.564 922.05 662.924ZM989.582 678.184C988.217 688.262 980.435 735.094 954.954 736.74C954.954 736.74 924.807 741.221 921.147 701.785C916.837 712.709 912.302 724.349 909.538 732.293C907.106 738.142 905.725 742.114 902.227 745.768C897.622 750.969 891.226 751.728 891.226 751.728C852.29 757.036 848.25 699.329 854.747 673.09C861.249 646.853 887.753 633.146 904.389 631.996C913.902 631.385 921.649 636.51 926.89 641.046C927.387 639.942 927.829 638.508 928.271 637.073C928.271 637.073 933.031 626.75 946.058 628.596C946.058 628.596 962.422 631.906 958.675 646.129C958.675 646.129 938.114 722.648 959.482 723.061C959.482 723.061 973.169 722.756 981.285 675.868C981.558 673.448 984.337 671.613 986.954 672.862C986.954 672.862 990.239 673.998 989.582 678.184Z" fill="#788D79"/>
<path d="M997.09 720.019C989.368 725.075 982.206 731.395 981 738.391C981 738.391 979.182 745.831 984.975 747.558C992.214 749.714 995.987 745.671 997.418 739.993C999.24 734.591 999.058 727.49 997.09 720.019ZM1049.93 667.511C1047.1 673.09 1037.36 692.411 1024.26 704.165C1026.28 711.963 1027.98 721.861 1027.06 732.543C1025.05 750.881 1011.44 761.701 996.304 761.574C986.01 761.641 979.938 758.266 976.423 753.773C969.948 746.057 971.923 735.533 971.923 735.533C973.899 725.006 983.783 716.525 993.726 710.409C993.054 708.485 992.106 706.951 991.098 705.087C980.367 686.553 976.99 670.833 976.99 670.833C976.99 670.833 969.34 638.193 986.442 623.719C990.662 620.283 995.999 619.367 1001.07 620.875C1007.64 623.146 1012.22 629.829 1010.18 637.989C1009.96 638.707 1009.68 639.093 1009.46 639.809C1007.03 645.657 1007.05 655.839 1007.05 655.839C1007.05 655.839 1006.36 665.805 1018.99 689.447C1018.99 689.447 1019.66 691.367 1020.84 694.221C1026.78 688.791 1034.1 679.39 1042.57 662.659C1043.9 660.397 1046.85 659.551 1049.25 661.517C1049.25 661.517 1051.64 663.485 1049.93 667.511Z" fill="#788D79"/>
<path d="M1167.53 569.962C1166.76 573.492 1165.1 575.812 1162.71 577.92C1162.71 577.92 1155.16 583.965 1152.13 574.297C1149.1 564.632 1144.82 545.67 1117.85 552.665C1112.96 554.182 1104.12 556.713 1094 559.805C1089.14 575.576 1082.47 598.789 1075.92 624.696C1075.92 624.696 1051.48 708.669 1073 706.002C1073 706.002 1088.91 704.634 1100.42 655.472C1101.03 652.992 1103.47 651.214 1106.09 652.466C1106.09 652.466 1109.37 653.6 1108.72 657.785C1107.35 667.864 1095.68 716.041 1069.2 717.858C1069.2 717.858 1038.71 722.397 1038.54 677.27C1038.54 677.27 1039.02 645.95 1045.74 616.961C1045.74 616.961 1050.13 594.48 1056.36 570.665C1047.52 573.197 1040.95 575 1040.95 575C1040.95 575 1012.71 584.589 996.761 569.666C996.761 569.666 986.777 559.49 989.755 548.794C990.524 545.268 992.187 542.948 994.573 540.84C994.573 540.84 1002.13 534.792 1005.16 544.46C1008.19 554.125 1012.96 571.982 1041.43 565.749C1041.43 565.749 1046.72 564.508 1059.17 561.013C1062.65 549.214 1066.18 537.748 1069.88 529.302C1069.88 529.302 1073.53 518.492 1088.5 519.665C1088.5 519.665 1104.92 521.268 1101.06 536.865C1101.06 536.865 1099.46 541.556 1097.09 549.77C1102.93 547.75 1109.15 546.008 1116.33 543.76C1116.33 543.76 1144.57 534.173 1160.52 549.096C1160.52 549.096 1170.51 559.268 1167.53 569.962Z" fill="#788D79"/>
<path d="M1100.56 604.18C1099.28 600.662 1096.98 595.284 1095.31 595.57C1093.37 596.242 1093.15 601.032 1100.56 604.18ZM1188.8 644.072C1187.44 654.152 1179.99 700.925 1154.17 702.628C1154.17 702.628 1123.69 707.166 1120.48 666.298C1120.48 666.298 1118.6 651.338 1122.77 629.576C1124.37 620.813 1117.62 617.556 1112.95 616.318C1113.55 633.869 1109.53 652.55 1108.38 657.842C1107.39 662.088 1103.94 661.998 1103.94 661.998C1100.88 662.184 1099.03 659.444 1099.64 656.964C1104.1 636.848 1104.12 622.922 1102.93 613.96C1078.03 604.981 1087.83 583.95 1098.12 583.885C1109.08 583.708 1111.81 605.646 1111.81 605.646C1111.86 605.977 1111.92 606.308 1111.98 606.638C1115.48 607.054 1122.11 607.621 1129.96 609.332C1142.37 611.621 1155.47 619.901 1152.17 638.801C1148 660.566 1143.63 689.156 1158.7 688.949C1158.7 688.949 1172.39 688.644 1180.51 641.758C1181.11 639.278 1183.56 637.501 1186.51 638.696C1186.51 638.696 1189.46 639.886 1188.8 644.072Z" fill="#788D79"/>
<path d="M1234.42 703.829C1232.41 704.171 1230.08 704.57 1227.74 704.97C1205.89 709.731 1192.85 723.849 1192.85 723.849C1187.91 729.106 1183.86 735.571 1181.87 739.986C1174.29 757.921 1188.11 764.383 1188.11 764.383C1194.46 767.371 1202.02 765.397 1207.3 762.118C1216.52 755.783 1222.11 744.302 1222.11 744.302C1227.26 734.253 1231.23 719.314 1234.42 703.829ZM1311.61 623.045C1310.24 633.123 1302.46 679.954 1276.98 681.601C1276.98 681.601 1272.31 682.399 1266.57 681.006C1265.75 686.241 1264.32 691.918 1262.89 697.593C1270.85 699.967 1278.76 704.045 1285.12 711.105C1285.12 711.105 1298.07 726.542 1293.66 742.915C1292.12 747.934 1289.96 751.359 1286.29 754.023C1286.29 754.023 1275.74 762.621 1272.08 747.289C1269.84 738.166 1268.35 721.447 1258.75 711.545C1254.78 724.45 1249.14 737.638 1241.77 748.745C1241.77 748.745 1229.63 770.174 1210.23 775.198C1201.66 777.342 1189.75 775.987 1180.55 768.393C1180.55 768.393 1157.64 750.927 1184.44 720.873C1184.44 720.873 1198.69 703.833 1224.16 698.114C1224.16 698.114 1229.05 696.597 1235.79 695.786C1238.97 678.265 1241.09 660.582 1241.96 649.571C1237.86 659.778 1234.11 669.929 1231.23 677.21C1229.13 683.003 1227.42 687.033 1224.25 690.627C1219.65 695.83 1212.92 696.645 1212.92 696.645C1175.32 701.723 1175.69 651.75 1182.68 622.371C1182.68 622.371 1185.1 610.413 1188.64 600.982C1191.68 592.653 1198.62 587.05 1206.75 588.373C1223.39 591.296 1220.59 607.057 1217.73 616.373C1217.73 616.373 1212.49 635.943 1210.69 649.493C1209.16 662.657 1206.22 685.567 1216.45 683.138C1216.45 683.138 1220.06 682.179 1222.27 675.009C1225.25 666.351 1239.66 622.124 1244.68 605.305C1245.67 599.026 1247.27 592.301 1249.42 584.802C1249.42 584.802 1251.33 571.914 1267.75 573.514C1267.75 573.514 1283.72 574.516 1280.32 592.753C1280.32 592.753 1259.81 667.566 1281.18 667.979C1281.18 667.979 1295.2 667.617 1303.31 620.73C1303.59 618.309 1306.03 616.531 1308.98 617.725C1308.98 617.725 1311.93 618.917 1311.61 623.045Z" fill="#788D79"/>
<path d="M969.413 87.6643C974.019 88.223 977.577 88.9563 980.089 89.863C982.601 90.7723 984.412 91.7816 985.531 92.8963C986.647 94.0163 987.236 95.131 987.309 96.2456C987.379 97.3643 987.273 98.339 986.995 99.1763C986.715 100.295 986.053 101.096 985.007 101.583C983.96 102.074 982.879 102.179 981.763 101.898C981.063 101.898 980.157 101.76 979.043 101.479C978.483 101.34 977.995 101.2 977.577 101.059C974.228 100.223 969.76 99.8403 964.181 99.9096C958.597 99.9803 952.424 100.399 945.659 101.164C938.888 101.934 931.739 102.943 924.204 104.199C916.668 105.455 909.272 106.783 902.019 108.176C902.156 109.991 901.983 111.911 901.496 113.932C901.004 115.956 900.345 117.908 899.507 119.792C898.669 121.676 897.76 123.491 896.787 125.235C895.808 126.98 895.039 128.479 894.484 129.735C891.689 135.316 888.9 140.864 886.111 146.374C883.319 151.887 880.808 157.572 878.576 163.432C875.228 171.944 872.508 180.63 870.415 189.49C868.32 198.352 867.133 207.248 866.856 216.175C866.856 217.014 866.749 218.096 866.541 219.42C866.332 220.748 865.983 221.932 865.495 222.978C865.005 224.026 864.344 224.83 863.505 225.386C862.671 225.942 861.552 225.872 860.159 225.176C858.203 224.339 856.737 222.842 855.761 220.676C854.784 218.514 854.052 216.108 853.565 213.455C853.073 210.807 852.796 208.19 852.727 205.607C852.656 203.026 852.624 200.896 852.624 199.223C852.624 192.106 853.319 184.99 854.715 177.874C856.108 170.758 857.993 163.746 860.368 156.839C862.739 149.932 865.495 143.234 868.635 136.746C871.773 130.258 875.087 123.946 878.576 117.804C878.853 117.248 879.273 116.515 879.832 115.606C880.387 114.7 881.088 113.69 881.925 112.572C874.391 114.246 867.903 115.711 862.461 116.966C850.459 119.896 841.459 120.875 835.46 119.896C829.459 118.922 825.483 116.62 823.531 112.99C822.831 111.734 822.412 110.342 822.275 108.804C822.135 107.688 822.201 106.398 822.484 104.931C822.761 103.467 823.668 102.038 825.204 100.642C825.76 100.223 826.46 99.803 827.299 99.3856C827.993 99.1083 828.972 98.935 830.228 98.8616C831.484 98.7936 832.948 98.967 834.624 99.3856C837.413 100.084 840.761 100.364 844.671 100.223C848.573 100.084 852.971 99.667 857.856 98.967C862.597 98.2696 869.159 97.051 877.531 95.3043C885.901 93.5616 895.216 91.9216 905.472 90.3843C915.727 88.851 926.435 87.7003 937.6 86.9323C948.763 86.1656 959.367 86.4083 969.413 87.6643Z" fill="#788D79"/>
<path d="M922.112 161.129C922.389 160.852 923.053 160.26 924.1 159.351C925.147 158.444 926.435 157.608 927.971 156.84C929.504 156.073 931.215 155.551 933.1 155.269C934.983 154.992 936.9 155.269 938.856 156.107C940.807 156.944 942.205 158.131 943.041 159.664C943.879 161.201 944.403 162.804 944.612 164.479C944.82 166.153 944.785 167.759 944.505 169.292C944.225 170.829 943.948 172.013 943.669 172.851C943.388 173.688 943.041 174.665 942.623 175.781C942.205 176.759 941.713 177.947 941.159 179.339C940.599 180.736 939.832 182.341 938.856 184.153C937.877 185.827 936.796 187.816 935.612 190.117C934.424 192.42 933.237 194.795 932.053 197.233C930.867 199.677 929.716 202.189 928.6 204.769C927.481 207.353 926.507 209.76 925.671 211.991C925.111 214.364 924.484 216.736 923.785 219.107C923.085 222.596 922.704 225.559 922.636 228.001C922.561 230.441 922.668 232.501 922.948 234.176C923.368 236.547 924.1 238.363 925.147 239.619C926.195 240.873 927.308 241.885 928.495 242.652C929.679 243.419 930.725 244.013 931.635 244.432C932.54 244.851 933.132 245.479 933.415 246.316C933.832 247.709 933.761 248.755 933.205 249.455C932.645 250.152 931.949 250.711 931.112 251.131C930.133 251.685 928.947 251.967 927.553 251.967C923.505 252.105 920.192 251.372 917.612 249.769C915.027 248.164 913.007 246.035 911.541 243.385C910.077 240.733 909.063 237.699 908.507 234.281C907.947 230.86 907.669 227.479 907.669 224.129C907.669 221.199 907.807 218.375 908.089 215.653C908.367 212.932 908.716 210.597 909.136 208.641C909.692 206.271 910.249 204.036 910.809 201.944C911.645 198.316 912.867 194.271 914.472 189.804C916.073 185.34 918.136 180.385 920.647 174.944C920.925 174.107 921.343 173.201 921.903 172.223C922.321 171.387 922.844 170.412 923.471 169.292C924.1 168.177 924.761 167.061 925.459 165.944C925.597 165.525 925.597 165.247 925.459 165.107C925.041 164.688 924.132 165.456 922.739 167.408C921.343 169.364 919.669 172.153 917.716 175.781C917.015 177.177 916.251 178.643 915.412 180.176C914.715 181.573 913.913 183.107 913.007 184.781C912.097 186.455 911.296 188.271 910.6 190.223C907.669 197.201 905.435 202.607 903.901 206.444C902.365 210.284 901.249 213.387 900.553 215.757C900.272 216.317 899.853 217.223 899.299 218.479C898.737 219.735 898.005 220.991 897.099 222.245C896.189 223.501 895.039 224.62 893.645 225.595C892.249 226.569 890.716 226.919 889.043 226.641C886.388 226.36 884.469 225.385 883.287 223.711C882.097 222.037 881.225 220.504 880.669 219.107C879.553 215.48 879.241 211.467 879.728 207.072C880.217 202.676 880.669 199.155 881.088 196.501C882.203 188.967 883.913 181.537 886.216 174.211C888.519 166.885 891.203 159.7 894.275 152.653C897.341 145.608 900.692 138.701 904.321 131.932C907.947 125.167 911.645 118.572 915.412 112.153C916.111 110.897 917.261 109.049 918.868 106.607C920.471 104.167 922.249 101.829 924.204 99.5946C926.157 97.3639 928.215 95.6546 930.379 94.4666C932.54 93.2839 934.597 93.3159 936.553 94.5719C939.064 96.2466 940.495 98.4439 940.844 101.164C941.191 103.885 940.912 106.711 940.005 109.641C939.097 112.572 937.915 115.433 936.449 118.223C934.983 121.015 933.761 123.387 932.785 125.34C929.716 131.481 926.507 137.445 923.159 143.235C919.809 149.025 916.597 155.06 913.531 161.34C909.763 169.292 906.273 177.319 903.065 185.409C899.853 193.503 897.204 201.735 895.111 210.107C894.971 210.524 894.901 211.12 894.901 211.887C894.901 212.653 895.039 213.108 895.321 213.247C895.877 213.387 896.504 212.619 897.204 210.944C897.623 209.969 898.215 208.295 898.984 205.92C899.748 203.549 900.727 200.865 901.913 197.861C903.097 194.864 904.459 191.619 905.995 188.129C907.528 184.644 909.203 181.223 911.019 177.875C911.856 175.921 912.829 173.969 913.948 172.013C916.041 168.387 918.763 164.76 922.112 161.129Z" fill="#788D79"/>
<path d="M962.714 191.897C964.943 191.478 966.759 190.922 968.155 190.222C968.853 189.804 969.549 189.385 970.249 188.966C973.038 187.014 975.095 184.677 976.422 181.954C977.747 179.234 978.549 177.318 978.831 176.2C979.666 172.85 980.222 170.165 980.505 168.141C980.782 166.121 980.851 164.55 980.714 163.432C980.574 162.176 980.295 161.27 979.875 160.712C978.758 159.318 977.502 159.352 976.109 160.816C974.713 162.281 973.353 164.41 972.029 167.2C970.699 169.992 969.443 172.99 968.261 176.2C967.074 179.41 966.063 182.132 965.226 184.362C964.943 185.062 964.597 186.073 964.179 187.397C963.761 188.725 963.27 190.222 962.714 191.897ZM998.505 193.99C999.059 194.27 999.411 194.794 999.551 195.56C999.689 196.328 999.411 197.48 998.713 199.013C997.595 201.388 996.479 203.758 995.366 206.13C994.247 208.504 993.063 210.665 991.807 212.618C989.433 217.085 986.783 221.062 983.854 224.549C981.342 227.478 978.27 230.128 974.643 232.501C971.014 234.873 967.037 235.852 962.714 235.432C960.341 235.29 957.969 234.732 955.597 233.757C953.641 232.921 951.583 231.56 949.423 229.677C947.258 227.793 945.41 225.038 943.877 221.409C942.621 218.76 941.783 215.62 941.365 211.99C940.947 208.362 940.947 204.49 941.365 200.373C941.783 196.26 942.55 192.038 943.667 187.71C944.783 183.388 946.317 179.202 948.271 175.153C952.318 166.362 956.99 160.154 962.297 156.525C967.597 152.898 972.761 151.852 977.783 153.385C980.155 154.222 982.178 155.478 983.854 157.153C985.387 158.69 986.678 160.782 987.725 163.432C988.771 166.084 989.155 169.433 988.878 173.478C988.595 178.642 987.479 183.037 985.527 186.665C984.69 188.202 983.609 189.666 982.283 191.06C980.957 192.456 979.318 193.608 977.363 194.513C975.41 195.422 973.107 195.978 970.458 196.188C967.806 196.397 964.807 196.154 961.458 195.456L959.573 202.99C958.038 209.27 957.377 214.156 957.585 217.641C957.794 221.132 958.386 223.71 959.365 225.385C960.481 227.338 961.945 228.525 963.761 228.944C966.41 229.64 969.062 229.153 971.714 227.478C974.363 225.805 976.737 223.852 978.831 221.618C981.342 219.106 983.711 216.108 985.946 212.618C987.622 210.246 989.155 207.772 990.551 205.188C991.945 202.608 993.131 200.41 994.11 198.596C994.527 197.621 995.014 196.782 995.574 196.084C995.993 195.386 996.445 194.794 996.934 194.304C997.422 193.817 997.946 193.712 998.505 193.99Z" fill="#788D79"/>
<path d="M235.542 179.527C261.781 198.253 271.576 221.923 280.192 251.249C244.029 285.387 191.826 269.053 213.4 218.301C174.485 221.544 149.574 184.232 171.558 154.059C187.174 132.624 219.325 126.208 242.084 110.911C261.064 98.1507 277.442 77.912 266.484 60.904C261.494 79.2667 247.113 90.1867 230.709 98.4467C227.146 100.24 223.598 101.991 220.09 103.713C204.786 47.4241 285.541 14.0681 339.056 37.7614C355.478 45.0321 371.324 54.6507 392.27 59.7041C409.736 63.9161 453.87 68.1547 449.928 41.1547C432.465 52.0974 413.874 47.2361 397.869 40.7654C410.36 35.6481 423.809 24.6361 438.073 20.0694C496.789 1.26406 541.022 50.2507 527.841 94.7214C519.034 124.435 495.304 140.108 469.584 147.701C418.997 162.64 392.464 133.06 332.477 159.624C395.952 150.705 427.653 178.419 460.949 170.243C461.469 182.165 463.341 199.191 468.921 218.093C403.22 214.991 342.373 243.405 302.528 277.224C325.688 243.665 386.048 219.917 430.61 211.648C371.288 216.147 321.624 247.089 299.301 261.017C318.914 241.548 346.284 225.209 386.982 212.485C358.876 215.523 318.129 235.745 295.121 249.505C314.318 230.484 354.213 211.828 384.926 206.365C352.757 207.935 313.741 223.931 291.674 237.449C310.865 221.812 349.241 204.172 380.376 198.245C348.329 200.247 309.63 214.575 288.476 227.772C308.082 212.493 345.356 196.211 375.261 190.267C344.036 192.353 306.822 206.609 285.486 219.728C303.749 205.168 338.732 189.343 367.225 182.767C337.709 186.375 301.449 200.352 281.48 212.433C297.59 200.004 330.849 184.643 356.309 176.868C330.649 180.632 293.997 192.841 275.625 204.344C265.594 192.608 255.272 182.22 235.542 179.527Z" fill="#E7CAA9"/>
<path d="M409.763 638.592C410.223 652.742 412.483 665.936 415.688 677.024C415.688 677.024 427.796 728.631 461.163 720.976C461.163 720.976 490.293 715.343 480.427 669.175C473.669 637.35 440.909 633.259 409.763 638.592ZM338.637 425.719C348.173 424.087 360.143 421.391 372.745 418.586C375.789 405.779 393.908 320.546 412.955 267.488C398.552 271.248 357.727 346.143 327.197 427.678C331.011 427.026 334.824 426.374 338.637 425.719ZM425.651 467.732C418.22 504.572 407.884 566.484 408.441 619.418C470.423 610.746 494.761 638.266 500.785 673.448C508.209 716.803 479.323 735.328 479.323 735.328C461.123 747.496 434.416 748.19 419.992 744.192C385.629 734.556 366.461 699.038 357.973 653.279C335.423 662.96 320.403 674.588 298.195 693.911C298.195 693.911 213.089 777.679 130.545 784.7C130.545 784.7 82.0132 787.836 57.0265 756.544C49.4759 746.842 45.3212 737.855 45.3985 726.85C45.3985 726.85 43.9425 695.41 78.4225 709.552C113.539 723.587 190.949 740.083 278.667 683.026C296.972 671.484 320.656 649.323 355.381 634.324C352.996 612.743 352.409 590.212 353.62 566.723C355.507 516.603 364.592 462.664 369.295 436.636C359.868 438.898 350.333 440.53 341.433 442.054C333.807 443.36 327.451 444.448 320.457 445.644C307.825 478.852 288.736 516.396 288.736 516.396C245.936 606.5 195.633 664.262 119.983 673.338C75.8025 678.963 51.6959 660.454 39.1385 640.612C17.1159 607.524 24.9399 557.682 24.9399 557.682C33.7705 486.972 89.7145 439.242 142.716 443.099C196.247 446.22 195.407 490.987 195.407 490.987C195.407 490.987 196.893 534.06 164.408 554.498C154.883 560.008 146.307 563.418 136.449 563.164C136.449 563.164 107.405 561.672 123.227 531.8C123.227 531.8 131.139 516.864 128.656 498.536C128.656 498.536 126.484 478.211 104.335 478.771C82.1852 479.331 54.9119 507.282 45.6025 556.084C45.6025 556.084 27.1118 662.076 114.535 656.806C177.375 653.159 228.332 561.014 271.3 452.771C259.751 454.1 215.355 458.47 198.016 433.631C198.016 433.631 181.852 411.824 189.537 391.752C191.855 386.182 195.659 381.652 200.313 378.267C200.313 378.267 215.764 369.156 219.628 387.895C222.532 404.859 222.073 432.747 260.447 435.231C260.447 435.231 269.667 435.588 278.037 434.803C287.309 412.52 307.96 365.008 337.101 321.219C367.299 275.952 406.943 236.183 445.305 234.787C447.848 234.351 450.497 234.544 453.891 235.256C453.891 235.256 485.593 240.824 477.723 271.271C477.723 271.271 460.063 328.619 438.647 409.89C445.327 410.686 452.112 412.11 458.48 414.9C477.685 423.9 477.304 440.78 466.292 445.25C457.188 449.396 448.573 437.292 448.573 437.292C443.791 432.292 439.968 429.066 433.923 428.159C433.923 428.159 427.529 455.767 425.651 467.732Z" fill="#F0BAB3"/>
<path d="M498.473 392.534C496.017 385.842 491.645 375.594 488.468 376.138C484.762 377.418 484.361 386.542 498.473 392.534ZM666.544 468.52C663.944 487.719 649.754 576.807 600.585 580.051C600.585 580.051 542.528 588.696 536.396 510.851C536.396 510.851 532.826 482.36 540.777 440.904C543.808 424.22 530.966 418.01 522.058 415.656C523.204 449.088 515.557 484.672 513.357 494.748C511.47 502.832 504.898 502.664 504.898 502.664C499.07 503.015 495.56 497.798 496.713 493.072C505.2 454.756 505.24 428.235 502.97 411.163C455.552 394.062 474.209 354.004 493.817 353.883C514.696 353.54 519.889 395.332 519.889 395.332C519.996 395.962 520.104 396.588 520.212 397.218C526.89 398.015 539.505 399.087 554.457 402.347C578.102 406.707 603.049 422.482 596.781 458.479C588.832 499.932 580.49 554.392 609.21 553.999C609.21 553.999 635.281 553.416 650.741 464.112C651.894 459.387 656.55 456.002 662.173 458.274C662.173 458.274 667.797 460.544 666.544 468.52Z" fill="#F0BAB3"/>
<path d="M892.982 281.656C891.515 288.372 888.346 292.796 883.798 296.808C883.798 296.808 869.415 308.324 863.646 289.912C857.877 271.497 849.729 235.385 798.361 248.706C789.039 251.594 772.202 256.418 752.927 262.308C743.677 292.344 730.965 336.557 718.477 385.904C718.477 385.904 671.931 545.849 712.934 540.769C712.934 540.769 743.239 538.162 765.153 444.522C766.307 439.797 770.961 436.413 775.949 438.794C775.949 438.794 782.207 440.954 780.957 448.93C778.355 468.128 756.119 559.889 705.678 563.348C705.678 563.348 647.621 571.997 647.298 486.042C647.298 486.042 648.206 426.392 660.995 371.172C660.995 371.172 669.367 328.35 681.227 282.99C664.389 287.814 651.893 291.246 651.893 291.246C651.893 291.246 598.098 309.51 567.713 281.085C567.713 281.085 548.693 261.71 554.365 241.334C555.831 234.618 559.001 230.196 563.547 226.185C563.547 226.185 577.931 214.665 583.701 233.078C589.471 251.49 598.566 285.504 652.799 273.629C652.799 273.629 662.862 271.258 686.586 264.612C693.206 242.138 699.933 220.29 706.995 204.208C706.995 204.208 713.938 183.617 742.453 185.848C742.453 185.848 773.726 188.904 766.382 218.614C766.382 218.614 763.333 227.544 758.814 243.19C769.933 239.348 781.794 236.024 795.457 231.745C795.457 231.745 849.25 213.481 879.634 241.905C879.634 241.905 898.653 261.284 892.982 281.656Z" fill="#F0BAB3"/>
<path d="M788.154 322.884C785.895 309.69 794.87 297.159 808.219 294.874C821.567 292.588 834.202 301.419 836.461 314.614C838.721 327.808 829.743 340.338 816.395 342.623C803.047 344.908 790.413 336.079 788.154 322.884ZM892.819 429.775C890.218 448.976 875.394 538.172 826.862 541.308C826.862 541.308 768.167 550.062 762.035 472.216C762.035 472.216 756.93 423.296 772.586 369.526C772.586 369.526 778.139 344.648 806.234 348.243C806.234 348.243 837.615 351.923 830.271 381.636C830.271 381.636 794.151 514.575 834.849 515.364C834.849 515.364 861.557 514.671 877.015 425.367C877.534 420.752 882.823 417.259 887.813 419.639C887.813 419.639 893.435 421.91 892.819 429.775Z" fill="#F0BAB3"/>
<path d="M907.109 509.46C892.402 519.091 878.759 531.125 876.462 544.456C876.462 544.456 872.999 558.631 884.031 561.913C897.819 566.019 905.006 558.323 907.735 547.509C911.207 537.215 910.853 523.695 907.109 509.46ZM1007.75 409.451C1002.38 420.071 983.813 456.879 958.859 479.259C962.71 494.119 965.938 512.965 964.189 533.313C960.357 568.248 934.441 588.851 905.614 588.612C886.005 588.737 874.439 582.309 867.739 573.757C855.409 559.055 859.171 539.008 859.171 539.008C862.937 518.965 881.762 502.807 900.703 491.155C899.422 487.496 897.613 484.573 895.697 481.019C875.257 445.716 868.823 415.776 868.823 415.776C868.823 415.776 854.251 353.6 886.825 326.039C894.862 319.489 905.033 317.748 914.685 320.621C927.202 324.943 935.923 337.677 932.042 353.216C931.622 354.584 931.095 355.319 930.673 356.684C926.041 367.825 926.089 387.219 926.089 387.219C926.089 387.219 924.757 406.197 948.825 451.228C948.825 451.228 950.105 454.889 952.346 460.327C963.661 449.981 977.605 432.072 993.738 400.208C996.27 395.893 1001.88 394.288 1006.45 398.031C1006.45 398.031 1011.02 401.776 1007.75 409.451Z" fill="#F0BAB3"/>
<path d="M1118.22 340.093C1114.27 328.484 1102.84 296.164 1082.18 297.762C1057.07 300.122 1047.24 353.538 1044.19 404.505C1044.19 404.505 1038.58 490.184 1066.22 483.51C1066.22 483.51 1072.47 481.793 1077.31 468.032C1081.83 452.382 1107.28 375.594 1118.22 340.093ZM1246.85 369.157C1244.25 388.357 1229.42 477.554 1180.89 480.689C1180.89 480.689 1123.47 489.226 1116.5 414.112C1108.28 434.918 1099.65 457.092 1094.39 472.221C1089.75 483.361 1087.12 490.924 1080.46 497.885C1071.69 507.796 1059.5 509.236 1059.5 509.236C985.342 519.346 977.644 409.434 990.023 359.456C1002.4 309.481 1052.89 283.376 1084.58 281.186C1102.7 280.024 1117.45 289.782 1127.44 298.418C1128.39 296.316 1129.23 293.588 1130.07 290.856C1130.07 290.856 1139.13 271.197 1163.94 274.709C1163.94 274.709 1195.12 281.01 1187.98 308.101C1187.98 308.101 1148.82 453.848 1189.52 454.637C1189.52 454.637 1215.59 454.054 1231.05 364.75C1231.56 360.133 1236.86 356.641 1241.84 359.021C1241.84 359.021 1248.1 361.182 1246.85 369.157Z" fill="#F0BAB3"/>
<path d="M1285.32 372.27C1289.67 370.88 1298.24 241.366 1362.25 240.754C1362.25 240.754 1409.2 239.829 1396.71 327.33C1391.3 368.352 1387.08 416.285 1410.71 416.765C1410.71 416.765 1436.78 416.18 1452.24 326.877C1453.39 322.15 1458.05 318.766 1463.67 321.038C1463.67 321.038 1469.3 323.309 1468.04 331.284C1465.44 350.484 1450.93 437.685 1402.09 442.816C1319.87 451.721 1340.42 323.388 1340.42 323.388C1347.72 278.162 1337.66 280.533 1337.66 280.533C1321.66 282.625 1306.84 371.82 1298.32 398.5C1289.18 429.168 1265.54 428.688 1265.54 428.688C1218.59 429.613 1225.57 336.589 1225.57 336.589C1226.84 298.214 1235.9 274.674 1235.9 274.674C1235.9 274.674 1242.74 253.457 1270.72 256.426C1270.72 256.426 1302 259.477 1293.81 291.921C1293.81 291.921 1286.56 314.504 1283.77 344.082C1283.77 344.082 1281.09 374.289 1285.32 372.27Z" fill="#F0BAB3"/>
<path d="M747.268 803.763C750.294 811.395 757.446 823.076 772.186 820.889C772.186 820.889 783.76 820.263 783.291 811.519C782.486 800.792 773.688 799.58 762.23 800.861C756.502 801.505 747.268 803.763 747.268 803.763ZM838.807 630.212C838.807 630.212 842.008 707.077 746.467 728.865C743.131 751.509 741.248 776.616 744.575 794.04C748.858 792.965 753.194 792.224 758.202 791.368C783.122 788.459 791.938 797.815 793.524 809.087C793.524 809.087 795.124 826.468 775.831 832.147C744.416 841.259 730.015 823.357 724.595 813.759C720.872 816.093 717.818 818.313 714.428 820.591C714.428 820.591 673.284 855.137 639.667 851.391C639.667 851.391 613.678 850.065 602.616 831.591C599.262 826.051 597.691 820.889 598.123 815.381C598.123 815.381 599.694 798.477 616.855 808.439C634.351 818.345 655.264 836.157 704.724 812.067C709.836 809.833 714.447 806.669 720.115 803.661C714.396 786.307 713.226 763.42 715.003 739.685C715.108 738.311 715.16 736.604 715.268 735.227C708.595 736.371 699.194 737.637 692.4 736.085C679.095 732.593 680.122 720.533 685.675 716.865C690.62 713.644 697.146 719.656 697.146 719.656C701.159 723.043 708.455 725.529 716.52 724.487C720.336 692.597 727.547 662.504 727.547 662.504C727.547 662.504 731.79 645.14 737.19 624.524C737.19 624.524 741.044 608.923 757.131 610.583C775.719 612.831 769.979 631.468 769.979 631.468C766.227 643.655 762.916 654.411 758.67 669.737C758.67 669.737 752.716 691.127 748.274 717.353C811.932 695.927 809.607 634.193 809.607 634.193C810.151 607.277 796.83 577.643 761.611 578.581C726.667 579.129 704.619 594.788 704.619 594.788C662.238 624.115 693.762 657.763 704.594 672.883C715.15 688.392 698.358 692.628 698.358 692.628C693.13 694.2 687.9 693.739 681.995 691.351C663.502 683.656 660.878 658.3 660.878 658.3C658.024 607.52 701.532 584.793 701.532 584.793C701.532 584.793 723.695 569.793 762.694 566.852C805.422 563.611 839.36 585.301 838.807 630.212Z" fill="#F0BAB3"/>
<path d="M914.997 655.871C912.921 649.777 906.925 632.809 896.077 633.647C882.894 634.887 877.736 662.931 876.133 689.688C876.133 689.688 873.188 734.671 887.702 731.168C887.702 731.168 890.98 730.265 893.522 723.039C895.893 714.824 909.257 674.511 914.997 655.871ZM982.529 671.131C981.164 681.209 973.382 728.041 947.901 729.687C947.901 729.687 917.754 734.168 914.094 694.732C909.784 705.656 905.249 717.296 902.485 725.24C900.053 731.089 898.672 735.061 895.174 738.715C890.569 743.916 884.173 744.675 884.173 744.675C845.238 749.983 841.197 692.276 847.694 666.037C854.196 639.8 880.7 626.093 897.336 624.943C906.849 624.332 914.596 629.457 919.837 633.993C920.334 632.889 920.776 631.455 921.218 630.02C921.218 630.02 925.978 619.697 939.005 621.543C939.005 621.543 955.369 624.853 951.622 639.076C951.622 639.076 931.061 715.595 952.429 716.008C952.429 716.008 966.117 715.703 974.232 668.815C974.505 666.395 977.284 664.56 979.901 665.809C979.901 665.809 983.186 666.945 982.529 671.131Z" fill="#F0BAB3"/>
<path d="M990.037 712.966C982.316 718.022 975.153 724.342 973.948 731.338C973.948 731.338 972.129 738.778 977.922 740.505C985.161 742.661 988.934 738.618 990.365 732.94C992.188 727.538 992.005 720.437 990.037 712.966ZM1042.88 660.458C1040.05 666.037 1030.31 685.358 1017.21 697.112C1019.23 704.91 1020.92 714.808 1020.01 725.49C1017.99 743.828 1004.39 754.648 989.252 754.521C978.957 754.588 972.885 751.213 969.37 746.72C962.896 739.004 964.87 728.48 964.87 728.48C966.846 717.953 976.73 709.472 986.673 703.356C986.001 701.432 985.053 699.898 984.045 698.034C973.314 679.5 969.937 663.78 969.937 663.78C969.937 663.78 962.288 631.14 979.389 616.666C983.609 613.23 988.946 612.314 994.013 613.822C1000.59 616.093 1005.16 622.776 1003.13 630.936C1002.91 631.654 1002.63 632.04 1002.41 632.756C999.976 638.604 1000 648.786 1000 648.786C1000 648.786 999.302 658.752 1011.94 682.394C1011.94 682.394 1012.61 684.314 1013.79 687.168C1019.73 681.738 1027.05 672.337 1035.52 655.606C1036.85 653.344 1039.79 652.498 1042.19 654.464C1042.19 654.464 1044.59 656.432 1042.88 660.458Z" fill="#F0BAB3"/>
<path d="M1160.48 562.91C1159.71 566.439 1158.04 568.759 1155.65 570.867C1155.65 570.867 1148.1 576.912 1145.07 567.244C1142.05 557.579 1137.77 538.618 1110.8 545.612C1105.91 547.13 1097.07 549.66 1086.95 552.752C1082.09 568.523 1075.42 591.736 1068.86 617.643C1068.86 617.643 1044.43 701.615 1065.95 698.95C1065.95 698.95 1081.86 697.582 1093.37 648.419C1093.97 645.939 1096.41 644.162 1099.03 645.414C1099.03 645.414 1102.32 646.547 1101.66 650.732C1100.3 660.811 1088.62 708.987 1062.14 710.806C1062.14 710.806 1031.66 715.344 1031.49 670.218C1031.49 670.218 1031.97 638.898 1038.68 609.908C1038.68 609.908 1043.08 587.427 1049.31 563.612C1040.46 566.144 1033.9 567.947 1033.9 567.947C1033.9 567.947 1005.66 577.536 989.708 562.614C989.708 562.614 979.724 552.438 982.701 541.742C983.471 538.215 985.133 535.895 987.52 533.787C987.52 533.787 995.073 527.739 998.103 537.407C1001.13 547.072 1005.91 564.93 1034.38 558.696C1034.38 558.696 1039.66 557.455 1052.12 553.96C1055.59 542.162 1059.13 530.694 1062.83 522.25C1062.83 522.25 1066.48 511.439 1081.45 512.612C1081.45 512.612 1097.87 514.215 1094.01 529.812C1094.01 529.812 1092.41 534.503 1090.04 542.718C1095.88 540.698 1102.1 538.955 1109.28 536.707C1109.28 536.707 1137.52 527.12 1153.47 542.043C1153.47 542.043 1163.45 552.215 1160.48 562.91Z" fill="#F0BAB3"/>
<path d="M1093.51 597.127C1092.22 593.61 1089.93 588.231 1088.26 588.518C1086.31 589.19 1086.1 593.979 1093.51 597.127ZM1181.75 637.019C1180.38 647.099 1172.94 693.872 1147.12 695.575C1147.12 695.575 1116.64 700.114 1113.42 659.246C1113.42 659.246 1111.55 644.286 1115.72 622.524C1117.31 613.76 1110.57 610.503 1105.89 609.266C1106.5 626.816 1102.48 645.498 1101.33 650.79C1100.33 655.035 1096.89 654.946 1096.89 654.946C1093.83 655.131 1091.98 652.391 1092.59 649.911C1097.04 629.795 1097.07 615.87 1095.87 606.907C1070.98 597.928 1080.77 576.898 1091.07 576.832C1102.03 576.655 1104.76 598.594 1104.76 598.594C1104.81 598.924 1104.87 599.255 1104.93 599.586C1108.43 600.002 1115.05 600.568 1122.9 602.279C1135.32 604.568 1148.41 612.848 1145.12 631.748C1140.95 653.514 1136.57 682.103 1151.65 681.896C1151.65 681.896 1165.34 681.591 1173.45 634.706C1174.06 632.226 1176.5 630.448 1179.45 631.643C1179.45 631.643 1182.41 632.834 1181.75 637.019Z" fill="#F0BAB3"/>
<path d="M1227.36 696.776C1225.36 697.119 1223.02 697.517 1220.69 697.917C1198.84 702.679 1185.79 716.796 1185.79 716.796C1180.85 722.053 1176.81 728.519 1174.82 732.933C1167.24 750.868 1181.06 757.331 1181.06 757.331C1187.41 760.319 1194.97 758.344 1200.25 755.065C1209.47 748.731 1215.06 737.249 1215.06 737.249C1220.21 727.2 1224.18 712.261 1227.36 696.776ZM1304.56 615.992C1303.19 626.071 1295.41 672.901 1269.93 674.548C1269.93 674.548 1265.26 675.347 1259.52 673.953C1258.7 679.188 1257.27 684.865 1255.84 690.54C1263.8 692.915 1271.71 696.992 1278.07 704.052C1278.07 704.052 1291.02 719.489 1286.61 735.863C1285.06 740.881 1282.9 744.307 1279.24 746.971C1279.24 746.971 1268.69 755.568 1265.03 740.236C1262.78 731.113 1261.29 714.395 1251.7 704.492C1247.72 717.397 1242.08 730.585 1234.71 741.692C1234.71 741.692 1222.58 763.121 1203.17 768.145C1194.61 770.289 1182.7 768.935 1173.5 761.34C1173.5 761.34 1150.59 743.875 1177.38 713.82C1177.38 713.82 1191.64 696.78 1217.11 691.061C1217.11 691.061 1222 689.544 1228.73 688.733C1231.92 671.212 1234.04 653.529 1234.9 642.519C1230.81 652.725 1227.06 662.876 1224.18 670.157C1222.08 675.951 1220.37 679.98 1217.2 683.575C1212.6 688.777 1205.87 689.592 1205.87 689.592C1168.27 694.671 1168.64 644.697 1175.63 615.319C1175.63 615.319 1178.05 603.36 1181.59 593.929C1184.63 585.6 1191.57 579.997 1199.69 581.32C1216.34 584.243 1213.54 600.004 1210.67 609.32C1210.67 609.32 1205.44 628.891 1203.63 642.44C1202.11 655.604 1199.16 678.515 1209.39 676.085C1209.39 676.085 1213.01 675.127 1215.22 667.956C1218.2 659.299 1232.61 615.071 1237.63 598.252C1238.62 591.973 1240.21 585.248 1242.36 577.751C1242.36 577.751 1244.28 564.861 1260.69 566.461C1260.69 566.461 1276.67 567.463 1273.26 585.7C1273.26 585.7 1252.76 660.513 1274.12 660.927C1274.12 660.927 1288.14 660.564 1296.26 613.677C1296.53 611.256 1298.98 609.479 1301.93 610.672C1301.93 610.672 1304.88 611.864 1304.56 615.992Z" fill="#F0BAB3"/>
<path d="M964.711 82.9625C969.317 83.5211 972.875 84.2545 975.387 85.1611C977.899 86.0705 979.71 87.0798 980.829 88.1945C981.943 89.3145 982.534 90.4291 982.607 91.5438C982.677 92.6625 982.571 93.6371 982.293 94.4745C982.013 95.5931 981.351 96.3945 980.305 96.8811C979.258 97.3718 978.177 97.4771 977.061 97.1958C976.361 97.1958 975.455 97.0585 974.341 96.7771C973.779 96.6385 973.293 96.4985 972.875 96.3571C969.526 95.5211 965.058 95.1385 959.479 95.2078C953.895 95.2785 947.722 95.6971 940.957 96.4625C934.186 97.2318 927.037 98.2411 919.502 99.4971C911.966 100.753 904.569 102.081 897.317 103.474C897.454 105.289 897.281 107.209 896.793 109.23C896.302 111.254 895.643 113.206 894.805 115.09C893.967 116.974 893.058 118.789 892.085 120.533C891.106 122.278 890.337 123.777 889.782 125.033C886.987 130.616 884.198 136.162 881.409 141.672C878.617 147.185 876.106 152.87 873.874 158.73C870.526 167.242 867.806 175.928 865.711 184.788C863.618 193.65 862.431 202.546 862.154 211.473C862.154 212.312 862.047 213.394 861.839 214.718C861.63 216.046 861.281 217.23 860.793 218.276C860.303 219.324 859.642 220.128 858.803 220.684C857.969 221.24 856.85 221.17 855.457 220.474C853.501 219.637 852.035 218.14 851.059 215.974C850.082 213.812 849.35 211.406 848.863 208.753C848.371 206.105 848.094 203.488 848.025 200.905C847.954 198.324 847.922 196.194 847.922 194.521C847.922 187.404 848.617 180.288 850.013 173.172C851.406 166.056 853.291 159.044 855.666 152.137C858.037 145.23 860.793 138.532 863.933 132.044C867.071 125.556 870.385 119.244 873.874 113.102C874.151 112.546 874.571 111.813 875.13 110.904C875.685 109.998 876.386 108.988 877.223 107.87C869.689 109.544 863.201 111.009 857.759 112.264C845.757 115.194 836.757 116.173 830.758 115.194C824.757 114.22 820.779 111.918 818.829 108.288C818.129 107.032 817.71 105.64 817.573 104.102C817.433 102.986 817.499 101.696 817.782 100.229C818.059 98.7651 818.966 97.3358 820.502 95.9398C821.058 95.5211 821.758 95.1011 822.597 94.6838C823.291 94.4065 824.27 94.2331 825.526 94.1598C826.781 94.0918 828.246 94.2651 829.922 94.6838C832.711 95.3825 836.059 95.6625 839.969 95.5211C843.871 95.3825 848.269 94.9651 853.154 94.2651C857.894 93.5678 864.457 92.3491 872.829 90.6025C881.199 88.8598 890.514 87.2198 900.77 85.6825C911.025 84.1491 921.733 82.9985 932.898 82.2305C944.061 81.4638 954.665 81.7065 964.711 82.9625Z" fill="#F0BAB3"/>
<path d="M917.41 156.427C917.687 156.15 918.351 155.558 919.398 154.649C920.445 153.742 921.733 152.906 923.269 152.138C924.803 151.371 926.513 150.849 928.398 150.567C930.281 150.29 932.198 150.567 934.154 151.405C936.105 152.242 937.503 153.429 938.339 154.962C939.177 156.499 939.701 158.102 939.91 159.777C940.118 161.451 940.083 163.057 939.803 164.59C939.523 166.127 939.246 167.311 938.969 168.149C938.686 168.986 938.339 169.963 937.921 171.079C937.503 172.057 937.013 173.245 936.457 174.637C935.897 176.034 935.13 177.639 934.154 179.451C933.175 181.125 932.094 183.114 930.91 185.415C929.722 187.718 928.535 190.093 927.351 192.531C926.165 194.975 925.014 197.487 923.898 200.067C922.781 202.651 921.805 205.058 920.969 207.289C920.409 209.662 919.782 212.034 919.083 214.405C918.383 217.894 918.002 220.857 917.934 223.299C917.861 225.739 917.966 227.799 918.246 229.474C918.666 231.845 919.398 233.661 920.445 234.917C921.493 236.171 922.606 237.183 923.793 237.95C924.977 238.717 926.025 239.311 926.933 239.73C927.838 240.149 928.43 240.777 928.713 241.614C929.13 243.007 929.059 244.053 928.503 244.753C927.943 245.45 927.247 246.009 926.41 246.429C925.431 246.983 924.245 247.265 922.851 247.265C918.803 247.403 915.491 246.67 912.91 245.067C910.325 243.462 908.305 241.333 906.841 238.683C905.375 236.031 904.361 232.997 903.805 229.579C903.245 226.158 902.967 222.777 902.967 219.427C902.967 216.497 903.105 213.673 903.387 210.951C903.665 208.23 904.014 205.895 904.434 203.939C904.99 201.569 905.547 199.334 906.107 197.242C906.943 193.614 908.165 189.569 909.77 185.102C911.371 180.638 913.434 175.683 915.945 170.242C916.223 169.405 916.641 168.499 917.201 167.521C917.619 166.685 918.142 165.71 918.769 164.59C919.398 163.475 920.059 162.359 920.757 161.242C920.895 160.823 920.895 160.545 920.757 160.405C920.339 159.986 919.43 160.754 918.037 162.706C916.641 164.662 914.967 167.451 913.014 171.079C912.313 172.475 911.549 173.941 910.711 175.474C910.013 176.871 909.211 178.405 908.305 180.079C907.395 181.753 906.594 183.569 905.898 185.521C902.967 192.499 900.733 197.905 899.199 201.742C897.663 205.582 896.547 208.685 895.853 211.055C895.57 211.615 895.151 212.521 894.597 213.777C894.035 215.033 893.303 216.289 892.397 217.543C891.487 218.799 890.338 219.918 888.943 220.893C887.549 221.867 886.014 222.217 884.341 221.939C881.687 221.658 879.767 220.683 878.585 219.009C877.395 217.335 876.523 215.802 875.967 214.405C874.851 210.778 874.539 206.765 875.026 202.37C875.515 197.974 875.967 194.453 876.386 191.799C877.501 184.265 879.211 176.835 881.514 169.509C883.817 162.183 886.501 154.998 889.573 147.951C892.641 140.906 895.99 133.999 899.619 127.23C903.245 120.465 906.943 113.87 910.711 107.451C911.409 106.195 912.559 104.347 914.166 101.905C915.769 99.4647 917.547 97.1274 919.502 94.8927C921.455 92.6621 923.513 90.9527 925.678 89.7647C927.838 88.5821 929.895 88.6141 931.851 89.8701C934.362 91.5447 935.793 93.7421 936.142 96.4621C936.489 99.1834 936.211 102.009 935.303 104.939C934.395 107.87 933.213 110.731 931.747 113.521C930.281 116.313 929.059 118.685 928.083 120.638C925.014 126.779 921.805 132.743 918.457 138.533C915.107 144.323 911.895 150.358 908.829 156.638C905.061 164.59 901.571 172.617 898.363 180.707C895.151 188.801 892.502 197.033 890.409 205.405C890.269 205.822 890.199 206.418 890.199 207.185C890.199 207.951 890.338 208.406 890.619 208.545C891.175 208.685 891.802 207.917 892.502 206.242C892.921 205.267 893.513 203.593 894.282 201.218C895.046 198.847 896.025 196.163 897.211 193.159C898.395 190.162 899.757 186.918 901.293 183.427C902.827 179.942 904.501 176.521 906.317 173.173C907.154 171.219 908.127 169.267 909.246 167.311C911.339 163.685 914.061 160.058 917.41 156.427Z" fill="#F0BAB3"/>
<path d="M958.012 187.195C960.242 186.777 962.058 186.221 963.454 185.521C964.151 185.102 964.847 184.683 965.547 184.265C968.336 182.313 970.394 179.975 971.72 177.253C973.046 174.533 973.847 172.617 974.13 171.498C974.964 168.149 975.52 165.463 975.803 163.439C976.08 161.419 976.15 159.849 976.012 158.73C975.872 157.474 975.594 156.569 975.174 156.01C974.055 154.617 972.8 154.65 971.406 156.114C970.011 157.579 968.651 159.709 967.327 162.498C965.998 165.29 964.742 168.289 963.559 171.498C962.372 174.709 961.362 177.43 960.524 179.661C960.242 180.361 959.895 181.371 959.478 182.695C959.059 184.023 958.568 185.521 958.012 187.195ZM993.802 189.289C994.358 189.569 994.71 190.093 994.85 190.858C994.987 191.626 994.71 192.778 994.011 194.311C992.894 196.686 991.778 199.057 990.664 201.429C989.546 203.802 988.362 205.963 987.106 207.917C984.731 212.383 982.082 216.361 979.152 219.847C976.64 222.777 973.568 225.426 969.942 227.799C966.312 230.171 962.335 231.15 958.012 230.73C955.638 230.589 953.267 230.03 950.895 229.055C948.939 228.219 946.882 226.858 944.722 224.975C942.556 223.091 940.708 220.337 939.175 216.707C937.919 214.058 937.082 210.918 936.663 207.289C936.246 203.661 936.246 199.789 936.663 195.671C937.082 191.558 937.848 187.337 938.966 183.009C940.082 178.686 941.615 174.501 943.57 170.451C947.616 161.661 952.288 155.453 957.595 151.823C962.895 148.197 968.059 147.15 973.082 148.683C975.454 149.521 977.476 150.777 979.152 152.451C980.686 153.989 981.976 156.081 983.023 158.73C984.07 161.382 984.454 164.731 984.176 168.777C983.894 173.941 982.778 178.335 980.826 181.963C979.988 183.501 978.907 184.965 977.582 186.358C976.255 187.754 974.616 188.906 972.662 189.811C970.708 190.721 968.406 191.277 965.756 191.486C963.104 191.695 960.106 191.453 956.756 190.754L954.871 198.289C953.335 204.569 952.675 209.454 952.883 212.939C953.092 216.43 953.684 219.009 954.663 220.683C955.779 222.637 957.243 223.823 959.059 224.242C961.708 224.938 964.36 224.451 967.012 222.777C969.662 221.103 972.035 219.15 974.13 216.917C976.64 214.405 979.01 211.406 981.244 207.917C982.92 205.545 984.454 203.07 985.85 200.486C987.243 197.906 988.43 195.709 989.408 193.894C989.826 192.919 990.312 192.081 990.872 191.382C991.291 190.685 991.743 190.093 992.232 189.602C992.72 189.115 993.244 189.01 993.802 189.289Z" fill="#F0BAB3"/>
</svg>
