<svg xmlns="http://www.w3.org/2000/svg" xmlns:xlink="http://www.w3.org/1999/xlink" zoomAndPan="magnify" preserveAspectRatio="xMidYMid meet" version="1.0" viewBox="59.83 83.29 258.86 207.16"><defs><g></g><clipPath id="d8be46466f"><path d="M 157 132.519531 L 209 132.519531 L 209 248 L 157 248 Z M 157 132.519531 " clip-rule="nonzero"></path></clipPath><clipPath id="cacf79ff4a"><path d="M 213 143 L 246.625 143 L 246.625 248.261719 L 213 248.261719 Z M 213 143 " clip-rule="nonzero"></path></clipPath></defs><path fill="#000000" d="M 192.703125 173.90625 C 191.847656 173.246094 190.921875 172.691406 189.9375 172.253906 C 189.613281 172.113281 189.332031 172.589844 189.65625 172.738281 C 193.019531 174.210938 195.664062 177.125 196.871094 180.589844 C 197.214844 181.582031 197.445312 182.601562 197.539062 183.652344 C 197.566406 184.003906 198.121094 184.003906 198.09375 183.652344 C 197.734375 179.820312 195.726562 176.246094 192.703125 173.90625 Z M 192.703125 173.90625 " fill-opacity="1" fill-rule="nonzero"></path><g clip-path="url(#d8be46466f)"><path fill="#000000" d="M 204.101562 177.257812 C 200.804688 173.394531 195.96875 171.578125 191.078125 170.65625 C 191.132812 169.671875 190.4375 168.914062 189.582031 168.476562 C 189.433594 168.402344 189.277344 168.335938 189.121094 168.273438 C 193.574219 163.113281 198.019531 157.960938 202.476562 152.800781 C 203.507812 151.613281 204.609375 150.453125 205.519531 149.160156 C 206.261719 148.101562 206.828125 146.867188 206.746094 145.542969 C 206.671875 144.417969 206.171875 143.285156 205.160156 142.71875 C 203.980469 142.0625 202.289062 142.375 201.398438 141.242188 C 200.917969 140.632812 201.046875 139.898438 201.808594 139.621094 C 202.449219 139.386719 203.144531 139.40625 203.785156 139.164062 C 205.074219 138.683594 206.097656 137.632812 206.523438 136.324219 C 206.597656 136.101562 206.375 135.953125 206.179688 135.980469 C 204.203125 136.324219 202.4375 134.988281 200.832031 134.058594 C 200.015625 133.585938 199.164062 133.140625 198.234375 132.917969 C 197.34375 132.703125 196.425781 132.695312 195.523438 132.851562 C 193.714844 133.179688 192.054688 134.246094 191.058594 135.804688 C 190.503906 136.6875 190.066406 137.847656 188.988281 138.207031 C 188.542969 138.355469 188.042969 138.328125 187.699219 137.976562 C 187.421875 137.6875 187.355469 137.269531 187.335938 136.890625 C 187.300781 136.035156 187.476562 135.144531 187.1875 134.320312 C 186.910156 133.523438 186.222656 133.011719 185.433594 132.761719 C 183.707031 132.210938 181.65625 132.6875 180.042969 133.363281 C 178.316406 134.085938 176.765625 135.230469 175.578125 136.675781 C 174.984375 137.410156 174.472656 138.207031 174.082031 139.070312 C 173.683594 139.972656 173.441406 140.917969 173.128906 141.847656 C 172.8125 142.777344 172.386719 143.703125 171.578125 144.308594 C 170.769531 144.910156 169.75 145.097656 168.753906 145.085938 C 166.492188 145.066406 164.367188 144.019531 162.089844 144.09375 C 161.523438 144.113281 160.976562 144.203125 160.4375 144.390625 C 160.253906 144.457031 160.199219 144.621094 160.273438 144.796875 C 161.832031 148.472656 163.800781 151.984375 166.128906 155.230469 C 168.457031 158.488281 171.132812 161.488281 174.109375 164.167969 C 175.570312 165.488281 177.109375 166.710938 178.695312 167.863281 C 178.4375 167.976562 178.195312 168.125 178 168.347656 C 177.703125 168.691406 177.5625 169.125 177.65625 169.5625 C 173.285156 169.8125 168.949219 170.554688 165.117188 172.792969 C 162.777344 174.15625 160.707031 176.058594 159.382812 178.445312 C 157.941406 181.035156 157.480469 184.023438 157.644531 186.957031 C 157.820312 190.027344 158.628906 193.035156 159.621094 195.941406 C 160.671875 199.011719 161.90625 202.019531 163.167969 205.007812 C 165.738281 211.117188 168.605469 217.101562 171.753906 222.941406 C 173.3125 225.835938 174.945312 228.695312 176.644531 231.515625 C 177.507812 232.945312 178.378906 234.367188 179.273438 235.769531 C 179.308594 235.824219 179.347656 235.890625 179.382812 235.945312 C 179.226562 236.066406 179.253906 236.363281 179.476562 236.425781 C 179.476562 236.4375 179.476562 236.4375 179.476562 236.445312 C 181.230469 240.4375 182.984375 243.871094 184.738281 247.851562 C 184.839844 248.085938 185.175781 247.992188 185.25 247.789062 C 186.503906 244.09375 187.765625 240.949219 189.019531 237.253906 C 190.566406 234.980469 192.097656 232.707031 193.59375 230.394531 C 197.242188 224.761719 200.636719 218.941406 203.253906 212.75 C 205.789062 206.746094 207.597656 200.394531 208.089844 193.871094 C 208.566406 188.144531 207.988281 181.804688 204.101562 177.257812 Z M 170.789062 160.066406 C 168.105469 157.132812 165.738281 153.921875 163.753906 150.480469 C 162.695312 148.660156 161.757812 146.765625 160.921875 144.835938 C 163.121094 144.234375 165.359375 145.246094 167.539062 145.542969 C 169.414062 145.792969 171.484375 145.578125 172.710938 143.972656 C 173.292969 143.203125 173.609375 142.265625 173.898438 141.347656 C 174.195312 140.398438 174.484375 139.472656 174.964844 138.597656 C 175.894531 136.929688 177.285156 135.527344 178.929688 134.550781 C 180.523438 133.613281 182.5 132.964844 184.367188 133.121094 C 185.210938 133.195312 186.1875 133.492188 186.59375 134.300781 C 186.996094 135.089844 186.761719 136.054688 186.808594 136.898438 C 186.847656 137.671875 187.113281 138.449219 187.894531 138.746094 C 188.757812 139.082031 189.742188 138.625 190.328125 137.984375 C 191.03125 137.207031 191.394531 136.175781 192.089844 135.386719 C 192.710938 134.683594 193.511719 134.125 194.382812 133.773438 C 195.238281 133.429688 196.15625 133.261719 197.074219 133.308594 C 198.058594 133.355469 198.96875 133.6875 199.832031 134.132812 C 201.5 134.996094 203.078125 136.316406 205 136.558594 C 205.277344 136.59375 205.566406 136.59375 205.84375 136.566406 C 205.371094 137.597656 204.460938 138.402344 203.367188 138.71875 C 202.390625 138.996094 200.851562 138.90625 200.574219 140.1875 C 200.3125 141.410156 201.585938 142.3125 202.605469 142.570312 C 203.292969 142.746094 204.015625 142.792969 204.667969 143.082031 C 205.222656 143.332031 205.652344 143.769531 205.902344 144.324219 C 207.183594 147.109375 204.398438 149.726562 202.765625 151.621094 C 200.535156 154.191406 198.316406 156.773438 196.089844 159.34375 C 193.59375 162.230469 191.105469 165.117188 188.609375 168.011719 C 188.601562 168.023438 188.601562 168.039062 188.589844 168.050781 C 187.867188 167.789062 187.105469 167.613281 186.34375 167.511719 C 185.222656 167.351562 184.089844 167.335938 182.964844 167.371094 C 181.824219 167.417969 180.664062 167.472656 179.53125 167.640625 C 179.496094 167.648438 179.457031 167.660156 179.421875 167.660156 C 176.285156 165.449219 173.386719 162.898438 170.789062 160.066406 Z M 179.050781 168.320312 C 179.605469 168.125 180.273438 168.113281 180.859375 168.066406 C 182.046875 167.964844 183.246094 167.890625 184.441406 167.917969 C 185.628906 167.949219 186.828125 168.085938 187.96875 168.429688 C 188.925781 168.71875 190.613281 169.300781 190.539062 170.554688 C 189.613281 170.398438 188.683594 170.257812 187.765625 170.148438 C 187.144531 170.074219 186.511719 170.027344 185.890625 169.960938 C 185.3125 169.894531 184.75 169.710938 184.171875 169.636719 C 182.992188 169.480469 181.804688 169.460938 180.628906 169.460938 C 180.394531 169.460938 178.261719 169.589844 178.242188 169.523438 C 178.066406 168.960938 178.546875 168.496094 179.050781 168.320312 Z M 204.460938 208.21875 C 202.316406 214.355469 199.300781 220.136719 195.941406 225.6875 C 194.242188 228.492188 192.453125 231.230469 190.632812 233.949219 C 190.09375 234.757812 189.539062 235.5625 188.988281 236.371094 C 188.980469 236.371094 188.980469 236.363281 188.972656 236.363281 C 186 236.214844 183.03125 236.066406 180.0625 235.917969 C 179.792969 235.488281 179.523438 235.074219 179.253906 234.644531 C 177.535156 231.917969 175.882812 229.140625 174.296875 226.339844 C 171.140625 220.761719 168.246094 215.035156 165.617188 209.195312 C 164.300781 206.253906 163.046875 203.28125 161.859375 200.285156 C 160.738281 197.433594 159.652344 194.558594 158.9375 191.570312 C 158.25 188.691406 157.90625 185.65625 158.453125 182.734375 C 158.972656 179.976562 160.320312 177.488281 162.34375 175.558594 C 166.730469 171.371094 172.949219 170.277344 178.796875 170.054688 C 179.894531 170.007812 180.988281 170.007812 182.074219 170.082031 C 183.105469 170.15625 184.117188 170.359375 185.148438 170.453125 C 187.105469 170.628906 189.054688 170.851562 190.984375 171.207031 C 194.417969 171.84375 197.808594 172.949219 200.695312 174.964844 C 203.03125 176.589844 204.863281 178.789062 205.992188 181.394531 C 207.136719 184.023438 207.582031 186.929688 207.664062 189.777344 C 207.867188 196.035156 206.523438 202.328125 204.460938 208.21875 Z M 204.460938 208.21875 " fill-opacity="1" fill-rule="nonzero"></path></g><path fill="#000000" d="M 178.074219 171.761719 C 175.355469 172.402344 172.988281 174.242188 171.707031 176.71875 C 171.539062 177.035156 172.023438 177.3125 172.191406 176.996094 C 173.40625 174.640625 175.644531 172.894531 178.222656 172.292969 C 178.566406 172.207031 178.425781 171.679688 178.074219 171.761719 Z M 178.074219 171.761719 " fill-opacity="1" fill-rule="nonzero"></path><path fill="#000000" d="M 182.046875 172.300781 C 178.195312 175.875 176.21875 181.257812 176.625 186.472656 C 176.746094 187.949219 177.054688 189.414062 177.554688 190.808594 C 177.675781 191.140625 178.214844 190.992188 178.09375 190.660156 C 176.347656 185.851562 177.035156 180.328125 179.71875 176.003906 C 180.46875 174.777344 181.386719 173.664062 182.445312 172.691406 C 182.707031 172.449219 182.308594 172.058594 182.046875 172.300781 Z M 182.046875 172.300781 " fill-opacity="1" fill-rule="nonzero"></path><path fill="#000000" d="M 185.714844 174.007812 C 185.742188 173.65625 185.195312 173.65625 185.15625 174.007812 C 185 175.902344 185.027344 177.804688 185.257812 179.699219 C 185.296875 180.050781 185.851562 180.050781 185.816406 179.699219 C 185.59375 177.804688 185.554688 175.902344 185.714844 174.007812 Z M 185.714844 174.007812 " fill-opacity="1" fill-rule="nonzero"></path><path fill="#000000" d="M 188.851562 172.839844 C 188.664062 172.53125 188.183594 172.8125 188.367188 173.117188 C 189.5 174.945312 190.113281 177.050781 190.132812 179.207031 C 190.132812 179.558594 190.6875 179.558594 190.6875 179.207031 C 190.660156 176.960938 190.03125 174.75 188.851562 172.839844 Z M 188.851562 172.839844 " fill-opacity="1" fill-rule="nonzero"></path><path fill="#000000" d="M 189.945312 147.722656 C 187.46875 152.402344 185.851562 157.488281 185.15625 162.722656 C 185.109375 163.074219 185.667969 163.074219 185.714844 162.722656 C 186.398438 157.578125 188.007812 152.578125 190.429688 148 C 190.59375 147.683594 190.113281 147.40625 189.945312 147.722656 Z M 189.945312 147.722656 " fill-opacity="1" fill-rule="nonzero"></path><path fill="#000000" d="M 181.953125 164.511719 C 179.316406 161.773438 177.40625 158.386719 176.421875 154.722656 C 176.328125 154.378906 175.792969 154.527344 175.882812 154.871094 C 176.894531 158.628906 178.855469 162.101562 181.554688 164.914062 C 181.816406 165.164062 182.203125 164.773438 181.953125 164.511719 Z M 181.953125 164.511719 " fill-opacity="1" fill-rule="nonzero"></path><path fill="#000000" d="M 183.421875 162.777344 C 182.769531 161.328125 182.308594 159.796875 182.019531 158.238281 C 181.953125 157.886719 181.425781 158.035156 181.480469 158.386719 C 181.777344 160.003906 182.269531 161.5625 182.9375 163.066406 C 183.085938 163.378906 183.570312 163.101562 183.421875 162.777344 Z M 183.421875 162.777344 " fill-opacity="1" fill-rule="nonzero"></path><path fill="#000000" d="M 190.949219 159.019531 C 189.5 160.707031 188.3125 162.601562 187.421875 164.644531 C 187.28125 164.96875 187.753906 165.246094 187.902344 164.921875 C 188.765625 162.925781 189.925781 161.058594 191.339844 159.40625 C 191.570312 159.140625 191.179688 158.75 190.949219 159.019531 Z M 190.949219 159.019531 " fill-opacity="1" fill-rule="nonzero"></path><path fill="#000000" d="M 156.496094 222.894531 C 155.296875 218.484375 153.570312 214.246094 151.890625 210.003906 C 151.417969 208.796875 150.945312 207.589844 150.480469 206.382812 C 149.792969 204.546875 149.132812 202.6875 148.566406 200.8125 C 148.28125 199.875 148.019531 198.929688 147.789062 197.972656 C 147.695312 197.582031 147.539062 197.210938 147.453125 196.832031 C 147.351562 196.347656 147.289062 195.867188 147.175781 195.382812 C 147.121094 195.144531 147.074219 194.902344 147.074219 194.652344 C 147.074219 193.65625 147.25 192.636719 147.332031 191.644531 C 147.425781 190.621094 147.519531 189.601562 147.613281 188.582031 C 147.796875 186.539062 147.984375 184.503906 148.167969 182.464844 C 148.539062 178.390625 148.910156 174.304688 149.28125 170.230469 C 149.644531 166.210938 150.054688 162.203125 150.351562 158.183594 C 150.648438 154.210938 150.796875 150.21875 150.480469 146.246094 C 150.324219 144.289062 150.054688 142.339844 149.636719 140.417969 C 149.375 139.210938 148.800781 137.605469 147.332031 137.539062 C 146.023438 137.484375 145.308594 138.859375 144.984375 139.925781 C 144.753906 140.714844 144.679688 141.539062 144.578125 142.347656 C 144.445312 143.339844 144.335938 144.335938 144.242188 145.328125 C 143.417969 153.449219 143.40625 161.644531 143.824219 169.792969 C 143.84375 170.136719 143.863281 170.480469 143.882812 170.832031 C 144.105469 174.898438 144.429688 178.957031 144.808594 183.011719 C 144.996094 185.035156 145.199219 187.066406 145.414062 189.089844 C 145.515625 190.101562 145.625 191.113281 145.738281 192.125 C 145.839844 193.035156 146.054688 193.980469 145.828125 194.882812 C 145.710938 195.375 145.441406 195.820312 145.226562 196.285156 C 143.546875 199.949219 142.035156 203.691406 140.316406 207.339844 C 138.300781 211.609375 136.195312 215.839844 134.320312 220.175781 C 132.574219 224.222656 131.070312 228.539062 131.015625 233.011719 C 130.96875 236.835938 132.113281 240.578125 134.46875 243.601562 C 136.613281 246.359375 139.984375 247.230469 143.472656 247.742188 C 146.878906 248.242188 150.324219 248.140625 153.050781 246.007812 C 156.167969 243.566406 157.421875 240.09375 157.851562 236.277344 C 158.339844 231.785156 157.671875 227.238281 156.496094 222.894531 Z M 144.605469 173.339844 C 144.09375 165.414062 143.925781 157.460938 144.464844 149.53125 C 144.59375 147.582031 144.773438 145.644531 144.996094 143.710938 C 145.105469 142.757812 145.199219 141.78125 145.367188 140.828125 C 145.476562 140.175781 145.679688 139.527344 146.023438 138.960938 C 146.332031 138.46875 146.8125 138.03125 147.4375 138.105469 C 148.140625 138.191406 148.558594 138.847656 148.800781 139.453125 C 149.097656 140.195312 149.226562 141.011719 149.367188 141.800781 C 149.542969 142.746094 149.683594 143.703125 149.792969 144.667969 C 150.675781 152.429688 149.652344 160.289062 148.949219 168.03125 C 148.226562 176.039062 147.492188 184.050781 146.765625 192.0625 C 146.703125 192.832031 146.628906 193.59375 146.5625 194.363281 C 145.792969 187.363281 145.058594 180.367188 144.605469 173.339844 Z M 135.953125 244.464844 C 133.335938 241.996094 132.15625 239.082031 131.710938 235.527344 C 131.164062 231.191406 132.289062 226.867188 133.828125 222.847656 C 135.472656 218.589844 137.558594 214.484375 139.519531 210.355469 C 141.03125 207.152344 142.542969 203.949219 144.046875 200.757812 C 141.960938 205.929688 140.214844 211.246094 138.859375 216.65625 C 137.867188 220.628906 136.964844 224.675781 136.613281 228.761719 C 136.289062 232.527344 136.539062 236.410156 138.003906 239.9375 C 139.238281 242.90625 141.367188 245.800781 144.316406 247.242188 C 144.476562 247.324219 144.640625 247.390625 144.816406 247.453125 C 141.699219 247.242188 138.152344 246.542969 135.953125 244.464844 Z M 144.28125 246.601562 C 143.554688 246.199219 142.878906 245.699219 142.265625 245.152344 C 141.085938 244.09375 140.113281 242.832031 139.34375 241.441406 C 135.546875 234.589844 137.199219 226.292969 138.851562 219.0625 C 140.492188 211.886719 142.8125 204.859375 145.746094 198.113281 C 144.234375 204.035156 143.269531 210.09375 142.859375 216.203125 C 142.421875 222.847656 142.644531 229.539062 143.527344 236.140625 C 144.019531 239.84375 144.726562 243.519531 145.636719 247.136719 C 145.160156 247.035156 144.707031 246.832031 144.28125 246.601562 Z M 146.277344 236.382812 C 146.230469 239.796875 146.171875 243.222656 146.097656 246.636719 C 144.539062 240.316406 143.601562 233.855469 143.304688 227.351562 C 143.007812 220.722656 143.359375 214.058594 144.382812 207.503906 C 144.828125 204.664062 145.394531 201.851562 146.082031 199.058594 C 146.210938 204.859375 146.304688 210.671875 146.332031 216.480469 C 146.378906 223.117188 146.351562 229.753906 146.277344 236.382812 Z M 146.636719 247.203125 C 146.777344 240.695312 146.871094 234.191406 146.898438 227.683594 C 146.925781 221.046875 146.898438 214.421875 146.796875 207.785156 C 146.765625 205.554688 146.722656 203.328125 146.675781 201.109375 C 146.636719 199.457031 146.433594 197.714844 146.859375 196.097656 C 147.019531 197.136719 147 198.214844 147.128906 199.261719 C 147.195312 199.820312 147.277344 200.367188 147.363281 200.925781 C 147.445312 201.445312 147.667969 202.046875 147.667969 202.578125 C 148.085938 204.65625 148.632812 206.699219 149.21875 208.742188 C 149.800781 210.773438 150.425781 212.796875 151.007812 214.839844 C 151.082031 215.097656 151.15625 215.367188 151.230469 215.628906 C 152.234375 219.238281 153.042969 222.902344 153.207031 226.652344 C 153.367188 230.449219 152.929688 234.265625 151.929688 237.921875 C 151.4375 239.722656 150.804688 241.484375 150.035156 243.183594 C 149.671875 243.984375 149.300781 244.800781 148.835938 245.542969 C 148.410156 246.21875 147.84375 246.886719 147.046875 247.136719 C 146.914062 247.15625 146.777344 247.183594 146.636719 247.203125 Z M 154.683594 243.84375 C 152.921875 246.339844 150.433594 247.371094 147.527344 247.519531 C 148.046875 247.285156 148.484375 246.90625 148.847656 246.460938 C 149.367188 245.820312 149.738281 245.078125 150.089844 244.335938 C 150.507812 243.464844 150.898438 242.570312 151.25 241.671875 C 152.652344 238.089844 153.476562 234.285156 153.71875 230.449219 C 153.960938 226.609375 153.535156 222.785156 152.679688 219.035156 C 151.222656 212.65625 148.6875 206.464844 147.769531 199.976562 C 148.410156 202.261719 149.191406 204.507812 150.035156 206.726562 C 151.59375 210.847656 153.339844 214.902344 154.75 219.078125 C 156.167969 223.285156 157.273438 227.636719 157.433594 232.09375 C 157.582031 236.101562 157.0625 240.484375 154.683594 243.84375 Z M 154.683594 243.84375 " fill-opacity="1" fill-rule="nonzero"></path><path fill="#000000" d="M 147.6875 140.167969 C 147.621094 140.148438 147.574219 140.15625 147.527344 140.167969 C 147.4375 140.054688 147.277344 140.019531 147.15625 140.167969 C 146.65625 140.796875 146.359375 141.539062 146.246094 142.339844 C 146.144531 143.074219 146.109375 144 146.480469 144.679688 C 146.832031 145.308594 147.734375 145.605469 148.242188 144.984375 C 148.476562 144.695312 148.558594 144.335938 148.613281 143.980469 C 148.699219 143.519531 148.734375 143.035156 148.734375 142.5625 C 148.734375 141.699219 148.679688 140.464844 147.6875 140.167969 Z M 148.167969 143.007812 C 148.152344 143.414062 148.113281 145.011719 147.351562 144.753906 C 146.636719 144.511719 146.710938 143.304688 146.757812 142.710938 C 146.8125 141.988281 147.046875 141.261719 147.480469 140.667969 C 147.5 140.679688 147.519531 140.695312 147.539062 140.695312 C 147.957031 140.816406 148.078125 141.289062 148.121094 141.660156 C 148.1875 142.117188 148.195312 142.5625 148.167969 143.007812 Z M 148.167969 143.007812 " fill-opacity="1" fill-rule="nonzero"></path><g clip-path="url(#cacf79ff4a)"><path fill="#000000" d="M 246.128906 220.472656 C 245.765625 216.824219 244.226562 213.613281 242.183594 210.613281 C 240.1875 207.699219 237.867188 204.992188 236.195312 201.851562 C 235.304688 200.183594 234.664062 198.402344 234.347656 196.535156 C 233.988281 194.382812 234.042969 192.171875 234.265625 190.011719 C 234.71875 185.621094 235.703125 181.292969 236.214844 176.902344 C 236.742188 172.382812 237.023438 167.835938 237.03125 163.289062 C 237.042969 161.03125 236.984375 158.777344 236.863281 156.523438 C 236.753906 154.367188 236.640625 152.195312 236.308594 150.070312 C 236.105469 148.726562 235.703125 147.386719 235.082031 146.183594 C 234.777344 145.585938 234.40625 145.023438 233.96875 144.519531 C 233.570312 144.066406 233.078125 143.527344 232.492188 143.339844 C 232.25 143.265625 232.019531 143.183594 231.769531 143.164062 C 231.210938 143.128906 230.683594 143.332031 230.21875 143.609375 C 227.964844 144.964844 226.8125 147.667969 226.339844 150.144531 C 225.929688 152.261719 225.746094 154.433594 225.550781 156.578125 C 225.347656 158.824219 225.207031 161.078125 225.132812 163.335938 C 224.984375 167.882812 225.085938 172.441406 225.457031 176.976562 C 225.808594 181.378906 226.636719 185.742188 226.925781 190.148438 C 227.0625 192.320312 227.042969 194.53125 226.609375 196.675781 C 226.226562 198.53125 225.523438 200.285156 224.566406 201.925781 C 222.792969 205 220.363281 207.617188 218.265625 210.457031 C 216.109375 213.371094 214.457031 216.527344 213.957031 220.15625 C 213.445312 223.90625 214.058594 227.75 215.378906 231.277344 C 216.378906 233.96875 217.820312 236.472656 219.515625 238.785156 C 221.214844 241.097656 223.175781 243.210938 225.242188 245.199219 C 225.746094 245.679688 226.273438 246.125 226.777344 246.601562 C 227.265625 247.074219 227.871094 247.417969 228.472656 247.734375 C 228.640625 247.824219 228.816406 247.910156 229.003906 247.964844 C 229.394531 248.066406 229.8125 248.011719 230.191406 247.871094 C 231.128906 247.511719 231.945312 246.832031 232.707031 246.191406 C 233.550781 245.476562 234.359375 244.726562 235.167969 243.964844 C 237.246094 242.003906 239.203125 239.90625 240.875 237.585938 C 242.230469 235.710938 243.398438 233.6875 244.289062 231.554688 C 245.746094 228.054688 246.5 224.230469 246.128906 220.472656 Z M 242.515625 233.976562 C 241.8125 235.265625 241.003906 236.511719 240.121094 237.691406 C 238.636719 239.695312 236.929688 241.53125 235.128906 243.25 C 234.21875 244.113281 233.28125 244.949219 232.335938 245.765625 C 231.835938 246.191406 231.304688 246.628906 230.703125 246.886719 C 230.226562 247.09375 229.660156 247.433594 229.132812 247.40625 C 228.085938 247.359375 227.089844 246.144531 226.386719 245.496094 C 222.730469 242.089844 219.351562 238.273438 217.105469 233.773438 C 215.394531 230.355469 214.347656 226.550781 214.367188 222.71875 C 214.382812 219.003906 215.535156 215.5625 217.550781 212.472656 C 219.441406 209.566406 221.820312 207.023438 223.796875 204.171875 C 224.742188 202.820312 225.585938 201.398438 226.21875 199.867188 C 226.96875 198.058594 227.371094 196.144531 227.507812 194.195312 C 227.816406 190.011719 227 185.84375 226.496094 181.703125 C 225.96875 177.292969 225.679688 172.847656 225.644531 168.402344 C 225.605469 163.957031 225.808594 159.511719 226.265625 155.09375 C 226.644531 151.378906 226.839844 146.523438 230.300781 144.222656 C 232.882812 142.507812 234.839844 146.273438 235.417969 148.261719 C 236.058594 150.453125 236.113281 152.753906 236.261719 155.019531 C 236.550781 159.453125 236.59375 163.902344 236.390625 168.347656 C 236.1875 172.78125 235.742188 177.21875 235.046875 181.609375 C 234.394531 185.730469 233.429688 189.859375 233.578125 194.058594 C 233.652344 196.003906 233.976562 197.945312 234.664062 199.773438 C 235.242188 201.324219 236.039062 202.773438 236.929688 204.164062 C 238.804688 207.078125 241.085938 209.707031 242.871094 212.683594 C 244.773438 215.859375 245.792969 219.332031 245.671875 223.042969 C 245.535156 226.859375 244.347656 230.625 242.515625 233.976562 Z M 242.515625 233.976562 " fill-opacity="1" fill-rule="nonzero"></path></g><path fill="#000000" d="M 233.699219 153.679688 C 233.578125 152.632812 233.1875 150.210938 231.742188 150.265625 C 230.265625 150.320312 229.511719 151.945312 229.253906 153.171875 C 228.964844 154.507812 228.949219 156.214844 229.699219 157.414062 C 230.40625 158.535156 231.863281 158.886719 232.835938 157.894531 C 233.867188 156.863281 233.847656 155.027344 233.699219 153.679688 Z M 232.902344 156.800781 C 232.707031 157.300781 232.316406 157.773438 231.777344 157.914062 C 231.230469 158.054688 230.683594 157.765625 230.339844 157.355469 C 229.597656 156.464844 229.558594 155.007812 229.691406 153.914062 C 229.828125 152.789062 230.292969 150.824219 231.722656 150.792969 C 231.75 150.792969 231.769531 150.785156 231.789062 150.777344 C 232.632812 151.148438 232.902344 152.28125 233.058594 153.105469 C 233.273438 154.277344 233.347656 155.6875 232.902344 156.800781 Z M 232.902344 156.800781 " fill-opacity="1" fill-rule="nonzero"></path><path fill="#000000" d="M 239.796875 218.152344 C 233.949219 217.148438 227.992188 216.84375 222.078125 217.261719 C 220.417969 217.382812 218.765625 217.558594 217.121094 217.789062 C 216.769531 217.835938 216.917969 218.375 217.269531 218.328125 C 223.042969 217.519531 228.917969 217.417969 234.730469 218.011719 C 236.382812 218.179688 238.023438 218.410156 239.660156 218.691406 C 240 218.746094 240.152344 218.207031 239.796875 218.152344 Z M 239.796875 218.152344 " fill-opacity="1" fill-rule="nonzero"></path><g fill="#1d1d1b" fill-opacity="1"><g transform="translate(69.990502, 160.198693)"><g><path d="M 0.15625 -0.171875 L 2.03125 -2.390625 L 1.796875 -2.59375 C 1.078125 -2.671875 -0.609375 -4.375 -2.90625 -7.859375 L -4.484375 -10.390625 C -4.1875 -10.8125 -3.46875 -11.171875 -3.078125 -10.953125 C -3.015625 -10.703125 -2.78125 -10.40625 -2.5625 -10.234375 C -2.1875 -9.921875 -1.59375 -9.609375 -1.34375 -9.90625 C -1.09375 -10.203125 -1.46875 -10.75 -1.84375 -11.0625 C -2.0625 -11.234375 -2.421875 -11.421875 -2.640625 -11.453125 C -2.9375 -11.796875 -2.6875 -12.578125 -2.328125 -12.9375 L 0.4375 -11.78125 C 4.234375 -10.09375 6.203125 -8.703125 6.390625 -8 L 6.625 -7.796875 L 11.8125 -13.921875 L 11.578125 -14.125 C 10.609375 -13.90625 8 -14.53125 4.1875 -16.21875 L 0.859375 -17.546875 C -2.96875 -19.25 -4.90625 -20.671875 -5.09375 -21.328125 L -5.328125 -21.53125 L -10.15625 -15.828125 L -9.921875 -15.625 C -9.234375 -15.5625 -7.53125 -13.875 -5.21875 -10.375 L -3.375 -7.296875 C -1.078125 -3.828125 -0.046875 -1.34375 -0.078125 -0.375 Z M -3.203125 -11.3125 C -3.796875 -11.75 -4.625 -11.71875 -5.09375 -11.328125 L -7.25 -14.71875 L -7.046875 -14.953125 L -3.34375 -13.40625 C -3.65625 -12.859375 -3.578125 -12.03125 -3.0625 -11.5 Z M -3.203125 -11.3125 "></path></g></g></g><g fill="#1d1d1b" fill-opacity="1"><g transform="translate(83.591676, 144.292125)"><g><path d="M 11.984375 -9.9375 C 14.421875 -12.046875 14.484375 -15.40625 12.1875 -18.046875 C 10.53125 -19.953125 8.1875 -20.65625 6.640625 -19.3125 C 5.421875 -18.25 5.421875 -16.671875 6.3125 -15.640625 C 7.25 -14.5625 8.859375 -14.5 9.765625 -15.28125 C 9.984375 -15.46875 10.140625 -15.703125 10.203125 -15.90625 L 10.078125 -16.109375 C 9.65625 -15.703125 9.109375 -15.8125 8.703125 -16.265625 C 8.28125 -16.765625 8.15625 -17.625 8.890625 -18.25 C 9.703125 -18.953125 10.75 -18.71875 11.46875 -17.90625 C 12.390625 -16.84375 12.171875 -15.296875 10.96875 -14.25 C 8.421875 -12.046875 5.3125 -14.671875 2.53125 -15.25 L 2.484375 -15.546875 C 5.359375 -16.703125 6.390625 -20.53125 4.703125 -22.46875 C 3.0625 -24.375 0.28125 -24.078125 -2.5625 -21.609375 L -11.4375 -13.90625 L -11.234375 -13.671875 C -10.421875 -13.609375 -8.453125 -12.140625 -5.828125 -9.109375 L -3.59375 -6.546875 C -0.96875 -3.515625 0.203125 -1.375 0.15625 -0.546875 L 0.359375 -0.3125 L 6.46875 -5.609375 L 6.265625 -5.84375 C 5.421875 -5.90625 3.4375 -7.34375 0.8125 -10.375 L -5.828125 -18.03125 L -4.203125 -19.4375 C -2.140625 -21.234375 -0.09375 -20.6875 1.265625 -19.125 C 2.296875 -17.9375 2.015625 -16.5625 1.421875 -15.71875 C 0.765625 -16.109375 0.078125 -15.890625 -0.28125 -15.578125 C -0.859375 -15.078125 -0.953125 -14.453125 -0.5625 -14 C -0.125 -13.5 0.5625 -13.5 1.109375 -13.96875 C 1.3125 -14.15625 1.515625 -14.484375 1.515625 -14.734375 L 1.78125 -14.78125 C 2.453125 -13.53125 2.984375 -11.609375 4.28125 -10.203125 C 6.375 -7.90625 9.265625 -7.5625 11.984375 -9.9375 Z M 11.984375 -9.9375 "></path></g></g></g><g fill="#1d1d1b" fill-opacity="1"><g transform="translate(101.721165, 128.982967)"><g><path d="M 4.03125 -2.5625 L 10.796875 -6.84375 L 10.625 -7.109375 C 9.828125 -7.3125 8.109375 -9 5.953125 -12.40625 L 0.578125 -20.890625 L 1.625 -21.546875 C 3.53125 -22.765625 5.625 -22.515625 7.515625 -19.65625 L 7.859375 -19.875 L 4.953125 -24.453125 L -9.34375 -15.390625 L -6.4375 -10.8125 L -6.09375 -11.03125 C -7.859375 -13.953125 -7.203125 -15.96875 -5.3125 -17.15625 L -4.3125 -17.796875 L 1.0625 -9.3125 C 3.21875 -5.90625 4.0625 -3.640625 3.859375 -2.828125 Z M 4.03125 -2.5625 "></path></g></g></g><g fill="#1d1d1b" fill-opacity="1"><g transform="translate(119.06626, 118.435503)"><g><path d="M 0.4375 -0.21875 L 7.609375 -3.734375 L 7.46875 -4.015625 C 6.671875 -4.28125 5.171875 -6.203125 3.40625 -9.796875 L 1.90625 -12.859375 C 0.140625 -16.46875 -0.453125 -18.828125 -0.1875 -19.609375 L -0.3125 -19.890625 L -7.484375 -16.375 L -7.359375 -16.09375 C -6.59375 -15.828125 -5.078125 -13.90625 -3.3125 -10.296875 L -1.8125 -7.234375 C -0.046875 -3.640625 0.53125 -1.28125 0.296875 -0.5 Z M 0.4375 -0.21875 "></path></g></g></g><g fill="#1d1d1b" fill-opacity="1"><g transform="translate(129.431352, 113.202586)"><g><path d="M 7.78125 -2.390625 C 13.8125 -4.546875 16.796875 -7.875 15.5 -11.484375 C 13.375 -17.453125 3.78125 -14.28125 2.59375 -17.625 C 2.21875 -18.671875 2.796875 -19.90625 4.25 -20.421875 C 5.90625 -21.015625 7.09375 -20.453125 7.390625 -19.609375 C 7.609375 -19.015625 7.453125 -18.46875 6.796875 -18.25 C 6.140625 -18 5.609375 -18.25 5.4375 -18.765625 L 5.203125 -18.6875 C 5.171875 -18.453125 5.15625 -18.125 5.25 -17.859375 C 5.640625 -16.78125 7 -16.265625 8.453125 -16.796875 C 9.890625 -17.296875 10.671875 -18.421875 10.21875 -19.703125 C 9.59375 -21.4375 6.875 -21.953125 2.859375 -20.515625 C -0.390625 -19.359375 -2.59375 -17.296875 -1.796875 -15.0625 C -0.34375 -11 8.21875 -14.265625 10.0625 -9.140625 C 10.9375 -6.65625 9.921875 -3.796875 6.78125 -2.671875 C 4.453125 -1.84375 2.28125 -2.34375 1.59375 -4.25 C 1.125 -5.59375 1.734375 -7.125 3.21875 -7.65625 C 4.578125 -8.140625 5.984375 -7.5 6.4375 -6.21875 C 6.796875 -5.234375 6.515625 -4.265625 5.65625 -3.953125 C 4.90625 -3.6875 4.296875 -4.03125 4.046875 -4.734375 C 3.828125 -5.375 4 -6.15625 4.6875 -6.328125 L 4.609375 -6.546875 C 4.484375 -6.625 4 -6.640625 3.671875 -6.53125 C 2.765625 -6.203125 2.46875 -5.1875 2.71875 -4.484375 C 3.046875 -3.5625 4.3125 -2.96875 5.734375 -3.484375 C 7.859375 -4.234375 8.671875 -6.4375 7.90625 -8.625 C 7.03125 -11.046875 4.296875 -12.046875 1.59375 -11.078125 C -1.078125 -10.125 -2.5625 -7.625 -1.6875 -5.1875 C -0.515625 -1.890625 3.15625 -0.734375 7.78125 -2.390625 Z M 7.78125 -2.390625 "></path></g></g></g><g fill="#1d1d1b" fill-opacity="1"><g transform="translate(149.67275, 106.186472)"><g><path d="M 0.234375 -0.046875 L 3.078125 -0.625 L 3.015625 -0.9375 C 2.5 -1.421875 2.21875 -3.8125 2.59375 -7.96875 L 2.921875 -10.921875 C 3.421875 -11.078125 4.21875 -10.921875 4.375 -10.5 C 4.28125 -10.265625 4.28125 -9.875 4.328125 -9.59375 C 4.421875 -9.125 4.703125 -8.53125 5.09375 -8.609375 C 5.46875 -8.6875 5.5 -9.34375 5.40625 -9.8125 C 5.359375 -10.09375 5.203125 -10.453125 5.015625 -10.625 C 5.015625 -11.078125 5.6875 -11.53125 6.203125 -11.578125 L 7.640625 -8.984375 C 9.578125 -5.28125 10.265625 -2.984375 9.96875 -2.328125 L 10.03125 -2.015625 L 17.90625 -3.59375 L 17.84375 -3.90625 C 16.953125 -4.328125 15.28125 -6.4375 13.34375 -10.125 L 11.5625 -13.25 C 9.609375 -16.953125 8.953125 -19.25 9.234375 -19.890625 L 9.171875 -20.1875 L 1.84375 -18.71875 L 1.90625 -18.421875 C 2.40625 -17.9375 2.703125 -15.5625 2.328125 -11.390625 L 1.890625 -7.828125 C 1.515625 -3.671875 0.796875 -1.078125 0.171875 -0.359375 Z M 4.515625 -10.875 C 4.3125 -11.578125 3.640625 -12.0625 3.015625 -12.046875 L 3.4375 -16.03125 L 3.734375 -16.09375 L 5.6875 -12.578125 C 5.109375 -12.359375 4.65625 -11.65625 4.734375 -10.921875 Z M 4.515625 -10.875 "></path></g></g></g><g fill="#1d1d1b" fill-opacity="1"><g transform="translate(170.287937, 102.261618)"><g><path d="M 0.484375 -0.03125 L 3.625 -0.21875 L 3.609375 -0.53125 C 3.015625 -1.078125 2.359375 -3.421875 2.125 -7.4375 L 1.6875 -14.859375 L 2 -14.875 L 6.28125 -7.671875 C 8.46875 -3.84375 9.125 -1.4375 8.875 -0.828125 L 8.890625 -0.515625 L 15.625 -0.90625 L 15 -11.59375 C 14.765625 -15.640625 15.28125 -18.078125 15.9375 -18.65625 L 15.921875 -18.96875 L 12.765625 -18.78125 L 12.78125 -18.46875 C 13.390625 -17.921875 14.109375 -15.578125 14.34375 -11.5625 L 14.78125 -4.109375 L 14.46875 -4.09375 L 10.265625 -11.328125 C 8.171875 -15.21875 7.390625 -17.5625 7.671875 -18.171875 L 7.65625 -18.484375 L -0.421875 -18 L -0.40625 -17.6875 C 0.1875 -17.265625 0.953125 -16 1.046875 -14.328125 L 1.453125 -7.390625 C 1.6875 -3.375 1.109375 -0.90625 0.46875 -0.34375 Z M 0.484375 -0.03125 "></path></g></g></g><g fill="#1d1d1b" fill-opacity="1"><g transform="translate(190.447583, 101.4978)"><g></g></g></g><g fill="#1d1d1b" fill-opacity="1"><g transform="translate(199.408452, 101.67244)"><g><path d="M 0.484375 0.078125 L 8.421875 1.234375 L 8.46875 0.921875 C 7.96875 0.265625 7.859375 -2.546875 8.4375 -6.515625 L 8.5625 -7.359375 L 8.875 -7.3125 C 9.1875 -5.578125 10.25 -4.484375 12.40625 -4.15625 C 17.4375 -3.421875 19.875 -6.28125 20.3125 -9.234375 C 20.8125 -12.703125 18.328125 -15.5 14.078125 -16.125 L 3.109375 -17.734375 L 3.0625 -17.421875 C 3.515625 -16.765625 3.71875 -14.328125 3.125 -10.328125 L 2.640625 -6.984375 C 2.0625 -3.03125 1.15625 -0.734375 0.53125 -0.234375 Z M 11.546875 -4.875 C 10.375 -5.046875 9.6875 -5.953125 9.859375 -7.125 C 10 -8.125 10.53125 -8.703125 11.1875 -8.59375 C 11.90625 -8.5 12.078125 -7.859375 12.03125 -7.328125 L 12.34375 -7.28125 C 12.46875 -7.421875 12.5625 -7.796875 12.59375 -8.046875 C 12.765625 -9.234375 12.375 -10.53125 11.015625 -10.734375 C 10.171875 -10.859375 9.421875 -10.125 9.203125 -9.34375 L 8.875 -9.390625 L 9.859375 -16.171875 L 11.03125 -16 C 14.34375 -15.515625 15.15625 -11.625 14.75 -8.890625 C 14.40625 -6.53125 13.125 -4.640625 11.546875 -4.875 Z M 11.546875 -4.875 "></path></g></g></g><g fill="#1d1d1b" fill-opacity="1"><g transform="translate(220.697773, 105.006935)"><g><path d="M 0.21875 0.0625 L 3.015625 0.90625 L 3.109375 0.609375 C 2.875 -0.09375 3.765625 -2.3125 6.03125 -5.8125 L 7.703125 -8.28125 C 8.21875 -8.171875 8.84375 -7.65625 8.796875 -7.21875 C 8.609375 -7.0625 8.40625 -6.703125 8.328125 -6.4375 C 8.1875 -5.96875 8.171875 -5.3125 8.546875 -5.203125 C 8.921875 -5.09375 9.25 -5.65625 9.390625 -6.125 C 9.46875 -6.390625 9.515625 -6.796875 9.421875 -7.03125 C 9.625 -7.421875 10.4375 -7.515625 10.90625 -7.3125 L 10.96875 -4.328125 C 10.953125 -0.15625 10.453125 2.171875 9.890625 2.640625 L 9.796875 2.9375 L 17.5 5.25 L 17.59375 4.953125 C 17 4.140625 16.515625 1.515625 16.53125 -2.65625 L 16.421875 -6.25 C 16.4375 -10.4375 16.953125 -12.78125 17.5 -13.21875 L 17.59375 -13.53125 L 10.4375 -15.671875 L 10.34375 -15.359375 C 10.546875 -14.703125 9.6875 -12.453125 7.421875 -8.953125 L 5.34375 -6.015625 C 3.078125 -2.515625 1.203125 -0.59375 0.3125 -0.234375 Z M 9.078125 -7.46875 C 9.234375 -8.203125 8.875 -8.9375 8.328125 -9.21875 L 10.5625 -12.53125 L 10.875 -12.4375 L 10.921875 -8.4375 C 10.3125 -8.5 9.59375 -8.109375 9.3125 -7.40625 Z M 9.078125 -7.46875 "></path></g></g></g><g fill="#1d1d1b" fill-opacity="1"><g transform="translate(240.730631, 111.179753)"><g><path d="M 7.203125 3.765625 C 13.015625 6.46875 17.5 6.1875 19.125 2.71875 C 21.796875 -3.03125 12.71875 -7.5 14.21875 -10.734375 C 14.6875 -11.734375 15.96875 -12.203125 17.375 -11.546875 C 18.953125 -10.8125 19.40625 -9.59375 19.03125 -8.78125 C 18.765625 -8.203125 18.265625 -7.921875 17.640625 -8.203125 C 17 -8.5 16.8125 -9.03125 17.0625 -9.53125 L 16.828125 -9.640625 C 16.640625 -9.5 16.390625 -9.265625 16.28125 -9.015625 C 15.796875 -7.984375 16.40625 -6.65625 17.8125 -6 C 19.1875 -5.359375 20.53125 -5.625 21.109375 -6.859375 C 21.875 -8.515625 20.3125 -10.796875 16.453125 -12.59375 C 13.3125 -14.046875 10.3125 -14.125 9.296875 -11.984375 C 7.484375 -8.0625 15.875 -4.375 13.578125 0.5625 C 12.46875 2.953125 9.71875 4.265625 6.6875 2.859375 C 4.453125 1.8125 3.265625 -0.0625 4.125 -1.90625 C 4.71875 -3.203125 6.234375 -3.84375 7.65625 -3.171875 C 8.96875 -2.578125 9.53125 -1.15625 8.953125 0.078125 C 8.515625 1.03125 7.625 1.53125 6.796875 1.15625 C 6.078125 0.8125 5.90625 0.140625 6.21875 -0.53125 C 6.5 -1.140625 7.171875 -1.5625 7.78125 -1.234375 L 7.875 -1.4375 C 7.84375 -1.578125 7.515625 -1.921875 7.203125 -2.0625 C 6.328125 -2.46875 5.40625 -1.96875 5.078125 -1.28125 C 4.671875 -0.40625 5.15625 0.921875 6.53125 1.5625 C 8.5625 2.515625 10.703125 1.515625 11.671875 -0.578125 C 12.765625 -2.921875 11.53125 -5.5625 8.921875 -6.78125 C 6.359375 -7.96875 3.53125 -7.234375 2.4375 -4.875 C 0.96875 -1.703125 2.765625 1.6875 7.203125 3.765625 Z M 7.203125 3.765625 "></path></g></g></g><g fill="#1d1d1b" fill-opacity="1"><g transform="translate(260.067868, 120.431039)"><g><path d="M 4 2.609375 L 10.703125 6.984375 L 10.875 6.71875 C 10.734375 5.90625 11.5625 3.640625 13.75 0.28125 L 19.25 -8.140625 L 20.28125 -7.46875 C 22.171875 -6.234375 22.8125 -4.234375 21.015625 -1.3125 L 21.359375 -1.09375 L 24.3125 -5.640625 L 10.125 -14.875 L 7.171875 -10.328125 L 7.515625 -10.109375 C 9.421875 -12.953125 11.53125 -13.171875 13.40625 -11.953125 L 14.40625 -11.296875 L 8.90625 -2.875 C 6.71875 0.484375 5 2.171875 4.171875 2.34375 Z M 4 2.609375 "></path></g></g></g><g fill="#1d1d1b" fill-opacity="1"><g transform="translate(276.877196, 131.444437)"><g><path d="M 11.390625 10.609375 C 13.796875 12.75 17.140625 12.375 19.46875 9.765625 C 21.140625 7.875 21.53125 5.46875 20 4.109375 C 18.78125 3.03125 17.234375 3.21875 16.3125 4.25 C 15.375 5.3125 15.53125 6.921875 16.421875 7.734375 C 16.640625 7.921875 16.875 8.03125 17.09375 8.0625 L 17.265625 7.90625 C 16.8125 7.578125 16.84375 7 17.25 6.546875 C 17.6875 6.046875 18.53125 5.828125 19.25 6.453125 C 20.046875 7.171875 19.953125 8.265625 19.234375 9.0625 C 18.296875 10.125 16.734375 10.109375 15.546875 9.046875 C 13.015625 6.796875 15.21875 3.390625 15.453125 0.546875 L 15.734375 0.46875 C 17.265625 3.15625 21.171875 3.703125 22.890625 1.78125 C 24.5625 -0.09375 23.921875 -2.8125 21.09375 -5.328125 L 12.328125 -13.125 L 12.125 -12.890625 C 12.15625 -12.078125 10.953125 -9.96875 8.28125 -6.96875 L 6.015625 -4.421875 C 3.359375 -1.4375 1.390625 0.03125 0.5625 0.09375 L 0.359375 0.328125 L 6.390625 5.6875 L 6.59375 5.453125 C 6.5625 4.625 7.71875 2.453125 10.375 -0.53125 L 17.125 -8.109375 L 18.734375 -6.671875 C 20.78125 -4.859375 20.5 -2.75 19.125 -1.203125 C 18.078125 -0.015625 16.6875 -0.125 15.78125 -0.625 C 16.09375 -1.3125 15.78125 -1.96875 15.40625 -2.28125 C 14.84375 -2.78125 14.203125 -2.8125 13.8125 -2.375 C 13.359375 -1.875 13.453125 -1.1875 14 -0.703125 C 14.203125 -0.515625 14.546875 -0.375 14.796875 -0.40625 L 14.875 -0.125 C 13.71875 0.6875 11.90625 1.46875 10.671875 2.921875 C 8.65625 5.296875 8.6875 8.21875 11.390625 10.609375 Z M 11.390625 10.609375 "></path></g></g></g><g fill="#1d1d1b" fill-opacity="1"><g transform="translate(294.380227, 147.490839)"><g><path d="M 2.734375 3.265625 L 7.859375 9.375 L 8.09375 9.171875 C 8.1875 8.375 9.703125 6.421875 12.765625 3.859375 L 14.09375 2.75 L 15.9375 2.3125 C 20.109375 1.125 23.078125 0.828125 24.078125 1.1875 L 24.3125 0.984375 L 22.28125 -1.4375 L 22.046875 -1.234375 C 21.8125 -0.609375 20.015625 0.40625 17.421875 1.078125 L 14.875 1.875 L 14.703125 1.671875 L 15.9375 -0.734375 C 17.328125 -3.65625 18.3125 -4.921875 18.828125 -5.078125 L 19.0625 -5.28125 L 13.953125 -11.390625 L 13.71875 -11.1875 C 13.828125 -10.140625 13.03125 -7.375 11.125 -3.390625 L 10.390625 -1.734375 L 9.03125 -0.59375 C 5.96875 1.96875 3.78125 3.125 2.96875 3.0625 Z M 2.734375 3.265625 "></path></g></g></g><g fill="#1d1d1b" fill-opacity="1"><g transform="translate(105.187692, 259.0833)"><g><path d="M 8.90625 1.25 C 9.195312 1.71875 9.332031 2.1875 9.3125 2.65625 C 9.300781 3.132812 9.117188 3.59375 8.765625 4.03125 C 8.253906 4.632812 7.628906 4.90625 6.890625 4.84375 C 6.148438 4.78125 5.328125 4.378906 4.421875 3.640625 L 0.8125 0.671875 L 6.53125 -6.28125 L 9.9375 -3.484375 C 10.78125 -2.785156 11.296875 -2.082031 11.484375 -1.375 C 11.679688 -0.675781 11.550781 -0.0507812 11.09375 0.5 C 10.8125 0.84375 10.484375 1.078125 10.109375 1.203125 C 9.734375 1.335938 9.332031 1.351562 8.90625 1.25 Z M 7.15625 -3.734375 L 5.796875 -2.09375 L 7.390625 -0.78125 C 7.796875 -0.457031 8.15625 -0.28125 8.46875 -0.25 C 8.789062 -0.21875 9.0625 -0.335938 9.28125 -0.609375 C 9.507812 -0.878906 9.578125 -1.164062 9.484375 -1.46875 C 9.398438 -1.78125 9.15625 -2.097656 8.75 -2.421875 Z M 5.296875 2.328125 C 5.722656 2.679688 6.097656 2.875 6.421875 2.90625 C 6.753906 2.945312 7.039062 2.820312 7.28125 2.53125 C 7.75 1.945312 7.554688 1.300781 6.703125 0.59375 L 4.828125 -0.9375 L 3.421875 0.796875 Z M 5.296875 2.328125 "></path></g></g></g><g fill="#1d1d1b" fill-opacity="1"><g transform="translate(116.221009, 267.82662)"><g><path d="M 6.265625 0.28125 L 4.515625 2.953125 L 2.765625 1.8125 L 4.53125 -0.875 L 4.765625 -7.640625 L 6.625 -6.421875 L 6.453125 -1.75 L 10.640625 -3.78125 L 12.359375 -2.65625 Z M 6.265625 0.28125 "></path></g></g></g><g fill="#1d1d1b" fill-opacity="1"><g transform="translate(127.112722, 274.622618)"><g></g></g></g><g fill="#1d1d1b" fill-opacity="1"><g transform="translate(134.003819, 278.293582)"><g><path d="M 12.5 -4.390625 L 5.34375 2.3125 L 3.453125 1.5 L 3.484375 -8.296875 L 5.546875 -7.40625 L 5.5 -0.421875 L 10.609375 -5.203125 Z M 12.5 -4.390625 "></path></g></g></g><g fill="#1d1d1b" fill-opacity="1"><g transform="translate(146.800751, 283.587922)"><g><path d="M 7.265625 0.203125 L 3.25 -1.015625 L 1.921875 0.59375 L -0.109375 -0.03125 L 6.34375 -7.46875 L 8.3125 -6.875 L 9.546875 2.90625 L 7.453125 2.28125 Z M 7.09375 -1.515625 L 6.71875 -5.21875 L 4.359375 -2.34375 Z M 7.09375 -1.515625 "></path></g></g></g><g fill="#1d1d1b" fill-opacity="1"><g transform="translate(160.342051, 287.427986)"><g><path d="M 2.75 -8.640625 L 4.796875 -8.25 L 3.421875 -1.078125 L 7.859375 -0.21875 L 7.53125 1.453125 L 1.046875 0.203125 Z M 2.75 -8.640625 "></path></g></g></g><g fill="#1d1d1b" fill-opacity="1"><g transform="translate(172.13692, 289.5127)"><g><path d="M 8.15625 -0.953125 L 8 0.71875 L 1.0625 0.09375 L 1.875 -8.875 L 8.65625 -8.25 L 8.5 -6.578125 L 3.78125 -7.015625 L 3.609375 -5.078125 L 7.765625 -4.703125 L 7.625 -3.078125 L 3.46875 -3.453125 L 3.28125 -1.390625 Z M 8.15625 -0.953125 "></path></g></g></g><g fill="#1d1d1b" fill-opacity="1"><g transform="translate(184.965704, 290.46994)"><g><path d="M 6.796875 -0.109375 L 5.015625 -2.578125 L 4.921875 -2.578125 L 3.109375 -2.546875 L 3.15625 -0.046875 L 1.0625 -0.015625 L 0.90625 -9.015625 L 4.8125 -9.078125 C 5.601562 -9.097656 6.296875 -8.976562 6.890625 -8.71875 C 7.484375 -8.46875 7.941406 -8.097656 8.265625 -7.609375 C 8.597656 -7.128906 8.769531 -6.554688 8.78125 -5.890625 C 8.789062 -5.222656 8.632812 -4.644531 8.3125 -4.15625 C 8 -3.664062 7.550781 -3.285156 6.96875 -3.015625 L 9.046875 -0.15625 Z M 6.671875 -5.84375 C 6.660156 -6.351562 6.488281 -6.738281 6.15625 -7 C 5.820312 -7.257812 5.34375 -7.382812 4.71875 -7.375 L 3.03125 -7.34375 L 3.09375 -4.21875 L 4.78125 -4.25 C 5.40625 -4.257812 5.878906 -4.398438 6.203125 -4.671875 C 6.523438 -4.953125 6.679688 -5.34375 6.671875 -5.84375 Z M 6.671875 -5.84375 "></path></g></g></g><g fill="#1d1d1b" fill-opacity="1"><g transform="translate(198.571251, 289.939216)"><g><path d="M 0.109375 -9.0625 L 2.1875 -9.28125 L 3.140625 -0.328125 L 1.0625 -0.109375 Z M 0.109375 -9.0625 "></path></g></g></g><g fill="#1d1d1b" fill-opacity="1"><g transform="translate(206.894378, 288.970984)"><g><path d="M 7.578125 -3.171875 L 7.890625 -1.53125 L 1.046875 -0.203125 L -0.671875 -9.03125 L 6.015625 -10.328125 L 6.34375 -8.6875 L 1.6875 -7.78125 L 2.0625 -5.875 L 6.15625 -6.671875 L 6.453125 -5.078125 L 2.359375 -4.28125 L 2.765625 -2.234375 Z M 7.578125 -3.171875 "></path></g></g></g><g fill="#1d1d1b" fill-opacity="1"><g transform="translate(219.379047, 286.272511)"><g></g></g></g><g fill="#1d1d1b" fill-opacity="1"><g transform="translate(226.875876, 284.103518)"><g><path d="M 7.53125 -2.671875 L 6.171875 -3.234375 C 5.609375 -2.304688 4.785156 -1.640625 3.703125 -1.234375 C 3.097656 -1.003906 2.507812 -0.890625 1.9375 -0.890625 C 1.363281 -0.898438 0.875 -1.03125 0.46875 -1.28125 C 0.0703125 -1.539062 -0.207031 -1.890625 -0.375 -2.328125 C -0.570312 -2.859375 -0.597656 -3.375 -0.453125 -3.875 C -0.316406 -4.382812 0.00390625 -4.9375 0.515625 -5.53125 C 0.0976562 -5.726562 -0.226562 -5.945312 -0.46875 -6.1875 C -0.71875 -6.425781 -0.898438 -6.695312 -1.015625 -7 C -1.171875 -7.40625 -1.195312 -7.804688 -1.09375 -8.203125 C -0.988281 -8.597656 -0.769531 -8.957031 -0.4375 -9.28125 C -0.113281 -9.601562 0.304688 -9.863281 0.828125 -10.0625 C 1.546875 -10.332031 2.191406 -10.375 2.765625 -10.1875 C 3.347656 -10.007812 3.753906 -9.625 3.984375 -9.03125 C 4.140625 -8.601562 4.148438 -8.164062 4.015625 -7.71875 C 3.878906 -7.28125 3.582031 -6.796875 3.125 -6.265625 L 5.21875 -5.421875 C 5.25 -5.878906 5.21875 -6.367188 5.125 -6.890625 L 6.828125 -7 C 6.953125 -6.1875 6.9375 -5.445312 6.78125 -4.78125 L 8.109375 -4.25 Z M 1.3125 -8.78125 C 1.03125 -8.664062 0.832031 -8.507812 0.71875 -8.3125 C 0.601562 -8.113281 0.585938 -7.898438 0.671875 -7.671875 C 0.742188 -7.503906 0.847656 -7.363281 0.984375 -7.25 C 1.128906 -7.132812 1.375 -6.992188 1.71875 -6.828125 C 2.050781 -7.210938 2.265625 -7.515625 2.359375 -7.734375 C 2.460938 -7.960938 2.476562 -8.179688 2.40625 -8.390625 C 2.320312 -8.597656 2.179688 -8.738281 1.984375 -8.8125 C 1.796875 -8.882812 1.570312 -8.875 1.3125 -8.78125 Z M 3.265625 -2.75 C 3.859375 -2.976562 4.320312 -3.335938 4.65625 -3.828125 L 1.90625 -4.96875 C 1.613281 -4.601562 1.425781 -4.285156 1.34375 -4.015625 C 1.269531 -3.753906 1.285156 -3.492188 1.390625 -3.234375 C 1.503906 -2.921875 1.734375 -2.71875 2.078125 -2.625 C 2.421875 -2.539062 2.816406 -2.582031 3.265625 -2.75 Z M 3.265625 -2.75 "></path></g></g></g><g fill="#1d1d1b" fill-opacity="1"><g transform="translate(239.412763, 279.053336)"><g></g></g></g><g fill="#1d1d1b" fill-opacity="1"><g transform="translate(246.392207, 275.618944)"><g><path d="M -3.59375 -8.3125 L -1.78125 -9.359375 L 1.875 -3.046875 L 5.78125 -5.328125 L 6.640625 -3.859375 L 0.921875 -0.53125 Z M -3.59375 -8.3125 "></path></g></g></g><g fill="#1d1d1b" fill-opacity="1"><g transform="translate(256.565192, 269.427928)"><g><path d="M -4.265625 -8 L -2.546875 -9.1875 L 2.59375 -1.796875 L 0.875 -0.609375 Z M -4.265625 -8 "></path></g></g></g><g fill="#1d1d1b" fill-opacity="1"><g transform="translate(263.393083, 264.570143)"><g><path d="M 5.328125 -6.65625 L 6.421875 -5.34375 L 0.375 -0.3125 L -0.484375 -1.34375 L -0.5 -9.078125 L -4.21875 -5.984375 L -5.296875 -7.296875 L 0.53125 -12.140625 L 1.390625 -11.109375 L 1.390625 -3.375 Z M 5.328125 -6.65625 "></path></g></g></g></svg>
