<svg xmlns="http://www.w3.org/2000/svg" xmlns:xlink="http://www.w3.org/1999/xlink" zoomAndPan="magnify" preserveAspectRatio="xMidYMid meet" version="1.0" viewBox="16.17 112.5 340.04 150">
  <defs>
    <g></g>
    <clipPath id="7ce36648a3">
      <path d="M 30 112.5 L 137 112.5 L 137 262.5 L 30 262.5 Z M 30 112.5 " clip-rule="nonzero"></path>
    </clipPath>
    <clipPath id="7a8bdbc663">
      <path d="M 64 112.5 L 115 112.5 L 115 175 L 64 175 Z M 64 112.5 " clip-rule="nonzero"></path>
    </clipPath>
    <clipPath id="08ea51dcca">
      <path d="M 16.167969 112.5 L 74 112.5 L 74 262.5 L 16.167969 262.5 Z M 16.167969 112.5 " clip-rule="nonzero"></path>
    </clipPath>
    <clipPath id="10cb6bea9c">
      <path d="M 16.167969 112.5 L 62 112.5 L 62 153 L 16.167969 153 Z M 16.167969 112.5 " clip-rule="nonzero"></path>
    </clipPath>
    <clipPath id="41fdca7dae">
      <path d="M 100 112.5 L 164.667969 112.5 L 164.667969 262.5 L 100 262.5 Z M 100 112.5 " clip-rule="nonzero"></path>
    </clipPath>
    <clipPath id="130e0882cb">
      <path d="M 119 115 L 164.667969 115 L 164.667969 169 L 119 169 Z M 119 115 " clip-rule="nonzero"></path>
    </clipPath>
    <clipPath id="af40cf540a">
      <path d="M 104 199 L 164.667969 199 L 164.667969 245 L 104 245 Z M 104 199 " clip-rule="nonzero"></path>
    </clipPath>
  </defs>
  <path stroke-linecap="butt" transform="matrix(1.256239, 0, 0, 1.258222, -829.191493, -93.913851)" fill-opacity="1" fill="#000000" fill-rule="nonzero" stroke-linejoin="miter" d="M 736.116633 207.289568 C 735.261526 206.631397 734.334901 206.075677 733.352305 205.637931 C 733.02581 205.498225 732.745956 205.973226 733.069342 206.122246 C 736.4338 207.593817 739.076858 210.509018 740.286446 213.97373 C 740.628489 214.967196 740.85859 215.985498 740.951875 217.037951 C 740.97986 217.388769 741.536457 217.388769 741.508472 217.037951 C 741.147772 213.203794 739.139048 209.630422 736.116633 207.289568 Z M 736.116633 207.289568 " stroke="#111111" stroke-width="3" stroke-opacity="1" stroke-miterlimit="4"></path>
  <path fill="#000000" d="M 109.867188 171.121094 C 105.726562 166.257812 99.648438 163.972656 93.507812 162.8125 C 93.574219 161.574219 92.703125 160.621094 91.625 160.070312 C 91.441406 159.976562 91.242188 159.894531 91.046875 159.816406 C 96.640625 153.324219 102.226562 146.839844 107.824219 140.347656 C 109.121094 138.855469 110.503906 137.394531 111.648438 135.765625 C 112.582031 134.433594 113.292969 132.882812 113.1875 131.214844 C 113.09375 129.800781 112.46875 128.375 111.195312 127.664062 C 109.714844 126.835938 107.589844 127.230469 106.472656 125.804688 C 105.867188 125.039062 106.027344 124.113281 106.984375 123.765625 C 107.789062 123.46875 108.664062 123.496094 109.46875 123.191406 C 111.089844 122.585938 112.375 121.261719 112.910156 119.617188 C 113.003906 119.335938 112.722656 119.148438 112.476562 119.183594 C 109.996094 119.617188 107.777344 117.9375 105.757812 116.765625 C 104.734375 116.171875 103.664062 115.609375 102.496094 115.332031 C 101.378906 115.0625 100.222656 115.050781 99.089844 115.246094 C 96.820312 115.660156 94.734375 117 93.480469 118.964844 C 92.785156 120.074219 92.234375 121.535156 90.878906 121.984375 C 90.320312 122.171875 89.691406 122.136719 89.261719 121.695312 C 88.914062 121.332031 88.828125 120.804688 88.804688 120.328125 C 88.761719 119.253906 88.980469 118.132812 88.617188 117.09375 C 88.269531 116.09375 87.40625 115.449219 86.414062 115.132812 C 84.246094 114.441406 81.671875 115.039062 79.644531 115.890625 C 77.472656 116.800781 75.527344 118.242188 74.035156 120.058594 C 73.289062 120.984375 72.644531 121.984375 72.15625 123.070312 C 71.65625 124.207031 71.351562 125.398438 70.957031 126.566406 C 70.558594 127.734375 70.023438 128.902344 69.007812 129.664062 C 67.992188 130.417969 66.710938 130.65625 65.460938 130.640625 C 62.621094 130.617188 59.949219 129.300781 57.089844 129.390625 C 56.378906 129.417969 55.691406 129.53125 55.015625 129.765625 C 54.785156 129.847656 54.714844 130.054688 54.808594 130.277344 C 56.765625 134.902344 59.238281 139.320312 62.164062 143.40625 C 65.089844 147.503906 68.449219 151.277344 72.1875 154.648438 C 74.023438 156.3125 75.957031 157.851562 77.949219 159.300781 C 77.625 159.441406 77.320312 159.628906 77.078125 159.910156 C 76.703125 160.339844 76.527344 160.886719 76.644531 161.4375 C 71.152344 161.753906 65.707031 162.6875 60.894531 165.503906 C 57.953125 167.21875 55.351562 169.613281 53.6875 172.613281 C 51.878906 175.871094 51.300781 179.632812 51.503906 183.324219 C 51.726562 187.1875 52.742188 190.972656 53.988281 194.628906 C 55.308594 198.492188 56.859375 202.277344 58.445312 206.035156 C 61.671875 213.722656 65.273438 221.253906 69.230469 228.601562 C 71.1875 232.242188 73.238281 235.839844 75.375 239.386719 C 76.457031 241.1875 77.554688 242.976562 78.675781 244.742188 C 78.722656 244.808594 78.769531 244.894531 78.8125 244.960938 C 78.617188 245.113281 78.652344 245.488281 78.933594 245.566406 C 78.933594 245.582031 78.933594 245.582031 78.933594 245.589844 C 81.136719 250.613281 83.339844 254.933594 85.542969 259.941406 C 85.667969 260.238281 86.089844 260.121094 86.183594 259.863281 C 87.757812 255.214844 89.34375 251.257812 90.921875 246.609375 C 92.863281 243.75 94.785156 240.886719 96.667969 237.976562 C 101.25 230.890625 105.515625 223.566406 108.800781 215.777344 C 111.988281 208.222656 114.257812 200.230469 114.875 192.023438 C 115.476562 184.816406 114.75 176.839844 109.867188 171.121094 Z M 68.019531 149.488281 C 64.648438 145.796875 61.671875 141.757812 59.179688 137.429688 C 57.851562 135.136719 56.671875 132.753906 55.621094 130.328125 C 58.386719 129.570312 61.195312 130.84375 63.933594 131.214844 C 66.289062 131.53125 68.890625 131.261719 70.433594 129.238281 C 71.164062 128.273438 71.5625 127.09375 71.925781 125.9375 C 72.296875 124.742188 72.660156 123.578125 73.265625 122.476562 C 74.433594 120.378906 76.179688 118.613281 78.246094 117.386719 C 80.246094 116.207031 82.730469 115.390625 85.074219 115.585938 C 86.136719 115.679688 87.363281 116.054688 87.871094 117.070312 C 88.378906 118.0625 88.082031 119.277344 88.140625 120.339844 C 88.191406 121.3125 88.523438 122.289062 89.507812 122.664062 C 90.589844 123.085938 91.828125 122.511719 92.5625 121.707031 C 93.445312 120.726562 93.902344 119.429688 94.777344 118.4375 C 95.558594 117.550781 96.5625 116.847656 97.65625 116.40625 C 98.730469 115.976562 99.886719 115.761719 101.039062 115.824219 C 102.273438 115.882812 103.417969 116.300781 104.503906 116.859375 C 106.597656 117.945312 108.582031 119.605469 110.996094 119.910156 C 111.34375 119.957031 111.707031 119.957031 112.054688 119.921875 C 111.460938 121.21875 110.316406 122.230469 108.945312 122.628906 C 107.71875 122.976562 105.785156 122.867188 105.433594 124.476562 C 105.105469 126.015625 106.707031 127.152344 107.988281 127.476562 C 108.851562 127.695312 109.757812 127.753906 110.578125 128.121094 C 111.273438 128.433594 111.816406 128.984375 112.128906 129.683594 C 113.738281 133.1875 110.238281 136.480469 108.1875 138.863281 C 105.386719 142.097656 102.597656 145.347656 99.800781 148.582031 C 96.667969 152.210938 93.539062 155.84375 90.40625 159.488281 C 90.394531 159.5 90.394531 159.519531 90.378906 159.535156 C 89.472656 159.207031 88.515625 158.984375 87.558594 158.859375 C 86.148438 158.65625 84.726562 158.636719 83.3125 158.679688 C 81.882812 158.738281 80.421875 158.808594 79 159.019531 C 78.957031 159.03125 78.90625 159.042969 78.863281 159.042969 C 74.921875 156.261719 71.28125 153.054688 68.019531 149.488281 Z M 78.398438 159.875 C 79.09375 159.628906 79.933594 159.613281 80.667969 159.554688 C 82.160156 159.425781 83.667969 159.335938 85.167969 159.367188 C 86.660156 159.40625 88.167969 159.578125 89.601562 160.011719 C 90.800781 160.375 92.921875 161.109375 92.828125 162.6875 C 91.664062 162.488281 90.496094 162.3125 89.34375 162.175781 C 88.566406 162.082031 87.769531 162.023438 86.988281 161.9375 C 86.261719 161.855469 85.554688 161.625 84.832031 161.53125 C 83.347656 161.335938 81.855469 161.308594 80.378906 161.308594 C 80.085938 161.308594 77.40625 161.472656 77.382812 161.386719 C 77.160156 160.679688 77.765625 160.097656 78.398438 159.875 Z M 110.316406 210.074219 C 107.625 217.796875 103.835938 225.070312 99.617188 232.054688 C 97.480469 235.585938 95.234375 239.03125 92.945312 242.449219 C 92.269531 243.46875 91.574219 244.480469 90.878906 245.496094 C 90.871094 245.496094 90.871094 245.488281 90.859375 245.488281 C 87.125 245.300781 83.398438 245.113281 79.667969 244.925781 C 79.328125 244.386719 78.992188 243.867188 78.652344 243.324219 C 76.492188 239.894531 74.417969 236.398438 72.425781 232.875 C 68.460938 225.859375 64.824219 218.652344 61.519531 211.304688 C 59.867188 207.605469 58.292969 203.863281 56.800781 200.09375 C 55.390625 196.503906 54.027344 192.886719 53.128906 189.128906 C 52.265625 185.507812 51.835938 181.6875 52.519531 178.011719 C 53.175781 174.539062 54.867188 171.410156 57.410156 168.980469 C 62.917969 163.714844 70.730469 162.335938 78.078125 162.058594 C 79.457031 162 80.832031 162 82.195312 162.089844 C 83.492188 162.183594 84.761719 162.441406 86.058594 162.558594 C 88.515625 162.78125 90.964844 163.058594 93.386719 163.507812 C 97.703125 164.308594 101.960938 165.699219 105.585938 168.234375 C 108.523438 170.28125 110.824219 173.046875 112.242188 176.324219 C 113.679688 179.632812 114.238281 183.289062 114.34375 186.871094 C 114.597656 194.746094 112.910156 202.664062 110.316406 210.074219 Z M 110.316406 210.074219 " fill-opacity="1" fill-rule="nonzero"></path>
  <g clip-path="url(#7ce36648a3)">
    <path stroke-linecap="butt" transform="matrix(1.256239, 0, 0, 1.258222, -146.533711, -51.909371)" fill="none" stroke-linejoin="miter" d="M 204.102017 177.258505 C 200.805968 173.393302 195.967617 171.577122 191.079514 170.655062 C 191.132376 169.67091 190.438962 168.913392 189.580745 168.475646 C 189.434599 168.401136 189.276016 168.33594 189.120542 168.273849 C 193.573318 163.114036 198.019874 157.960432 202.475759 152.800619 C 203.508107 151.61467 204.608863 150.453557 205.51994 149.158946 C 206.263106 148.100285 206.829031 146.867766 206.745075 145.54211 C 206.670448 144.418252 206.172931 143.28508 205.159241 142.720047 C 203.980748 142.061875 202.28919 142.375438 201.399879 141.242266 C 200.91791 140.633768 201.045398 139.897983 201.807221 139.621675 C 202.447774 139.385727 203.144297 139.407459 203.78485 139.165302 C 205.075285 138.684092 206.098304 137.631639 206.524302 136.324611 C 206.59893 136.101081 206.375047 135.952061 206.17915 135.980002 C 204.20463 136.324611 202.438445 134.989641 200.830844 134.058267 C 200.01616 133.586371 199.164163 133.139311 198.234428 132.918886 C 197.345117 132.70467 196.424711 132.695356 195.522962 132.850585 C 193.716354 133.179671 192.055891 134.244542 191.057748 135.806146 C 190.504261 136.687847 190.065824 137.84896 188.986834 138.205986 C 188.542179 138.355006 188.041552 138.327065 187.69951 137.976247 C 187.422766 137.687522 187.354357 137.268403 187.3357 136.889644 C 187.301496 136.035885 187.475627 135.14487 187.186445 134.319052 C 186.909702 133.524279 186.222507 133.012023 185.432699 132.760552 C 183.706937 132.211041 181.65779 132.686042 180.043969 133.362841 C 178.315098 134.086208 176.766577 135.231798 175.578756 136.675428 C 174.984845 137.411214 174.471781 138.205986 174.083096 139.06906 C 173.685083 139.972493 173.442543 140.91939 173.128486 141.847659 C 172.811319 142.775929 172.38532 143.704199 171.576855 144.309592 C 170.76839 144.908776 169.748481 145.098155 168.753447 145.085737 C 166.492855 145.067109 164.365971 144.020866 162.089831 144.092271 C 161.523906 144.114003 160.976637 144.204036 160.438697 144.390311 C 160.255238 144.455507 160.199267 144.62005 160.273895 144.797011 C 161.831744 148.472834 163.800045 151.984115 166.129046 155.231506 C 168.458046 158.488211 171.132199 161.487236 174.107972 164.166489 C 175.569428 165.48904 177.10862 166.712245 178.694455 167.864044 C 178.436368 167.975809 178.193829 168.124829 178.001041 168.348359 C 177.702531 168.689862 177.562604 169.124504 177.655889 169.56225 C 173.28396 169.813721 168.949344 170.555715 165.118465 172.794118 C 162.777026 174.157029 160.706112 176.060137 159.381474 178.444454 C 157.941785 181.033675 157.481581 184.023386 157.643274 186.957214 C 157.820515 190.027644 158.62898 193.035983 159.620904 195.94187 C 160.671908 199.0123 161.906372 202.020639 163.168821 205.007245 C 165.737251 211.11706 168.604192 217.102691 171.754095 222.942407 C 173.311945 225.835876 174.944422 228.695195 176.645308 231.514154 C 177.506634 232.945365 178.380398 234.367263 179.272818 235.770534 C 179.310132 235.823311 179.347446 235.891612 179.38165 235.94439 C 179.226176 236.065469 179.254161 236.363508 179.478044 236.4256 C 179.478044 236.438018 179.478044 236.438018 179.478044 236.444228 C 181.231791 240.436718 182.985538 243.870384 184.739284 247.850456 C 184.838788 248.086404 185.174612 247.993267 185.249239 247.788365 C 186.50236 244.093914 187.764809 240.948974 189.021039 237.254523 C 190.56645 234.98197 192.096315 232.706313 193.595084 230.3934 C 197.242504 224.761691 200.638056 218.940603 203.253129 212.750069 C 205.790465 206.74581 207.597073 200.393839 208.088371 193.871115 C 208.567231 188.143164 207.988868 181.803611 204.102017 177.258505 Z M 170.790157 160.065338 C 168.106675 157.131509 165.737251 153.921373 163.753403 150.481498 C 162.69618 148.659109 161.757117 146.765315 160.920667 144.83737 C 163.122178 144.235082 165.357895 145.247175 167.53764 145.54211 C 169.412657 145.793581 171.483571 145.579365 172.711815 143.971192 C 173.293288 143.204361 173.610455 142.266778 173.899637 141.347822 C 174.195037 140.39782 174.484219 139.472655 174.966188 138.597164 C 175.895923 136.930004 177.285861 135.526733 178.930776 134.551895 C 180.522829 133.614312 182.500459 132.965455 184.366147 133.120684 C 185.211925 133.195194 186.188302 133.493233 186.592535 134.300424 C 186.996767 135.088988 186.760447 136.054512 186.807089 136.898958 C 186.847512 137.671999 187.111818 138.448144 187.895407 138.746183 C 188.756733 139.081478 189.742438 138.625105 190.32702 137.985561 C 191.029763 137.206312 191.393572 136.175591 192.090096 135.387027 C 192.711992 134.682288 193.511128 134.123463 194.381782 133.772645 C 195.236889 133.431142 196.157296 133.26039 197.074592 133.310063 C 198.057188 133.356632 198.968266 133.688822 199.832701 134.132777 C 201.499382 134.99585 203.078998 136.315297 205.000657 136.557454 C 205.277401 136.594709 205.566583 136.594709 205.843326 136.566768 C 205.370685 137.597489 204.459608 138.401575 203.36818 138.718242 C 202.391803 138.99455 200.852611 138.907622 200.572757 140.186709 C 200.311561 141.409914 201.586448 142.313346 202.606357 142.571027 C 203.293553 142.744883 204.014952 142.791452 204.667943 143.083282 C 205.22143 143.331649 205.653648 143.769395 205.902406 144.325115 C 207.183512 147.109923 204.397418 149.727085 202.764941 151.620879 C 200.535444 154.191472 198.315275 156.774482 196.088887 159.345075 C 193.595084 162.22923 191.10439 165.11649 188.610587 168.013064 C 188.601259 168.022378 188.601259 168.037901 188.588821 168.050319 C 187.867422 167.789534 187.105599 167.612573 186.343776 167.513226 C 185.221254 167.351788 184.089403 167.336265 182.963771 167.370416 C 181.825702 167.416984 180.662756 167.472867 179.530905 167.640514 C 179.496701 167.649828 179.456278 167.659142 179.422073 167.659142 C 176.284608 165.44868 173.386572 162.89982 170.790157 160.065338 Z M 179.052045 168.320417 C 179.605533 168.124829 180.274071 168.112411 180.858653 168.065842 C 182.046475 167.963391 183.246734 167.891985 184.440774 167.916822 C 185.628596 167.947868 186.828855 168.084469 187.970034 168.429078 C 188.924645 168.717804 190.613092 169.301465 190.538465 170.555715 C 189.61184 170.397382 188.682105 170.257676 187.764809 170.149015 C 187.146022 170.074505 186.511688 170.027937 185.889792 169.959636 C 185.311429 169.89444 184.748613 169.711269 184.173359 169.63676 C 182.991757 169.481531 181.803935 169.459798 180.628552 169.459798 C 180.395341 169.459798 178.262237 169.590191 178.24358 169.52189 C 178.06634 168.959961 178.54831 168.497378 179.052045 168.320417 Z M 204.459608 208.217382 C 202.317176 214.355137 199.30098 220.135866 195.942741 225.686856 C 194.241856 228.493397 192.453905 231.231637 190.631749 233.948145 C 190.093809 234.75844 189.540322 235.562527 188.986834 236.369718 C 188.980615 236.369718 188.980615 236.363508 188.971287 236.363508 C 185.998624 236.214489 183.03218 236.065469 180.062626 235.916449 C 179.792102 235.488017 179.524686 235.075108 179.254161 234.643571 C 177.534619 231.917749 175.883485 229.13915 174.29765 226.338818 C 171.141528 220.762991 168.246602 215.03504 165.615982 209.195324 C 164.300671 206.255287 163.047551 203.281099 161.85973 200.285178 C 160.737207 197.432069 159.651999 194.557227 158.936818 191.570621 C 158.249623 188.692675 157.90758 185.656395 158.451739 182.734985 C 158.974132 179.975013 160.320537 177.488244 162.344808 175.557195 C 166.729175 171.37222 172.948136 170.276303 178.797068 170.055878 C 179.894714 170.009309 180.989251 170.009309 182.07446 170.080715 C 183.106807 170.155224 184.117388 170.360127 185.149736 170.453264 C 187.105599 170.630225 189.055243 170.850651 190.983121 171.207677 C 194.419096 171.844116 197.80843 172.949347 200.694027 174.96422 C 203.032356 176.59102 204.86384 178.789063 205.992581 181.393806 C 207.13687 184.023386 207.581526 186.929273 207.665482 189.776173 C 207.867598 196.035008 206.524302 202.327992 204.459608 208.217382 Z M 204.459608 208.217382 " stroke="#111111" stroke-width="3" stroke-opacity="1" stroke-miterlimit="4"></path>
  </g>
  <path stroke-linecap="butt" transform="matrix(1.256239, 0, 0, 1.258222, -829.191493, -93.913851)" fill-opacity="1" fill="#000000" fill-rule="nonzero" stroke-linejoin="miter" d="M 721.486529 205.147408 C 718.768843 205.786951 716.402529 207.627968 715.121423 210.102318 C 714.953511 210.418985 715.435481 210.698398 715.606502 210.381731 C 716.819199 208.025354 719.058025 206.277475 721.635784 205.678291 C 721.980936 205.591363 721.8379 205.063584 721.486529 205.147408 Z M 721.486529 205.147408 " stroke="#111111" stroke-width="3" stroke-opacity="1" stroke-miterlimit="4"></path>
  <path stroke-linecap="butt" transform="matrix(1.256239, 0, 0, 1.258222, -829.191493, -93.913851)" fill-opacity="1" fill="#000000" fill-rule="nonzero" stroke-linejoin="miter" d="M 725.460445 205.6845 C 721.607799 209.257872 719.633279 214.641215 720.037511 219.85691 C 720.158781 221.334691 720.466619 222.800053 720.967246 224.194009 C 721.088515 224.526199 721.626455 224.377179 721.508295 224.044989 C 719.760767 219.235994 720.447963 213.712945 723.131444 209.388265 C 723.880829 208.161955 724.801235 207.050516 725.858458 206.075677 C 726.119654 205.83352 725.721641 205.442343 725.460445 205.6845 Z M 725.460445 205.6845 " stroke="#111111" stroke-width="3" stroke-opacity="1" stroke-miterlimit="4"></path>
  <path stroke-linecap="butt" transform="matrix(1.256239, 0, 0, 1.258222, -829.191493, -93.913851)" fill-opacity="1" fill="#000000" fill-rule="nonzero" stroke-linejoin="miter" d="M 729.126522 207.392019 C 729.154507 207.041202 728.610348 207.041202 728.569925 207.392019 C 728.414451 209.285814 728.442436 211.188921 728.672537 213.082716 C 728.709851 213.433533 729.266448 213.433533 729.229134 213.082716 C 729.008361 211.188921 728.967938 209.285814 729.126522 207.392019 Z M 729.126522 207.392019 " stroke="#111111" stroke-width="3" stroke-opacity="1" stroke-miterlimit="4"></path>
  <path stroke-linecap="butt" transform="matrix(1.256239, 0, 0, 1.258222, -829.191493, -93.913851)" fill-opacity="1" fill="#000000" fill-rule="nonzero" stroke-linejoin="miter" d="M 732.263987 206.224697 C 732.077418 205.917344 731.595449 206.196756 731.782018 206.501005 C 732.913868 208.329603 733.526436 210.434508 733.545093 212.592192 C 733.545093 212.943009 734.10169 212.943009 734.10169 212.592192 C 734.073705 210.344476 733.44559 208.134014 732.263987 206.224697 Z M 732.263987 206.224697 " stroke="#111111" stroke-width="3" stroke-opacity="1" stroke-miterlimit="4"></path>
  <path fill="#000000" d="M 92.082031 133.957031 C 88.972656 139.847656 86.941406 146.246094 86.066406 152.832031 C 86.007812 153.273438 86.710938 153.273438 86.765625 152.832031 C 87.625 146.359375 89.648438 140.070312 92.691406 134.308594 C 92.898438 133.910156 92.292969 133.5625 92.082031 133.957031 Z M 92.082031 133.957031 " fill-opacity="1" fill-rule="nonzero"></path>
  <g clip-path="url(#7a8bdbc663)">
    <path stroke-linecap="butt" transform="matrix(1.256239, 0, 0, 1.258222, -829.191493, -93.913851)" fill="none" stroke-linejoin="miter" d="M 733.358524 181.105536 C 730.883378 185.787244 729.266448 190.872547 728.569925 196.106869 C 728.523282 196.457687 729.082989 196.457687 729.126522 196.106869 C 729.810607 190.962579 731.421318 185.964205 733.843603 181.384949 C 734.008405 181.068281 733.526436 180.791974 733.358524 181.105536 Z M 733.358524 181.105536 " stroke="#111111" stroke-width="3" stroke-opacity="1" stroke-miterlimit="4"></path>
  </g>
  <path stroke-linecap="butt" transform="matrix(1.256239, 0, 0, 1.258222, -829.191493, -93.913851)" fill-opacity="1" fill="#000000" fill-rule="nonzero" stroke-linejoin="miter" d="M 725.36716 197.895108 C 722.730321 195.156868 720.8211 191.76977 719.835395 188.106365 C 719.742111 187.761757 719.20728 187.910777 719.297455 188.255385 C 720.308036 192.011928 722.270118 195.485953 724.969147 198.298703 C 725.230343 198.550174 725.615919 198.158997 725.36716 197.895108 Z M 725.36716 197.895108 " stroke="#111111" stroke-width="3" stroke-opacity="1" stroke-miterlimit="4"></path>
  <path stroke-linecap="butt" transform="matrix(1.256239, 0, 0, 1.258222, -829.191493, -93.913851)" fill-opacity="1" fill="#000000" fill-rule="nonzero" stroke-linejoin="miter" d="M 726.834835 196.162752 C 726.181844 194.712913 725.721641 193.182354 725.432459 191.623855 C 725.36716 191.269933 724.838548 191.418953 724.894519 191.76977 C 725.18992 193.387257 725.684327 194.945756 726.349756 196.451478 C 726.499011 196.761936 726.98409 196.485628 726.834835 196.162752 Z M 726.834835 196.162752 " stroke="#111111" stroke-width="3" stroke-opacity="1" stroke-miterlimit="4"></path>
  <path stroke-linecap="butt" transform="matrix(1.256239, 0, 0, 1.258222, -829.191493, -93.913851)" fill-opacity="1" fill="#000000" fill-rule="nonzero" stroke-linejoin="miter" d="M 734.362886 192.403105 C 732.913868 194.091997 731.726047 195.985791 730.833626 198.028605 C 730.6937 198.351481 731.166341 198.630893 731.315596 198.304912 C 732.180031 196.308667 733.339867 194.442814 734.751571 192.791177 C 734.984782 192.524183 734.592988 192.133006 734.362886 192.403105 Z M 734.362886 192.403105 " stroke="#111111" stroke-width="3" stroke-opacity="1" stroke-miterlimit="4"></path>
  <path fill="#000000" d="M 50.0625 228.542969 C 48.554688 222.992188 46.386719 217.660156 44.277344 212.320312 C 43.683594 210.804688 43.089844 209.285156 42.503906 207.765625 C 41.640625 205.457031 40.8125 203.117188 40.101562 200.757812 C 39.742188 199.578125 39.414062 198.386719 39.125 197.183594 C 39.007812 196.695312 38.8125 196.226562 38.703125 195.75 C 38.574219 195.140625 38.496094 194.535156 38.351562 193.925781 C 38.285156 193.625 38.226562 193.320312 38.226562 193.007812 C 38.226562 191.753906 38.449219 190.46875 38.550781 189.222656 C 38.667969 187.933594 38.785156 186.652344 38.902344 185.371094 C 39.132812 182.800781 39.371094 180.238281 39.601562 177.671875 C 40.066406 172.546875 40.53125 167.40625 41 162.277344 C 41.453125 157.222656 41.96875 152.179688 42.34375 147.121094 C 42.714844 142.121094 42.902344 137.097656 42.503906 132.101562 C 42.308594 129.640625 41.96875 127.1875 41.445312 124.765625 C 41.117188 123.25 40.394531 121.230469 38.550781 121.144531 C 36.90625 121.078125 36.007812 122.808594 35.601562 124.148438 C 35.3125 125.140625 35.21875 126.179688 35.089844 127.195312 C 34.921875 128.445312 34.785156 129.699219 34.667969 130.945312 C 33.632812 141.164062 33.617188 151.476562 34.144531 161.726562 C 34.167969 162.160156 34.191406 162.59375 34.214844 163.035156 C 34.496094 168.152344 34.902344 173.257812 35.378906 178.359375 C 35.617188 180.90625 35.871094 183.460938 36.140625 186.007812 C 36.269531 187.28125 36.40625 188.554688 36.546875 189.828125 C 36.675781 190.972656 36.945312 192.160156 36.660156 193.296875 C 36.515625 193.914062 36.175781 194.476562 35.90625 195.0625 C 33.792969 199.671875 31.894531 204.378906 29.738281 208.96875 C 27.203125 214.34375 24.558594 219.664062 22.203125 225.121094 C 20.011719 230.210938 18.121094 235.644531 18.050781 241.269531 C 17.992188 246.082031 19.433594 250.792969 22.390625 254.597656 C 25.085938 258.066406 29.320312 259.160156 33.703125 259.804688 C 37.980469 260.433594 42.308594 260.308594 45.734375 257.625 C 49.652344 254.550781 51.226562 250.183594 51.765625 245.378906 C 52.378906 239.730469 51.539062 234.007812 50.0625 228.542969 Z M 35.125 166.191406 C 34.480469 156.21875 34.269531 146.210938 34.949219 136.234375 C 35.109375 133.78125 35.335938 131.34375 35.617188 128.910156 C 35.753906 127.710938 35.871094 126.484375 36.082031 125.285156 C 36.21875 124.464844 36.472656 123.648438 36.90625 122.933594 C 37.292969 122.316406 37.898438 121.765625 38.683594 121.859375 C 39.566406 121.964844 40.089844 122.792969 40.394531 123.554688 C 40.769531 124.488281 40.929688 125.515625 41.105469 126.507812 C 41.328125 127.699219 41.503906 128.902344 41.640625 130.113281 C 42.75 139.882812 41.464844 149.769531 40.582031 159.511719 C 39.671875 169.589844 38.75 179.667969 37.839844 189.75 C 37.761719 190.71875 37.667969 191.675781 37.582031 192.644531 C 36.617188 183.835938 35.695312 175.035156 35.125 166.191406 Z M 24.253906 255.683594 C 20.96875 252.578125 19.484375 248.910156 18.925781 244.4375 C 18.238281 238.980469 19.652344 233.539062 21.585938 228.484375 C 23.652344 223.125 26.273438 217.960938 28.734375 212.765625 C 30.636719 208.734375 32.535156 204.703125 34.421875 200.6875 C 31.804688 207.195312 29.609375 213.886719 27.90625 220.691406 C 26.660156 225.691406 25.527344 230.78125 25.085938 235.925781 C 24.679688 240.664062 24.992188 245.546875 26.832031 249.984375 C 28.382812 253.722656 31.058594 257.363281 34.761719 259.175781 C 34.960938 259.28125 35.167969 259.363281 35.390625 259.441406 C 31.472656 259.175781 27.019531 258.296875 24.253906 255.683594 Z M 34.71875 258.371094 C 33.804688 257.863281 32.957031 257.234375 32.183594 256.546875 C 30.703125 255.214844 29.480469 253.628906 28.515625 251.878906 C 23.746094 243.257812 25.820312 232.816406 27.894531 223.71875 C 29.957031 214.691406 32.871094 205.851562 36.558594 197.363281 C 34.660156 204.8125 33.445312 212.433594 32.929688 220.125 C 32.382812 228.484375 32.660156 236.902344 33.769531 245.207031 C 34.386719 249.867188 35.277344 254.492188 36.421875 259.042969 C 35.820312 258.917969 35.253906 258.660156 34.71875 258.371094 Z M 37.226562 245.511719 C 37.167969 249.808594 37.09375 254.117188 37 258.414062 C 35.042969 250.460938 33.863281 242.332031 33.492188 234.148438 C 33.117188 225.808594 33.558594 217.425781 34.84375 209.175781 C 35.40625 205.605469 36.117188 202.066406 36.980469 198.550781 C 37.140625 205.851562 37.257812 213.164062 37.292969 220.472656 C 37.351562 228.824219 37.316406 237.171875 37.226562 245.511719 Z M 37.675781 259.128906 C 37.851562 250.941406 37.972656 242.757812 38.003906 234.566406 C 38.039062 226.214844 38.003906 217.882812 37.878906 209.53125 C 37.839844 206.722656 37.785156 203.921875 37.726562 201.132812 C 37.675781 199.054688 37.421875 196.859375 37.957031 194.824219 C 38.15625 196.132812 38.132812 197.488281 38.292969 198.804688 C 38.378906 199.507812 38.480469 200.199219 38.589844 200.898438 C 38.691406 201.554688 38.972656 202.308594 38.972656 202.980469 C 39.496094 205.59375 40.183594 208.164062 40.917969 210.734375 C 41.652344 213.289062 42.4375 215.835938 43.167969 218.40625 C 43.261719 218.730469 43.355469 219.070312 43.449219 219.398438 C 44.707031 223.941406 45.726562 228.550781 45.929688 233.269531 C 46.132812 238.046875 45.582031 242.847656 44.324219 247.449219 C 43.707031 249.714844 42.914062 251.933594 41.945312 254.070312 C 41.488281 255.078125 41.023438 256.105469 40.441406 257.039062 C 39.90625 257.886719 39.191406 258.730469 38.191406 259.042969 C 38.027344 259.070312 37.851562 259.101562 37.675781 259.128906 Z M 47.785156 254.898438 C 45.570312 258.039062 42.445312 259.339844 38.796875 259.527344 C 39.449219 259.230469 39.996094 258.753906 40.453125 258.191406 C 41.105469 257.386719 41.574219 256.453125 42.015625 255.519531 C 42.539062 254.421875 43.03125 253.296875 43.472656 252.167969 C 45.234375 247.660156 46.269531 242.875 46.574219 238.046875 C 46.878906 233.214844 46.34375 228.40625 45.269531 223.6875 C 43.4375 215.660156 40.253906 207.871094 39.097656 199.707031 C 39.90625 202.582031 40.886719 205.40625 41.945312 208.199219 C 43.902344 213.382812 46.097656 218.484375 47.871094 223.742188 C 49.652344 229.035156 51.039062 234.507812 51.238281 240.117188 C 51.425781 245.160156 50.773438 250.675781 47.785156 254.898438 Z M 47.785156 254.898438 " fill-opacity="1" fill-rule="nonzero"></path>
  <g clip-path="url(#08ea51dcca)">
    <path stroke-linecap="butt" transform="matrix(1.256239, 0, 0, 1.258222, -829.191493, -93.913851)" fill="none" stroke-linejoin="miter" d="M 699.909846 256.279849 C 698.709587 251.86824 696.983825 247.630487 695.304706 243.386526 C 694.832065 242.181949 694.359424 240.974267 693.893002 239.766585 C 693.205807 237.931778 692.546597 236.072134 691.980672 234.196968 C 691.6946 233.259384 691.433403 232.312487 691.203302 231.356276 C 691.110017 230.968204 690.954543 230.595654 690.867478 230.216895 C 690.764865 229.732581 690.702675 229.251371 690.587625 228.767056 C 690.534763 228.528004 690.488121 228.285846 690.488121 228.03748 C 690.488121 227.04091 690.665362 226.019503 690.746208 225.029141 C 690.839493 224.00463 690.932777 222.986327 691.026061 221.968025 C 691.209521 219.925211 691.399199 217.888606 691.582658 215.848897 C 691.952686 211.775687 692.322715 207.690059 692.695852 203.613745 C 693.056552 199.596418 693.467003 195.588404 693.765513 191.567973 C 694.060914 187.59411 694.210169 183.601619 693.893002 179.630861 C 693.737528 177.674975 693.467003 175.725298 693.050333 173.800458 C 692.789137 172.595881 692.213883 170.990813 690.746208 170.922512 C 689.437117 170.869734 688.721937 172.245064 688.398551 173.309935 C 688.168449 174.098498 688.093822 174.924317 687.991209 175.731507 C 687.857501 176.724973 687.748669 177.721544 687.655385 178.711905 C 686.831373 186.833487 686.818935 195.02958 687.238715 203.175999 C 687.257371 203.520608 687.276028 203.865216 687.294685 204.216034 C 687.518568 208.283034 687.841954 212.340721 688.22131 216.395303 C 688.410989 218.419489 688.613105 220.449885 688.827659 222.474072 C 688.930272 223.486165 689.039104 224.498258 689.151045 225.510351 C 689.253658 226.419993 689.468212 227.363786 689.24122 228.267219 C 689.126169 228.757743 688.855644 229.204802 688.64109 229.670489 C 686.958861 233.333894 685.447654 237.074914 683.731221 240.722796 C 681.713168 244.994699 679.60805 249.223137 677.733034 253.560236 C 675.988615 257.605505 674.483627 261.923976 674.427656 266.394572 C 674.381014 270.219415 675.528412 273.963539 677.882289 276.987401 C 680.02783 279.744268 683.398507 280.613551 686.887343 281.125807 C 690.292224 281.625644 693.737528 281.526297 696.464542 279.393451 C 699.583351 276.950146 700.836471 273.479225 701.265579 269.660591 C 701.753768 265.171367 701.08523 260.623157 699.909846 256.279849 Z M 688.019194 206.724535 C 687.50613 198.798541 687.338218 190.844605 687.879267 182.915507 C 688.006756 180.96583 688.187106 179.028572 688.410989 177.094418 C 688.51982 176.141312 688.613105 175.166474 688.781017 174.213368 C 688.889848 173.561406 689.091965 172.912548 689.437117 172.34441 C 689.744956 171.853886 690.226925 171.416141 690.85193 171.49065 C 691.554673 171.574474 691.971343 172.232645 692.213883 172.838038 C 692.512393 173.580033 692.639882 174.396538 692.779808 175.185101 C 692.957049 176.131998 693.096975 177.088209 693.205807 178.050629 C 694.088899 185.815185 693.06588 193.672878 692.363138 201.415702 C 691.638629 209.42552 690.904792 217.435337 690.180283 225.44826 C 690.118093 226.218196 690.043466 226.978818 689.975057 227.748754 C 689.207015 220.747925 688.473178 213.753305 688.019194 206.724535 Z M 679.365511 277.850474 C 676.750438 275.382333 675.568836 272.467132 675.12418 268.912387 C 674.576911 264.575288 675.702543 260.250607 677.241736 256.23328 C 678.886651 251.973796 680.973112 247.86954 682.932085 243.740448 C 684.446401 240.536521 685.957609 237.332594 687.459488 234.141085 C 685.376136 239.313316 683.628608 244.631463 682.272875 250.039642 C 681.280951 254.013505 680.379201 258.058773 680.02783 262.147506 C 679.704444 265.913362 679.953203 269.794088 681.417768 273.320891 C 682.652231 276.291975 684.782225 279.185444 687.730012 280.625969 C 687.888596 280.709793 688.053398 280.774989 688.230639 280.837081 C 685.11183 280.625969 681.567023 279.927439 679.365511 277.850474 Z M 687.695808 279.986426 C 686.96819 279.58283 686.293433 279.082993 685.677755 278.536586 C 684.499263 277.477924 683.525995 276.217465 682.757954 274.826613 C 678.961278 267.974804 680.612412 259.67626 682.263546 252.445692 C 683.905352 245.271006 686.225024 238.245341 689.160373 231.499087 C 687.649166 237.419522 686.682118 243.476559 686.271666 249.589478 C 685.836339 256.23328 686.057112 262.923651 686.940204 269.523989 C 687.431502 273.227754 688.140464 276.903577 689.051541 280.520413 C 688.572682 280.421067 688.121807 280.216164 687.695808 279.986426 Z M 689.692094 269.766146 C 689.645452 273.181185 689.586372 276.605537 689.511745 280.020576 C 687.953895 273.69965 687.014832 267.239018 686.719431 260.734922 C 686.420921 254.106642 686.772293 247.444213 687.795311 240.887339 C 688.243077 238.049752 688.809002 235.237002 689.496197 232.44288 C 689.623686 238.245341 689.71697 244.057115 689.744956 249.865785 C 689.791598 256.503379 689.763612 263.137867 689.692094 269.766146 Z M 690.049685 280.588714 C 690.189611 274.081513 690.286005 267.577417 690.310881 261.067112 C 690.338866 254.429519 690.310881 247.807449 690.211378 241.169855 C 690.180283 238.937662 690.13675 236.711678 690.090108 234.495007 C 690.049685 232.84337 689.847568 231.098596 690.273567 229.48111 C 690.432151 230.521144 690.413494 231.598434 690.540982 232.644677 C 690.609391 233.203502 690.690237 233.753013 690.777303 234.308732 C 690.858149 234.830302 691.082032 235.429486 691.082032 235.963474 C 691.498702 238.040438 692.045971 240.083252 692.630553 242.126066 C 693.215135 244.156462 693.840141 246.180648 694.421614 248.223462 C 694.496241 248.481143 694.570869 248.751241 694.645496 249.012026 C 695.646749 252.622653 696.458323 256.286058 696.620016 260.036391 C 696.781709 263.833293 696.343272 267.648823 695.34202 271.306018 C 694.850722 273.106675 694.219497 274.870077 693.448346 276.568282 C 693.084537 277.369264 692.714509 278.185769 692.251197 278.927764 C 691.825198 279.601458 691.256163 280.272047 690.460136 280.520413 C 690.329538 280.542145 690.189611 280.566982 690.049685 280.588714 Z M 698.097019 277.226453 C 696.333944 279.722536 693.84636 280.756362 690.942105 280.905381 C 691.461389 280.669433 691.896716 280.290674 692.260525 279.843615 C 692.779808 279.204071 693.152946 278.462077 693.504317 277.720082 C 693.920987 276.847695 694.312782 275.953575 694.664153 275.056352 C 696.066529 271.473666 696.890541 267.670555 697.13308 263.833293 C 697.37562 259.992927 696.949621 256.171188 696.094514 252.420855 C 694.636168 246.040942 692.101941 239.850409 691.181535 233.361835 C 691.825198 235.646807 692.605677 237.891418 693.448346 240.111193 C 695.006196 244.230972 696.753724 248.285554 698.165428 252.464319 C 699.583351 256.671026 700.687216 261.020543 700.8458 265.478721 C 700.995055 269.486734 700.475772 273.870402 698.097019 277.226453 Z M 698.097019 277.226453 " stroke="#111111" stroke-width="3" stroke-opacity="1" stroke-miterlimit="4"></path>
  </g>
  <path fill="#000000" d="M 38.996094 124.453125 C 38.914062 124.429688 38.855469 124.4375 38.796875 124.453125 C 38.683594 124.3125 38.480469 124.265625 38.328125 124.453125 C 37.703125 125.246094 37.328125 126.179688 37.1875 127.1875 C 37.058594 128.109375 37.015625 129.273438 37.480469 130.128906 C 37.921875 130.921875 39.054688 131.296875 39.695312 130.515625 C 39.988281 130.148438 40.089844 129.699219 40.160156 129.25 C 40.269531 128.671875 40.3125 128.0625 40.3125 127.464844 C 40.3125 126.378906 40.242188 124.828125 38.996094 124.453125 Z M 39.601562 128.027344 C 39.582031 128.539062 39.53125 130.546875 38.574219 130.222656 C 37.675781 129.917969 37.769531 128.398438 37.828125 127.652344 C 37.898438 126.746094 38.191406 125.828125 38.738281 125.082031 C 38.761719 125.097656 38.785156 125.117188 38.8125 125.117188 C 39.335938 125.269531 39.488281 125.863281 39.542969 126.332031 C 39.625 126.90625 39.632812 127.464844 39.601562 128.027344 Z M 39.601562 128.027344 " fill-opacity="1" fill-rule="nonzero"></path>
  <g clip-path="url(#10cb6bea9c)">
    <path stroke-linecap="butt" transform="matrix(1.256239, 0, 0, 1.258222, -829.191493, -93.913851)" fill="none" stroke-linejoin="miter" d="M 691.100689 173.552092 C 691.03539 173.533464 690.988748 173.539674 690.942105 173.552092 C 690.85193 173.440327 690.690237 173.403072 690.568968 173.552092 C 690.071451 174.182322 689.772941 174.924317 689.661 175.725298 C 689.558387 176.457979 689.524182 177.383144 689.894211 178.063047 C 690.245582 178.693277 691.147331 178.991317 691.657286 178.370401 C 691.890497 178.07857 691.971343 177.721544 692.027314 177.364517 C 692.114379 176.905039 692.148584 176.420724 692.148584 175.945723 C 692.148584 175.08265 692.092613 173.850132 691.100689 173.552092 Z M 691.582658 176.392783 C 691.567111 176.799483 691.526688 178.395238 690.764865 178.137557 C 690.049685 177.8954 690.124312 176.687718 690.170954 176.094743 C 690.226925 175.374481 690.460136 174.644904 690.895463 174.051929 C 690.91412 174.064348 690.932777 174.079871 690.954543 174.079871 C 691.371214 174.200949 691.492483 174.672845 691.536016 175.045395 C 691.601315 175.501768 691.607534 175.945723 691.582658 176.392783 Z M 691.582658 176.392783 " stroke="#111111" stroke-width="3" stroke-opacity="1" stroke-miterlimit="4"></path>
  </g>
  <path fill="#000000" d="M 162.664062 225.492188 C 162.207031 220.902344 160.273438 216.863281 157.707031 213.089844 C 155.199219 209.421875 152.285156 206.015625 150.183594 202.066406 C 149.066406 199.964844 148.261719 197.726562 147.863281 195.375 C 147.410156 192.667969 147.480469 189.886719 147.761719 187.167969 C 148.328125 181.644531 149.566406 176.199219 150.207031 170.671875 C 150.871094 164.988281 151.222656 159.265625 151.234375 153.542969 C 151.25 150.703125 151.175781 147.867188 151.023438 145.03125 C 150.886719 142.320312 150.742188 139.585938 150.328125 136.914062 C 150.070312 135.222656 149.566406 133.535156 148.785156 132.023438 C 148.402344 131.269531 147.9375 130.5625 147.386719 129.929688 C 146.886719 129.359375 146.269531 128.679688 145.53125 128.445312 C 145.226562 128.351562 144.9375 128.246094 144.625 128.222656 C 143.921875 128.179688 143.261719 128.433594 142.675781 128.78125 C 139.84375 130.488281 138.398438 133.890625 137.804688 137.003906 C 137.289062 139.667969 137.058594 142.402344 136.8125 145.101562 C 136.558594 147.925781 136.378906 150.761719 136.285156 153.601562 C 136.101562 159.324219 136.226562 165.058594 136.695312 170.765625 C 137.136719 176.304688 138.175781 181.796875 138.539062 187.339844 C 138.710938 190.070312 138.6875 192.855469 138.140625 195.550781 C 137.660156 197.886719 136.777344 200.09375 135.574219 202.15625 C 133.347656 206.027344 130.296875 209.320312 127.660156 212.890625 C 124.953125 216.558594 122.875 220.53125 122.246094 225.097656 C 121.605469 229.8125 122.375 234.652344 124.035156 239.089844 C 125.289062 242.476562 127.101562 245.625 129.230469 248.535156 C 131.363281 251.445312 133.828125 254.105469 136.425781 256.605469 C 137.058594 257.210938 137.71875 257.769531 138.351562 258.371094 C 138.964844 258.964844 139.726562 259.398438 140.484375 259.796875 C 140.695312 259.910156 140.914062 260.015625 141.148438 260.085938 C 141.640625 260.214844 142.164062 260.144531 142.640625 259.96875 C 143.820312 259.515625 144.84375 258.660156 145.800781 257.855469 C 146.863281 256.953125 147.878906 256.011719 148.894531 255.050781 C 151.503906 252.585938 153.960938 249.945312 156.0625 247.027344 C 157.765625 244.667969 159.234375 242.121094 160.351562 239.4375 C 162.183594 235.035156 163.128906 230.222656 162.664062 225.492188 Z M 158.125 242.484375 C 157.242188 244.105469 156.226562 245.675781 155.117188 247.160156 C 153.25 249.679688 151.105469 251.992188 148.84375 254.152344 C 147.699219 255.238281 146.523438 256.289062 145.335938 257.316406 C 144.707031 257.855469 144.039062 258.40625 143.285156 258.730469 C 142.6875 258.988281 141.972656 259.417969 141.3125 259.382812 C 139.996094 259.324219 138.746094 257.796875 137.863281 256.980469 C 133.269531 252.691406 129.023438 247.890625 126.203125 242.230469 C 124.054688 237.929688 122.738281 233.140625 122.761719 228.320312 C 122.78125 223.644531 124.230469 219.316406 126.761719 215.429688 C 129.136719 211.773438 132.125 208.570312 134.609375 204.984375 C 135.796875 203.285156 136.855469 201.496094 137.652344 199.566406 C 138.59375 197.292969 139.097656 194.882812 139.269531 192.429688 C 139.65625 187.167969 138.632812 181.921875 138 176.714844 C 137.335938 171.164062 136.972656 165.570312 136.929688 159.976562 C 136.878906 154.386719 137.136719 148.792969 137.710938 143.234375 C 138.1875 138.558594 138.429688 132.449219 142.777344 129.554688 C 146.023438 127.398438 148.480469 132.136719 149.207031 134.636719 C 150.011719 137.394531 150.082031 140.289062 150.265625 143.140625 C 150.628906 148.71875 150.683594 154.316406 150.429688 159.910156 C 150.175781 165.488281 149.613281 171.070312 148.742188 176.59375 C 147.921875 181.78125 146.710938 186.976562 146.894531 192.257812 C 146.988281 194.707031 147.398438 197.148438 148.261719 199.449219 C 148.988281 201.402344 149.988281 203.222656 151.105469 204.972656 C 153.460938 208.640625 156.328125 211.949219 158.570312 215.695312 C 160.960938 219.691406 162.242188 224.058594 162.089844 228.726562 C 161.917969 233.53125 160.425781 238.269531 158.125 242.484375 Z M 158.125 242.484375 " fill-opacity="1" fill-rule="nonzero"></path>
  <g clip-path="url(#41fdca7dae)">
    <path stroke-linecap="butt" transform="matrix(1.256239, 0, 0, 1.258222, -146.533711, -51.909371)" fill="none" stroke-linejoin="miter" d="M 246.129751 220.471161 C 245.765942 216.823279 244.226749 213.613142 242.183821 210.614118 C 240.187534 207.698917 237.867862 204.991722 236.194962 201.852991 C 235.305651 200.182727 234.665098 198.403803 234.347931 196.534845 C 233.987231 194.383371 234.043202 192.172909 234.267084 190.012121 C 234.717959 185.622245 235.703664 181.294459 236.213619 176.901478 C 236.74223 172.384313 237.022084 167.836103 237.031412 163.287892 C 237.04385 161.030862 236.98477 158.776937 236.8635 156.523011 C 236.754668 154.368433 236.639618 152.195226 236.310013 150.071693 C 236.104787 148.72741 235.703664 147.386231 235.081768 146.184758 C 234.777039 145.585574 234.407011 145.023645 233.968574 144.520703 C 233.570561 144.067434 233.079263 143.527237 232.491571 143.340963 C 232.249032 143.266453 232.01893 143.182629 231.770172 143.164002 C 231.210465 143.129851 230.684963 143.331649 230.218541 143.607957 C 227.964168 144.964658 226.81366 147.668748 226.341019 150.143099 C 225.930568 152.260422 225.747109 154.433629 225.551211 156.578894 C 225.349095 158.823506 225.206059 161.077431 225.131432 163.334461 C 224.985286 167.882672 225.084789 172.440196 225.457927 176.975988 C 225.809298 181.378283 226.63642 185.743323 226.925602 190.148723 C 227.062419 192.318825 227.043762 194.532391 226.608435 196.674551 C 226.225969 198.53109 225.523226 200.285178 224.565506 201.924397 C 222.793103 205.001036 220.364599 207.618197 218.265699 210.455784 C 216.11083 213.370985 214.456586 216.528344 213.95596 220.157598 C 213.446005 223.904827 214.058573 227.751402 215.380102 231.278206 C 216.378245 233.969877 217.821044 236.472169 219.51571 238.785081 C 221.213487 241.097994 223.175569 243.212213 225.243373 245.199145 C 225.747109 245.680355 226.272611 246.12431 226.776347 246.602415 C 227.264535 247.074311 227.870884 247.41892 228.474123 247.735587 C 228.642035 247.82562 228.816166 247.909443 229.002734 247.965326 C 229.394529 248.067777 229.811199 248.011895 230.190556 247.872188 C 231.129619 247.512057 231.944303 246.832154 232.706125 246.19261 C 233.551904 245.475452 234.360369 244.727248 235.168834 243.963522 C 237.245966 242.004531 239.201829 239.905835 240.87473 237.586713 C 242.230463 235.711547 243.399627 233.68736 244.288939 231.554513 C 245.747285 228.055651 246.499779 224.230808 246.129751 220.471161 Z M 242.516535 233.976086 C 241.813793 235.264487 241.005328 236.512528 240.122235 237.692269 C 238.635904 239.694723 236.928799 241.532635 235.12841 243.249468 C 234.217333 244.112541 233.281379 244.947674 232.336097 245.764178 C 231.835471 246.19261 231.30375 246.630356 230.70362 246.888036 C 230.22787 247.092939 229.658835 247.434443 229.133333 247.406501 C 228.085438 247.359933 227.090404 246.146042 226.387662 245.497184 C 222.730913 242.088355 219.350908 238.272825 217.105863 233.774288 C 215.395649 230.356145 214.347754 226.549929 214.366411 222.718877 C 214.381959 219.002694 215.535576 215.562819 217.550519 212.473761 C 219.441083 209.567874 221.819835 207.022118 223.797465 204.172113 C 224.742747 202.821621 225.585416 201.399723 226.21975 199.86606 C 226.969134 198.059194 227.370257 196.143668 227.507074 194.193991 C 227.814913 190.012121 227.000229 185.84267 226.496493 181.704264 C 225.967882 177.292655 225.6787 172.846896 225.644496 168.401136 C 225.604073 163.958482 225.809298 159.512722 226.266392 155.094904 C 226.645748 151.378722 226.838536 146.523158 230.299388 144.222663 C 232.883366 142.508935 234.839229 146.274791 235.417592 148.261723 C 236.058145 150.453557 236.114115 152.754051 236.260261 155.020394 C 236.549443 159.453735 236.592975 163.902599 236.390859 168.348359 C 236.188743 172.7817 235.740978 177.218145 235.047564 181.608022 C 234.394573 185.730905 233.430634 189.859997 233.57678 194.05739 C 233.651407 196.003962 233.977903 197.944325 234.665098 199.772923 C 235.243461 201.325213 236.039488 202.771947 236.928799 204.162799 C 238.803816 207.078 241.086174 209.70758 242.871016 212.684873 C 244.774018 215.860859 245.793927 219.33178 245.672657 223.041753 C 245.53584 226.860387 244.348019 230.626244 242.516535 233.976086 Z M 242.516535 233.976086 " stroke="#111111" stroke-width="3" stroke-opacity="1" stroke-miterlimit="4"></path>
  </g>
  <path fill="#000000" d="M 147.046875 141.453125 C 146.894531 140.136719 146.40625 137.089844 144.589844 137.160156 C 142.734375 137.226562 141.785156 139.273438 141.460938 140.816406 C 141.101562 142.496094 141.082031 144.644531 142.023438 146.152344 C 142.910156 147.5625 144.742188 148.003906 145.964844 146.757812 C 147.257812 145.460938 147.234375 143.148438 147.046875 141.453125 Z M 146.046875 145.382812 C 145.800781 146.011719 145.3125 146.605469 144.632812 146.78125 C 143.945312 146.957031 143.257812 146.59375 142.828125 146.078125 C 141.894531 144.957031 141.847656 143.125 142.011719 141.75 C 142.183594 140.335938 142.769531 137.863281 144.566406 137.820312 C 144.601562 137.820312 144.625 137.8125 144.648438 137.804688 C 145.707031 138.269531 146.046875 139.695312 146.242188 140.730469 C 146.511719 142.207031 146.605469 143.980469 146.046875 145.382812 Z M 146.046875 145.382812 " fill-opacity="1" fill-rule="nonzero"></path>
  <g clip-path="url(#130e0882cb)">
    <path stroke-linecap="butt" transform="matrix(1.256239, 0, 0, 1.258222, -829.191493, -93.913851)" fill="none" stroke-linejoin="miter" d="M 777.112019 187.063226 C 776.99075 186.016983 776.602064 183.59541 775.156156 183.651292 C 773.679153 183.70407 772.923549 185.33087 772.665463 186.55718 C 772.37939 187.892149 772.363843 189.599669 773.113228 190.798037 C 773.81908 191.91879 775.277426 192.269608 776.250693 191.279247 C 777.279931 190.248526 777.261274 188.410614 777.112019 187.063226 Z M 776.315992 190.186434 C 776.120095 190.686272 775.73141 191.158168 775.190361 191.297874 C 774.643092 191.43758 774.095823 191.148854 773.753781 190.73905 C 773.010615 189.848035 772.973301 188.391987 773.103899 187.299174 C 773.240716 186.175316 773.707138 184.210117 775.137499 184.175966 C 775.165485 184.175966 775.184142 184.169757 775.202798 184.163548 C 776.045468 184.532993 776.315992 185.666165 776.471466 186.488879 C 776.68602 187.66241 776.760648 189.07189 776.315992 190.186434 Z M 776.315992 190.186434 " stroke="#111111" stroke-width="3" stroke-opacity="1" stroke-miterlimit="4"></path>
  </g>
  <path fill="#000000" d="M 154.707031 222.574219 C 147.363281 221.3125 139.878906 220.929688 132.449219 221.453125 C 130.363281 221.605469 128.289062 221.828125 126.222656 222.117188 C 125.78125 222.175781 125.96875 222.855469 126.40625 222.796875 C 133.660156 221.777344 141.042969 221.652344 148.34375 222.398438 C 150.417969 222.609375 152.480469 222.898438 154.535156 223.253906 C 154.964844 223.324219 155.15625 222.644531 154.707031 222.574219 Z M 154.707031 222.574219 " fill-opacity="1" fill-rule="nonzero"></path>
  <g clip-path="url(#af40cf540a)">
    <path stroke-linecap="butt" transform="matrix(1.256239, 0, 0, 1.258222, -829.191493, -93.913851)" fill="none" stroke-linejoin="miter" d="M 783.20971 251.53605 C 777.363887 250.53327 771.406123 250.229021 765.491892 250.645035 C 763.83143 250.766114 762.180296 250.943075 760.535381 251.172814 C 760.184009 251.219383 760.333264 251.75958 760.681526 251.713011 C 766.455831 250.902715 772.332748 250.803369 778.144367 251.396344 C 779.795501 251.563991 781.437306 251.79373 783.072893 252.076247 C 783.414936 252.132129 783.5673 251.591932 783.20971 251.53605 Z M 783.20971 251.53605 " stroke="#111111" stroke-width="3" stroke-opacity="1" stroke-miterlimit="4"></path>
  </g>
  <g fill="#000000" fill-opacity="1">
    <g transform="translate(166.608012, 165.749989)">
      <g>
        <path d="M 0.4375 0 L 5.859375 0 L 5.859375 -0.578125 C 5.09375 -1.6875 5.46875 -6.140625 7.6875 -13.625 L 9.359375 -18.90625 C 10.3125 -19.015625 11.71875 -18.4375 11.859375 -17.609375 C 11.609375 -17.234375 11.46875 -16.515625 11.46875 -15.984375 C 11.46875 -15.078125 11.765625 -13.875 12.484375 -13.875 C 13.203125 -13.875 13.484375 -15.078125 13.484375 -15.984375 C 13.484375 -16.515625 13.34375 -17.234375 13.109375 -17.609375 C 13.25 -18.4375 14.640625 -19.015625 15.59375 -18.90625 L 17.28125 -13.625 C 19.484375 -6.140625 19.875 -1.6875 19.109375 -0.578125 L 19.109375 0 L 34.078125 0 L 34.078125 -0.578125 C 32.59375 -1.6875 30.34375 -6.140625 28.125 -13.625 L 26.015625 -19.96875 C 23.8125 -27.453125 23.46875 -31.921875 24.1875 -33.03125 L 24.1875 -33.59375 L 10.265625 -33.59375 L 10.265625 -33.03125 C 10.984375 -31.921875 10.65625 -27.453125 8.453125 -19.96875 L 6.34375 -13.625 C 4.125 -6.140625 1.828125 -1.6875 0.4375 -0.578125 Z M 12.234375 -18.234375 C 12.140625 -19.578125 11.09375 -20.734375 9.9375 -20.921875 L 12.1875 -28.078125 L 12.765625 -28.078125 L 15.03125 -20.921875 C 13.875 -20.734375 12.8125 -19.625 12.671875 -18.234375 Z M 12.234375 -18.234375 "></path>
      </g>
    </g>
  </g>
  <g fill="#000000" fill-opacity="1">
    <g transform="translate(201.111592, 165.749989)">
      <g>
        <path d="M 0.953125 0 L 13.34375 0 L 13.34375 -0.53125 C 12.4375 -1.625 11.609375 -6 11.609375 -13.34375 L 11.609375 -13.96875 C 11.609375 -18.71875 14.546875 -23.71875 18 -23.71875 C 20.734375 -23.71875 22.46875 -21.9375 22.46875 -19.484375 C 22.46875 -17.65625 21.125 -16.078125 19.34375 -16.078125 C 17.46875 -16.078125 16.21875 -18 17.234375 -19.25 L 16.75 -19.34375 C 16.078125 -18.71875 15.59375 -17.609375 15.59375 -16.421875 C 15.59375 -12.8125 18.625 -10.21875 22.421875 -10.21875 C 27.796875 -10.21875 30.765625 -13.578125 30.765625 -18.484375 C 30.765625 -23.28125 27.078125 -27.078125 21.640625 -27.078125 C 16.984375 -27.078125 13.78125 -24.34375 12.234375 -20.296875 L 11.609375 -20.296875 L 11.609375 -27.171875 L 11.140625 -27.171875 C 8.734375 -25.625 4.3125 -24.8125 0.90625 -24.71875 L 0.90625 -24.234375 C 1.734375 -23.5625 2.5 -21.9375 2.640625 -17.609375 L 2.640625 -13.34375 C 2.640625 -6 1.875 -1.625 0.953125 -0.53125 Z M 0.953125 0 "></path>
      </g>
    </g>
  </g>
  <g fill="#000000" fill-opacity="1">
    <g transform="translate(232.255999, 165.749989)">
      <g>
        <path d="M 13.484375 0.671875 C 18.4375 0.671875 21.640625 -1.96875 21.640625 -5.5625 C 21.640625 -8.640625 19.578125 -10.5625 17.1875 -10.5625 C 14.921875 -10.5625 13.390625 -8.546875 13.390625 -6.234375 C 13.390625 -5.328125 13.625 -4.375 13.875 -3.9375 L 14.296875 -3.9375 C 14.15625 -5.28125 14.921875 -6.4375 16.03125 -6.4375 C 17.234375 -6.4375 18.1875 -5.421875 18.1875 -3.703125 C 18.1875 -1.6875 17.046875 -0.390625 15.3125 -0.390625 C 13.015625 -0.390625 11.609375 -2.96875 11.609375 -6.046875 L 11.609375 -25.296875 L 20.359375 -25.296875 L 20.359375 -26.359375 L 11.515625 -26.359375 L 11.515625 -34.609375 L 10.984375 -34.609375 C 10.03125 -30.484375 6.71875 -26.359375 0.859375 -26.359375 L -1.15625 -26.359375 L -1.15625 -25.296875 L 2.640625 -25.296875 L 2.640625 -9.640625 C 2.640625 -2.25 7.015625 0.671875 13.484375 0.671875 Z M 13.484375 0.671875 "></path>
      </g>
    </g>
  </g>
  <g fill="#000000" fill-opacity="1">
    <g transform="translate(254.282624, 165.749989)">
      <g>
        <path d="M 6.953125 -28.46875 C 9.640625 -28.46875 11.859375 -30.484375 11.859375 -33.078125 C 11.859375 -35.671875 9.640625 -37.6875 6.953125 -37.6875 C 4.265625 -37.6875 2.0625 -35.671875 2.0625 -33.078125 C 2.0625 -30.484375 4.265625 -28.46875 6.953125 -28.46875 Z M 1.109375 0 L 13.484375 0 L 13.484375 -0.53125 C 12.53125 -1.625 11.765625 -6 11.765625 -13.34375 L 11.765625 -27.171875 L 11.28125 -27.171875 C 8.828125 -25.625 4.46875 -24.8125 1.0625 -24.71875 L 1.0625 -24.234375 C 1.828125 -23.5625 2.640625 -21.9375 2.78125 -17.609375 L 2.78125 -13.34375 C 2.78125 -6 2.015625 -1.625 1.109375 -0.53125 Z M 1.109375 0 "></path>
      </g>
    </g>
  </g>
  <g fill="#000000" fill-opacity="1">
    <g transform="translate(268.631122, 165.749989)">
      <g>
        <path d="M 13.0625 0.671875 C 20.0625 0.671875 25.578125 -1.921875 25.578125 -7.484375 C 25.578125 -16.515625 10.265625 -17.28125 10.265625 -22.609375 C 10.265625 -24.578125 11.859375 -25.96875 15.265625 -25.96875 C 19.0625 -25.96875 21.59375 -22.421875 22.125 -18.953125 L 22.5625 -18.953125 L 23.5625 -25.34375 C 21.640625 -26.015625 17.5625 -27.078125 12.90625 -27.078125 C 7.109375 -27.078125 2.203125 -24.90625 2.203125 -19.921875 C 2.203125 -12 16.703125 -13.109375 16.703125 -5.28125 C 16.703125 -2.25 13.875 -0.34375 11.234375 -0.34375 C 7.6875 -0.34375 5.859375 -2.203125 5.859375 -4.265625 C 5.859375 -5.90625 6.859375 -7.015625 8.453125 -7.015625 C 9.796875 -7.015625 10.75 -6.1875 10.75 -5.1875 L 11.28125 -5.1875 C 11.515625 -5.5625 11.71875 -6.28125 11.71875 -6.859375 C 11.71875 -9.3125 9.453125 -11.515625 6.234375 -11.515625 C 2.921875 -11.515625 0.4375 -9.359375 0.4375 -6.140625 C 0.4375 -2.0625 4.609375 0.671875 13.0625 0.671875 Z M 13.0625 0.671875 "></path>
      </g>
    </g>
  </g>
  <g fill="#000000" fill-opacity="1">
    <g transform="translate(294.592787, 165.749989)">
      <g>
        <path d="M 9.453125 0.671875 C 13.484375 0.671875 16.65625 -1.78125 17.65625 -5.234375 L 18.234375 -5.234375 C 18.765625 -1.875 21.125 0.671875 24.53125 0.671875 C 28.03125 0.671875 29.859375 -2.296875 30.234375 -6.234375 L 29.765625 -6.234375 C 29.515625 -5.375 29.09375 -4.75 28.265625 -4.75 C 27.03125 -4.75 26.359375 -6.046875 25.96875 -8.15625 L 24.390625 -17.234375 C 23.234375 -23.515625 19.34375 -27.078125 12.34375 -27.078125 C 7.25 -27.078125 3.265625 -24.671875 3.265625 -21.265625 C 3.265625 -18.8125 5.328125 -16.9375 7.828125 -16.9375 C 10.375 -16.9375 11.90625 -18.90625 11.90625 -20.875 C 11.90625 -21.40625 11.765625 -21.984375 11.515625 -22.375 L 10.984375 -22.3125 C 11.140625 -21.359375 10.265625 -20.734375 9.078125 -20.734375 C 7.875 -20.734375 6.8125 -21.640625 6.8125 -23.09375 C 6.8125 -24.765625 8.0625 -25.921875 10.125 -25.921875 C 12.671875 -25.921875 14.40625 -24.140625 14.921875 -21.078125 L 16.265625 -13.34375 L 15.703125 -13.34375 C 14.640625 -14.875 12 -16.171875 9.453125 -16.171875 C 4.171875 -16.171875 0.671875 -12.90625 0.671875 -7.78125 C 0.671875 -2.546875 4.171875 0.671875 9.453125 0.671875 Z M 13.296875 -3.03125 C 10.9375 -3.03125 9.40625 -5.140625 9.40625 -8.296875 C 9.40625 -11.46875 10.9375 -13.53125 13.296875 -13.53125 C 15.59375 -13.53125 17.234375 -11.375 17.234375 -8.296875 C 17.234375 -5.1875 15.59375 -3.03125 13.296875 -3.03125 Z M 13.296875 -3.03125 "></path>
      </g>
    </g>
  </g>
  <g fill="#000000" fill-opacity="1">
    <g transform="translate(324.633457, 165.749989)">
      <g>
        <path d="M 0.953125 0 L 13.34375 0 L 13.34375 -0.53125 C 12.4375 -1.625 11.609375 -6 11.609375 -13.34375 L 11.609375 -16.890625 C 11.609375 -20.109375 13.484375 -22.515625 16.265625 -22.515625 C 19.0625 -22.515625 20.875 -20.015625 20.875 -16.796875 L 20.875 -13.34375 C 20.875 -6 20.109375 -1.625 19.203125 -0.53125 L 19.203125 0 L 31.578125 0 L 31.578125 -0.53125 C 30.671875 -1.625 29.90625 -6 29.90625 -13.34375 L 29.90625 -16.03125 C 29.90625 -22.03125 26.296875 -27.078125 20.40625 -27.078125 C 16.5625 -27.078125 13.296875 -25.15625 12.1875 -21.546875 L 11.609375 -21.546875 L 11.609375 -27.171875 L 11.09375 -27.171875 C 8.6875 -25.625 4.3125 -24.859375 0.90625 -24.8125 L 0.90625 -24.34375 C 1.828125 -23.5625 2.640625 -21.703125 2.640625 -16.21875 L 2.640625 -13.484375 C 2.640625 -6.140625 1.875 -1.625 0.953125 -0.53125 Z M 0.953125 0 "></path>
      </g>
    </g>
  </g>
  <g fill="#000000" fill-opacity="1">
    <g transform="translate(175.104106, 232.499985)">
      <g>
        <path d="M 0.90625 0 L 15.890625 0 L 15.890625 -0.578125 C 14.78125 -1.6875 13.828125 -6.8125 13.828125 -14.296875 L 13.828125 -15.9375 L 14.40625 -15.9375 C 15.453125 -12.8125 17.71875 -11.046875 21.796875 -11.046875 C 31.25 -11.046875 34.984375 -16.984375 34.984375 -22.5625 C 34.984375 -29.140625 29.609375 -33.59375 21.59375 -33.59375 L 0.90625 -33.59375 L 0.90625 -33.03125 C 1.96875 -31.921875 2.96875 -27.453125 2.96875 -19.921875 L 2.96875 -13.625 C 2.96875 -6.140625 1.96875 -1.6875 0.90625 -0.578125 Z M 19.96875 -12.140625 C 17.765625 -12.140625 16.265625 -13.625 16.265625 -15.84375 C 16.265625 -17.71875 17.09375 -18.90625 18.34375 -18.90625 C 19.6875 -18.90625 20.15625 -17.8125 20.203125 -16.796875 L 20.828125 -16.796875 C 21.03125 -17.09375 21.078125 -17.8125 21.078125 -18.28125 C 21.078125 -20.5 19.96875 -22.796875 17.421875 -22.796875 C 15.84375 -22.796875 14.640625 -21.265625 14.453125 -19.734375 L 13.828125 -19.734375 L 13.828125 -32.546875 L 16.03125 -32.546875 C 22.265625 -32.546875 24.8125 -25.578125 24.8125 -20.40625 C 24.8125 -15.984375 22.9375 -12.140625 19.96875 -12.140625 Z M 19.96875 -12.140625 "></path>
      </g>
    </g>
  </g>
  <g fill="#000000" fill-opacity="1">
    <g transform="translate(210.711422, 232.499985)">
      <g>
        <path d="M 9.453125 0.671875 C 13.484375 0.671875 16.65625 -1.78125 17.65625 -5.234375 L 18.234375 -5.234375 C 18.765625 -1.875 21.125 0.671875 24.53125 0.671875 C 28.03125 0.671875 29.859375 -2.296875 30.234375 -6.234375 L 29.765625 -6.234375 C 29.515625 -5.375 29.09375 -4.75 28.265625 -4.75 C 27.03125 -4.75 26.359375 -6.046875 25.96875 -8.15625 L 24.390625 -17.234375 C 23.234375 -23.515625 19.34375 -27.078125 12.34375 -27.078125 C 7.25 -27.078125 3.265625 -24.671875 3.265625 -21.265625 C 3.265625 -18.8125 5.328125 -16.9375 7.828125 -16.9375 C 10.375 -16.9375 11.90625 -18.90625 11.90625 -20.875 C 11.90625 -21.40625 11.765625 -21.984375 11.515625 -22.375 L 10.984375 -22.3125 C 11.140625 -21.359375 10.265625 -20.734375 9.078125 -20.734375 C 7.875 -20.734375 6.8125 -21.640625 6.8125 -23.09375 C 6.8125 -24.765625 8.0625 -25.921875 10.125 -25.921875 C 12.671875 -25.921875 14.40625 -24.140625 14.921875 -21.078125 L 16.265625 -13.34375 L 15.703125 -13.34375 C 14.640625 -14.875 12 -16.171875 9.453125 -16.171875 C 4.171875 -16.171875 0.671875 -12.90625 0.671875 -7.78125 C 0.671875 -2.546875 4.171875 0.671875 9.453125 0.671875 Z M 13.296875 -3.03125 C 10.9375 -3.03125 9.40625 -5.140625 9.40625 -8.296875 C 9.40625 -11.46875 10.9375 -13.53125 13.296875 -13.53125 C 15.59375 -13.53125 17.234375 -11.375 17.234375 -8.296875 C 17.234375 -5.1875 15.59375 -3.03125 13.296875 -3.03125 Z M 13.296875 -3.03125 "></path>
      </g>
    </g>
  </g>
  <g fill="#000000" fill-opacity="1">
    <g transform="translate(240.752092, 232.499985)">
      <g>
        <path d="M 13.0625 0.671875 C 20.0625 0.671875 25.578125 -1.921875 25.578125 -7.484375 C 25.578125 -16.515625 10.265625 -17.28125 10.265625 -22.609375 C 10.265625 -24.578125 11.859375 -25.96875 15.265625 -25.96875 C 19.0625 -25.96875 21.59375 -22.421875 22.125 -18.953125 L 22.5625 -18.953125 L 23.5625 -25.34375 C 21.640625 -26.015625 17.5625 -27.078125 12.90625 -27.078125 C 7.109375 -27.078125 2.203125 -24.90625 2.203125 -19.921875 C 2.203125 -12 16.703125 -13.109375 16.703125 -5.28125 C 16.703125 -2.25 13.875 -0.34375 11.234375 -0.34375 C 7.6875 -0.34375 5.859375 -2.203125 5.859375 -4.265625 C 5.859375 -5.90625 6.859375 -7.015625 8.453125 -7.015625 C 9.796875 -7.015625 10.75 -6.1875 10.75 -5.1875 L 11.28125 -5.1875 C 11.515625 -5.5625 11.71875 -6.28125 11.71875 -6.859375 C 11.71875 -9.3125 9.453125 -11.515625 6.234375 -11.515625 C 2.921875 -11.515625 0.4375 -9.359375 0.4375 -6.140625 C 0.4375 -2.0625 4.609375 0.671875 13.0625 0.671875 Z M 13.0625 0.671875 "></path>
      </g>
    </g>
  </g>
  <g fill="#000000" fill-opacity="1">
    <g transform="translate(266.713757, 232.499985)">
      <g>
        <path d="M 13.484375 0.671875 C 18.4375 0.671875 21.640625 -1.96875 21.640625 -5.5625 C 21.640625 -8.640625 19.578125 -10.5625 17.1875 -10.5625 C 14.921875 -10.5625 13.390625 -8.546875 13.390625 -6.234375 C 13.390625 -5.328125 13.625 -4.375 13.875 -3.9375 L 14.296875 -3.9375 C 14.15625 -5.28125 14.921875 -6.4375 16.03125 -6.4375 C 17.234375 -6.4375 18.1875 -5.421875 18.1875 -3.703125 C 18.1875 -1.6875 17.046875 -0.390625 15.3125 -0.390625 C 13.015625 -0.390625 11.609375 -2.96875 11.609375 -6.046875 L 11.609375 -25.296875 L 20.359375 -25.296875 L 20.359375 -26.359375 L 11.515625 -26.359375 L 11.515625 -34.609375 L 10.984375 -34.609375 C 10.03125 -30.484375 6.71875 -26.359375 0.859375 -26.359375 L -1.15625 -26.359375 L -1.15625 -25.296875 L 2.640625 -25.296875 L 2.640625 -9.640625 C 2.640625 -2.25 7.015625 0.671875 13.484375 0.671875 Z M 13.484375 0.671875 "></path>
      </g>
    </g>
  </g>
  <g fill="#000000" fill-opacity="1">
    <g transform="translate(288.740382, 232.499985)">
      <g>
        <path d="M 0.953125 0 L 13.34375 0 L 13.34375 -0.53125 C 12.4375 -1.625 11.609375 -6 11.609375 -13.34375 L 11.609375 -13.96875 C 11.609375 -18.71875 14.546875 -23.71875 18 -23.71875 C 20.734375 -23.71875 22.46875 -21.9375 22.46875 -19.484375 C 22.46875 -17.65625 21.125 -16.078125 19.34375 -16.078125 C 17.46875 -16.078125 16.21875 -18 17.234375 -19.25 L 16.75 -19.34375 C 16.078125 -18.71875 15.59375 -17.609375 15.59375 -16.421875 C 15.59375 -12.8125 18.625 -10.21875 22.421875 -10.21875 C 27.796875 -10.21875 30.765625 -13.578125 30.765625 -18.484375 C 30.765625 -23.28125 27.078125 -27.078125 21.640625 -27.078125 C 16.984375 -27.078125 13.78125 -24.34375 12.234375 -20.296875 L 11.609375 -20.296875 L 11.609375 -27.171875 L 11.140625 -27.171875 C 8.734375 -25.625 4.3125 -24.8125 0.90625 -24.71875 L 0.90625 -24.234375 C 1.734375 -23.5625 2.5 -21.9375 2.640625 -17.609375 L 2.640625 -13.34375 C 2.640625 -6 1.875 -1.625 0.953125 -0.53125 Z M 0.953125 0 "></path>
      </g>
    </g>
  </g>
  <g fill="#000000" fill-opacity="1">
    <g transform="translate(319.884789, 232.499985)">
      <g>
        <path d="M 7.15625 14.0625 C 12.09375 14.0625 14.546875 8.78125 16.5625 2.453125 L 22.125 -14.828125 C 24.4375 -22.265625 27.265625 -24.765625 28.796875 -25.78125 L 28.796875 -26.359375 L 22.75 -26.359375 L 22.75 -25.78125 C 23.5625 -24.671875 23.234375 -22.21875 21.078125 -14.828125 L 18.53125 -7.15625 L 17.953125 -7.15625 L 15.5 -14.828125 C 13.34375 -22.21875 13.921875 -24.671875 14.6875 -25.78125 L 14.6875 -26.359375 L 0 -26.359375 L 0 -25.78125 C 2.359375 -24.625 4.265625 -17.8125 5.28125 -14.828125 L 9.703125 0 L 16.3125 0 L 15.5 2.359375 C 13.921875 7.0625 12.28125 11.046875 9.265625 11.046875 C 7.15625 11.046875 5.90625 9.890625 5.90625 8.203125 C 5.90625 6.859375 6.765625 6 7.921875 6 C 8.875 6 9.703125 6.8125 9.5 7.921875 L 9.890625 7.875 C 10.078125 7.578125 10.421875 6.90625 10.421875 6.140625 C 10.421875 3.40625 8.59375 1.828125 6 1.828125 C 2.453125 1.828125 0 3.9375 0 7.625 C 0 11.375 2.6875 14.0625 7.15625 14.0625 Z M 7.15625 14.0625 "></path>
      </g>
    </g>
  </g>
</svg>
