<svg xmlns="http://www.w3.org/2000/svg" viewBox="672.93 164.41 118.21 118.5">
  <path fill="#000000" d="M 736.117 207.291 C 735.261 206.631 734.335 206.076 733.351 205.638 C 733.027 205.498 732.746 205.974 733.07 206.123 C 736.433 207.595 739.078 210.509 740.285 213.974 C 740.628 214.967 740.859 215.986 740.953 217.037 C 740.98 217.388 741.535 217.388 741.507 217.037 C 741.148 213.205 739.14 209.631 736.117 207.291 Z M 736.117 207.291" style="stroke: #111111; stroke-width: 3px;"></path>
  <path fill="#000000" d="M 204.101562 177.257812 C 200.804688 173.394531 195.96875 171.578125 191.078125 170.65625 C 191.132812 169.671875 190.4375 168.914062 189.582031 168.476562 C 189.433594 168.402344 189.277344 168.335938 189.121094 168.273438 C 193.574219 163.113281 198.019531 157.960938 202.476562 152.800781 C 203.507812 151.613281 204.609375 150.453125 205.519531 149.160156 C 206.261719 148.101562 206.828125 146.867188 206.746094 145.542969 C 206.671875 144.417969 206.171875 143.285156 205.160156 142.71875 C 203.980469 142.0625 202.289062 142.375 201.398438 141.242188 C 200.917969 140.632812 201.046875 139.898438 201.808594 139.621094 C 202.449219 139.386719 203.144531 139.40625 203.785156 139.164062 C 205.074219 138.683594 206.097656 137.632812 206.523438 136.324219 C 206.597656 136.101562 206.375 135.953125 206.179688 135.980469 C 204.203125 136.324219 202.4375 134.988281 200.832031 134.058594 C 200.015625 133.585938 199.164062 133.140625 198.234375 132.917969 C 197.34375 132.703125 196.425781 132.695312 195.523438 132.851562 C 193.714844 133.179688 192.054688 134.246094 191.058594 135.804688 C 190.503906 136.6875 190.066406 137.847656 188.988281 138.207031 C 188.542969 138.355469 188.042969 138.328125 187.699219 137.976562 C 187.421875 137.6875 187.355469 137.269531 187.335938 136.890625 C 187.300781 136.035156 187.476562 135.144531 187.1875 134.320312 C 186.910156 133.523438 186.222656 133.011719 185.433594 132.761719 C 183.707031 132.210938 181.65625 132.6875 180.042969 133.363281 C 178.316406 134.085938 176.765625 135.230469 175.578125 136.675781 C 174.984375 137.410156 174.472656 138.207031 174.082031 139.070312 C 173.683594 139.972656 173.441406 140.917969 173.128906 141.847656 C 172.8125 142.777344 172.386719 143.703125 171.578125 144.308594 C 170.769531 144.910156 169.75 145.097656 168.753906 145.085938 C 166.492188 145.066406 164.367188 144.019531 162.089844 144.09375 C 161.523438 144.113281 160.976562 144.203125 160.4375 144.390625 C 160.253906 144.457031 160.199219 144.621094 160.273438 144.796875 C 161.832031 148.472656 163.800781 151.984375 166.128906 155.230469 C 168.457031 158.488281 171.132812 161.488281 174.109375 164.167969 C 175.570312 165.488281 177.109375 166.710938 178.695312 167.863281 C 178.4375 167.976562 178.195312 168.125 178 168.347656 C 177.703125 168.691406 177.5625 169.125 177.65625 169.5625 C 173.285156 169.8125 168.949219 170.554688 165.117188 172.792969 C 162.777344 174.15625 160.707031 176.058594 159.382812 178.445312 C 157.941406 181.035156 157.480469 184.023438 157.644531 186.957031 C 157.820312 190.027344 158.628906 193.035156 159.621094 195.941406 C 160.671875 199.011719 161.90625 202.019531 163.167969 205.007812 C 165.738281 211.117188 168.605469 217.101562 171.753906 222.941406 C 173.3125 225.835938 174.945312 228.695312 176.644531 231.515625 C 177.507812 232.945312 178.378906 234.367188 179.273438 235.769531 C 179.308594 235.824219 179.347656 235.890625 179.382812 235.945312 C 179.226562 236.066406 179.253906 236.363281 179.476562 236.425781 C 179.476562 236.4375 179.476562 236.4375 179.476562 236.445312 C 181.230469 240.4375 182.984375 243.871094 184.738281 247.851562 C 184.839844 248.085938 185.175781 247.992188 185.25 247.789062 C 186.503906 244.09375 187.765625 240.949219 189.019531 237.253906 C 190.566406 234.980469 192.097656 232.707031 193.59375 230.394531 C 197.242188 224.761719 200.636719 218.941406 203.253906 212.75 C 205.789062 206.746094 207.597656 200.394531 208.089844 193.871094 C 208.566406 188.144531 207.988281 181.804688 204.101562 177.257812 Z M 170.789062 160.066406 C 168.105469 157.132812 165.738281 153.921875 163.753906 150.480469 C 162.695312 148.660156 161.757812 146.765625 160.921875 144.835938 C 163.121094 144.234375 165.359375 145.246094 167.539062 145.542969 C 169.414062 145.792969 171.484375 145.578125 172.710938 143.972656 C 173.292969 143.203125 173.609375 142.265625 173.898438 141.347656 C 174.195312 140.398438 174.484375 139.472656 174.964844 138.597656 C 175.894531 136.929688 177.285156 135.527344 178.929688 134.550781 C 180.523438 133.613281 182.5 132.964844 184.367188 133.121094 C 185.210938 133.195312 186.1875 133.492188 186.59375 134.300781 C 186.996094 135.089844 186.761719 136.054688 186.808594 136.898438 C 186.847656 137.671875 187.113281 138.449219 187.894531 138.746094 C 188.757812 139.082031 189.742188 138.625 190.328125 137.984375 C 191.03125 137.207031 191.394531 136.175781 192.089844 135.386719 C 192.710938 134.683594 193.511719 134.125 194.382812 133.773438 C 195.238281 133.429688 196.15625 133.261719 197.074219 133.308594 C 198.058594 133.355469 198.96875 133.6875 199.832031 134.132812 C 201.5 134.996094 203.078125 136.316406 205 136.558594 C 205.277344 136.59375 205.566406 136.59375 205.84375 136.566406 C 205.371094 137.597656 204.460938 138.402344 203.367188 138.71875 C 202.390625 138.996094 200.851562 138.90625 200.574219 140.1875 C 200.3125 141.410156 201.585938 142.3125 202.605469 142.570312 C 203.292969 142.746094 204.015625 142.792969 204.667969 143.082031 C 205.222656 143.332031 205.652344 143.769531 205.902344 144.324219 C 207.183594 147.109375 204.398438 149.726562 202.765625 151.621094 C 200.535156 154.191406 198.316406 156.773438 196.089844 159.34375 C 193.59375 162.230469 191.105469 165.117188 188.609375 168.011719 C 188.601562 168.023438 188.601562 168.039062 188.589844 168.050781 C 187.867188 167.789062 187.105469 167.613281 186.34375 167.511719 C 185.222656 167.351562 184.089844 167.335938 182.964844 167.371094 C 181.824219 167.417969 180.664062 167.472656 179.53125 167.640625 C 179.496094 167.648438 179.457031 167.660156 179.421875 167.660156 C 176.285156 165.449219 173.386719 162.898438 170.789062 160.066406 Z M 179.050781 168.320312 C 179.605469 168.125 180.273438 168.113281 180.859375 168.066406 C 182.046875 167.964844 183.246094 167.890625 184.441406 167.917969 C 185.628906 167.949219 186.828125 168.085938 187.96875 168.429688 C 188.925781 168.71875 190.613281 169.300781 190.539062 170.554688 C 189.613281 170.398438 188.683594 170.257812 187.765625 170.148438 C 187.144531 170.074219 186.511719 170.027344 185.890625 169.960938 C 185.3125 169.894531 184.75 169.710938 184.171875 169.636719 C 182.992188 169.480469 181.804688 169.460938 180.628906 169.460938 C 180.394531 169.460938 178.261719 169.589844 178.242188 169.523438 C 178.066406 168.960938 178.546875 168.496094 179.050781 168.320312 Z M 204.460938 208.21875 C 202.316406 214.355469 199.300781 220.136719 195.941406 225.6875 C 194.242188 228.492188 192.453125 231.230469 190.632812 233.949219 C 190.09375 234.757812 189.539062 235.5625 188.988281 236.371094 C 188.980469 236.371094 188.980469 236.363281 188.972656 236.363281 C 186 236.214844 183.03125 236.066406 180.0625 235.917969 C 179.792969 235.488281 179.523438 235.074219 179.253906 234.644531 C 177.535156 231.917969 175.882812 229.140625 174.296875 226.339844 C 171.140625 220.761719 168.246094 215.035156 165.617188 209.195312 C 164.300781 206.253906 163.046875 203.28125 161.859375 200.285156 C 160.738281 197.433594 159.652344 194.558594 158.9375 191.570312 C 158.25 188.691406 157.90625 185.65625 158.453125 182.734375 C 158.972656 179.976562 160.320312 177.488281 162.34375 175.558594 C 166.730469 171.371094 172.949219 170.277344 178.796875 170.054688 C 179.894531 170.007812 180.988281 170.007812 182.074219 170.082031 C 183.105469 170.15625 184.117188 170.359375 185.148438 170.453125 C 187.105469 170.628906 189.054688 170.851562 190.984375 171.207031 C 194.417969 171.84375 197.808594 172.949219 200.695312 174.964844 C 203.03125 176.589844 204.863281 178.789062 205.992188 181.394531 C 207.136719 184.023438 207.582031 186.929688 207.664062 189.777344 C 207.867188 196.035156 206.523438 202.328125 204.460938 208.21875 Z M 204.460938 208.21875 " style="stroke: #111111; stroke-width: 3px;" transform="matrix(1, 0, 0, 1, 543.41357421875, 33.38447952270508)"></path>
  <path fill="#000000" d="M 721.488 205.146 C 718.769 205.787 716.402 207.627 715.121 210.103 C 714.953 210.42 715.437 210.697 715.605 210.381 C 716.82 208.025 719.058 206.279 721.636 205.677 C 721.98 205.592 721.839 205.064 721.488 205.146 Z M 721.488 205.146" style="stroke: #111111; stroke-width: 3px;"></path>
  <path fill="#000000" d="M 725.46 205.685 C 721.609 209.259 719.632 214.642 720.039 219.857 C 720.16 221.334 720.468 222.799 720.968 224.193 C 721.089 224.525 721.628 224.377 721.507 224.045 C 719.761 219.236 720.449 213.713 723.132 209.388 C 723.882 208.162 724.8 207.049 725.859 206.076 C 726.121 205.834 725.722 205.443 725.46 205.685 Z M 725.46 205.685" style="stroke: #111111; stroke-width: 3px;"></path>
  <path fill="#000000" d="M 729.128 207.392 C 729.156 207.041 728.609 207.041 728.57 207.392 C 728.414 209.287 728.441 211.189 728.671 213.084 C 728.71 213.435 729.265 213.435 729.23 213.084 C 729.007 211.189 728.968 209.287 729.128 207.392 Z M 729.128 207.392" style="stroke: #111111; stroke-width: 3px;"></path>
  <path fill="#000000" d="M 732.265 206.224 C 732.078 205.916 731.597 206.197 731.781 206.502 C 732.914 208.33 733.527 210.435 733.546 212.592 C 733.546 212.943 734.101 212.943 734.101 212.592 C 734.074 210.345 733.445 208.134 732.265 206.224 Z M 732.265 206.224" style="stroke: #111111; stroke-width: 3px;"></path>
  <path fill="#000000" d="M 733.359 181.107 C 730.882 185.787 729.265 190.873 728.57 196.107 C 728.523 196.459 729.082 196.459 729.128 196.107 C 729.812 190.963 731.421 185.963 733.843 181.384 C 734.007 181.068 733.527 180.791 733.359 181.107 Z M 733.359 181.107" style="stroke: #111111; stroke-width: 3px;"></path>
  <path fill="#000000" d="M 725.367 197.896 C 722.73 195.158 720.82 191.771 719.835 188.107 C 719.742 187.763 719.207 187.912 719.296 188.256 C 720.308 192.013 722.269 195.486 724.968 198.299 C 725.23 198.549 725.617 198.158 725.367 197.896 Z M 725.367 197.896" style="stroke: #111111; stroke-width: 3px;"></path>
  <path fill="#000000" d="M 726.835 196.162 C 726.183 194.713 725.722 193.181 725.433 191.623 C 725.367 191.271 724.839 191.42 724.894 191.771 C 725.191 193.388 725.683 194.947 726.351 196.451 C 726.5 196.763 726.984 196.486 726.835 196.162 Z M 726.835 196.162" style="stroke: #111111; stroke-width: 3px;"></path>
  <path fill="#000000" d="M 734.363 192.404 C 732.914 194.092 731.726 195.986 730.835 198.029 C 730.695 198.353 731.167 198.631 731.316 198.306 C 732.179 196.31 733.339 194.443 734.753 192.791 C 734.984 192.525 734.593 192.134 734.363 192.404 Z M 734.363 192.404" style="stroke: #111111; stroke-width: 3px;"></path>
  <path fill="#000000" d="M 699.91 256.279 C 698.71 251.869 696.984 247.631 695.304 243.388 C 694.832 242.181 694.359 240.974 693.894 239.767 C 693.207 237.931 692.546 236.072 691.98 234.197 C 691.695 233.259 691.433 232.314 691.203 231.357 C 691.109 230.967 690.953 230.595 690.867 230.217 C 690.765 229.732 690.703 229.252 690.589 228.767 C 690.535 228.529 690.488 228.287 690.488 228.037 C 690.488 227.041 690.664 226.021 690.746 225.029 C 690.839 224.006 690.933 222.986 691.027 221.967 C 691.21 219.924 691.398 217.888 691.582 215.849 C 691.953 211.775 692.324 207.689 692.695 203.615 C 693.058 199.595 693.468 195.588 693.765 191.568 C 694.062 187.595 694.21 183.603 693.894 179.631 C 693.738 177.674 693.468 175.724 693.05 173.802 C 692.789 172.595 692.214 170.99 690.746 170.924 C 689.437 170.869 688.722 172.244 688.398 173.31 C 688.167 174.099 688.093 174.924 687.992 175.732 C 687.859 176.724 687.75 177.72 687.656 178.713 C 686.832 186.834 686.82 195.029 687.238 203.177 C 687.257 203.521 687.277 203.865 687.296 204.217 C 687.519 208.283 687.843 212.342 688.222 216.396 C 688.41 218.42 688.613 220.451 688.828 222.474 C 688.929 223.486 689.039 224.498 689.152 225.509 C 689.253 226.42 689.468 227.365 689.242 228.267 C 689.125 228.759 688.855 229.205 688.64 229.67 C 686.96 233.334 685.449 237.076 683.73 240.724 C 681.714 244.994 679.609 249.224 677.734 253.56 C 675.988 257.607 674.484 261.924 674.429 266.396 C 674.382 270.22 675.527 273.963 677.882 276.986 C 680.027 279.744 683.398 280.615 686.886 281.127 C 690.292 281.627 693.738 281.525 696.464 279.392 C 699.582 276.951 700.835 273.478 701.265 269.662 C 701.753 265.17 701.085 260.623 699.91 256.279 Z M 688.019 206.724 C 687.507 198.799 687.339 190.845 687.878 182.916 C 688.007 180.967 688.187 179.029 688.41 177.095 C 688.519 176.142 688.613 175.166 688.781 174.213 C 688.89 173.56 689.093 172.912 689.437 172.345 C 689.746 171.853 690.226 171.416 690.851 171.49 C 691.554 171.576 691.972 172.232 692.214 172.838 C 692.511 173.58 692.64 174.396 692.781 175.185 C 692.957 176.131 693.097 177.088 693.207 178.052 C 694.089 185.814 693.066 193.674 692.363 201.416 C 691.64 209.424 690.906 217.435 690.179 225.447 C 690.117 226.217 690.042 226.978 689.976 227.748 C 689.207 220.748 688.472 213.752 688.019 206.724 Z M 679.367 277.849 C 676.75 275.381 675.57 272.467 675.125 268.912 C 674.578 264.576 675.703 260.252 677.242 256.232 C 678.886 251.974 680.972 247.869 682.933 243.74 C 684.445 240.537 685.957 237.334 687.46 234.142 C 685.375 239.314 683.628 244.631 682.273 250.041 C 681.281 254.013 680.378 258.06 680.027 262.146 C 679.703 265.912 679.953 269.795 681.417 273.322 C 682.652 276.291 684.781 279.185 687.73 280.627 C 687.89 280.709 688.054 280.775 688.23 280.838 C 685.113 280.627 681.566 279.927 679.367 277.849 Z M 687.695 279.986 C 686.968 279.584 686.292 279.084 685.679 278.537 C 684.5 277.478 683.527 276.217 682.757 274.826 C 678.96 267.974 680.613 259.677 682.265 252.447 C 683.906 245.271 686.226 238.244 689.16 231.498 C 687.648 237.42 686.683 243.478 686.273 249.588 C 685.835 256.232 686.058 262.924 686.941 269.525 C 687.433 273.228 688.14 276.904 689.05 280.521 C 688.574 280.42 688.121 280.217 687.695 279.986 Z M 689.691 269.767 C 689.644 273.181 689.585 276.607 689.511 280.021 C 687.953 273.701 687.015 267.24 686.718 260.736 C 686.421 254.107 686.773 247.443 687.796 240.888 C 688.242 238.049 688.808 235.236 689.496 232.443 C 689.625 238.244 689.718 244.056 689.746 249.865 C 689.792 256.502 689.765 263.138 689.691 269.767 Z M 690.05 280.588 C 690.191 274.08 690.285 267.576 690.312 261.068 C 690.339 254.431 690.312 247.806 690.21 241.17 C 690.179 238.939 690.136 236.713 690.089 234.494 C 690.05 232.842 689.847 231.099 690.273 229.482 C 690.433 230.521 690.414 231.599 690.542 232.646 C 690.609 233.205 690.691 233.752 690.777 234.31 C 690.859 234.83 691.082 235.431 691.082 235.963 C 691.5 238.041 692.046 240.084 692.632 242.127 C 693.214 244.158 693.839 246.181 694.421 248.224 C 694.496 248.482 694.57 248.752 694.644 249.013 C 695.648 252.623 696.457 256.287 696.621 260.037 C 696.781 263.834 696.343 267.65 695.343 271.306 C 694.851 273.107 694.218 274.869 693.449 276.568 C 693.085 277.369 692.714 278.185 692.25 278.927 C 691.824 279.603 691.257 280.271 690.46 280.521 C 690.328 280.541 690.191 280.568 690.05 280.588 Z M 698.097 277.228 C 696.335 279.724 693.847 280.756 690.941 280.904 C 691.46 280.67 691.898 280.291 692.261 279.845 C 692.781 279.205 693.152 278.463 693.503 277.72 C 693.921 276.849 694.312 275.955 694.664 275.056 C 696.066 271.474 696.89 267.67 697.132 263.834 C 697.375 259.994 696.949 256.17 696.093 252.42 C 694.636 246.041 692.101 239.849 691.183 233.361 C 691.824 235.646 692.605 237.892 693.449 240.111 C 695.007 244.232 696.753 248.287 698.164 252.463 C 699.582 256.67 700.687 261.021 700.847 265.478 C 700.996 269.486 700.476 273.869 698.097 277.228 Z M 698.097 277.228" style="stroke: #111111; stroke-width: 3px;"></path>
  <path fill="#000000" d="M 691.101 173.552 C 691.035 173.533 690.988 173.541 690.941 173.552 C 690.851 173.439 690.691 173.404 690.57 173.552 C 690.07 174.181 689.773 174.924 689.66 175.724 C 689.558 176.459 689.523 177.384 689.894 178.064 C 690.246 178.693 691.148 178.99 691.656 178.369 C 691.89 178.08 691.972 177.72 692.027 177.365 C 692.113 176.904 692.148 176.42 692.148 175.947 C 692.148 175.084 692.093 173.849 691.101 173.552 Z M 691.582 176.392 C 691.566 176.799 691.527 178.396 690.765 178.138 C 690.05 177.896 690.125 176.689 690.171 176.095 C 690.226 175.373 690.46 174.646 690.894 174.052 C 690.914 174.064 690.933 174.08 690.953 174.08 C 691.371 174.201 691.492 174.674 691.535 175.045 C 691.601 175.502 691.609 175.947 691.582 176.392 Z M 691.582 176.392" style="stroke: #111111; stroke-width: 3px;"></path>
  <path fill="#000000" d="M 246.128906 220.472656 C 245.765625 216.824219 244.226562 213.613281 242.183594 210.613281 C 240.1875 207.699219 237.867188 204.992188 236.195312 201.851562 C 235.304688 200.183594 234.664062 198.402344 234.347656 196.535156 C 233.988281 194.382812 234.042969 192.171875 234.265625 190.011719 C 234.71875 185.621094 235.703125 181.292969 236.214844 176.902344 C 236.742188 172.382812 237.023438 167.835938 237.03125 163.289062 C 237.042969 161.03125 236.984375 158.777344 236.863281 156.523438 C 236.753906 154.367188 236.640625 152.195312 236.308594 150.070312 C 236.105469 148.726562 235.703125 147.386719 235.082031 146.183594 C 234.777344 145.585938 234.40625 145.023438 233.96875 144.519531 C 233.570312 144.066406 233.078125 143.527344 232.492188 143.339844 C 232.25 143.265625 232.019531 143.183594 231.769531 143.164062 C 231.210938 143.128906 230.683594 143.332031 230.21875 143.609375 C 227.964844 144.964844 226.8125 147.667969 226.339844 150.144531 C 225.929688 152.261719 225.746094 154.433594 225.550781 156.578125 C 225.347656 158.824219 225.207031 161.078125 225.132812 163.335938 C 224.984375 167.882812 225.085938 172.441406 225.457031 176.976562 C 225.808594 181.378906 226.636719 185.742188 226.925781 190.148438 C 227.0625 192.320312 227.042969 194.53125 226.609375 196.675781 C 226.226562 198.53125 225.523438 200.285156 224.566406 201.925781 C 222.792969 205 220.363281 207.617188 218.265625 210.457031 C 216.109375 213.371094 214.457031 216.527344 213.957031 220.15625 C 213.445312 223.90625 214.058594 227.75 215.378906 231.277344 C 216.378906 233.96875 217.820312 236.472656 219.515625 238.785156 C 221.214844 241.097656 223.175781 243.210938 225.242188 245.199219 C 225.746094 245.679688 226.273438 246.125 226.777344 246.601562 C 227.265625 247.074219 227.871094 247.417969 228.472656 247.734375 C 228.640625 247.824219 228.816406 247.910156 229.003906 247.964844 C 229.394531 248.066406 229.8125 248.011719 230.191406 247.871094 C 231.128906 247.511719 231.945312 246.832031 232.707031 246.191406 C 233.550781 245.476562 234.359375 244.726562 235.167969 243.964844 C 237.246094 242.003906 239.203125 239.90625 240.875 237.585938 C 242.230469 235.710938 243.398438 233.6875 244.289062 231.554688 C 245.746094 228.054688 246.5 224.230469 246.128906 220.472656 Z M 242.515625 233.976562 C 241.8125 235.265625 241.003906 236.511719 240.121094 237.691406 C 238.636719 239.695312 236.929688 241.53125 235.128906 243.25 C 234.21875 244.113281 233.28125 244.949219 232.335938 245.765625 C 231.835938 246.191406 231.304688 246.628906 230.703125 246.886719 C 230.226562 247.09375 229.660156 247.433594 229.132812 247.40625 C 228.085938 247.359375 227.089844 246.144531 226.386719 245.496094 C 222.730469 242.089844 219.351562 238.273438 217.105469 233.773438 C 215.394531 230.355469 214.347656 226.550781 214.367188 222.71875 C 214.382812 219.003906 215.535156 215.5625 217.550781 212.472656 C 219.441406 209.566406 221.820312 207.023438 223.796875 204.171875 C 224.742188 202.820312 225.585938 201.398438 226.21875 199.867188 C 226.96875 198.058594 227.371094 196.144531 227.507812 194.195312 C 227.816406 190.011719 227 185.84375 226.496094 181.703125 C 225.96875 177.292969 225.679688 172.847656 225.644531 168.402344 C 225.605469 163.957031 225.808594 159.511719 226.265625 155.09375 C 226.644531 151.378906 226.839844 146.523438 230.300781 144.222656 C 232.882812 142.507812 234.839844 146.273438 235.417969 148.261719 C 236.058594 150.453125 236.113281 152.753906 236.261719 155.019531 C 236.550781 159.453125 236.59375 163.902344 236.390625 168.347656 C 236.1875 172.78125 235.742188 177.21875 235.046875 181.609375 C 234.394531 185.730469 233.429688 189.859375 233.578125 194.058594 C 233.652344 196.003906 233.976562 197.945312 234.664062 199.773438 C 235.242188 201.324219 236.039062 202.773438 236.929688 204.164062 C 238.804688 207.078125 241.085938 209.707031 242.871094 212.683594 C 244.773438 215.859375 245.792969 219.332031 245.671875 223.042969 C 245.535156 226.859375 244.347656 230.625 242.515625 233.976562 Z M 242.515625 233.976562 " style="stroke: #111111; stroke-width: 3px;" transform="matrix(1, 0, 0, 1, 543.41357421875, 33.38447952270508)"></path>
  <path fill="#000000" d="M 777.113 187.064 C 776.992 186.017 776.601 183.595 775.156 183.65 C 773.679 183.705 772.925 185.33 772.667 186.556 C 772.378 187.892 772.363 189.599 773.113 190.799 C 773.82 191.92 775.277 192.271 776.25 191.279 C 777.281 190.248 777.261 188.412 777.113 187.064 Z M 776.316 190.185 C 776.121 190.685 775.73 191.158 775.191 191.299 C 774.644 191.439 774.097 191.15 773.753 190.74 C 773.011 189.849 772.972 188.392 773.105 187.299 C 773.242 186.174 773.707 184.209 775.136 184.177 C 775.164 184.177 775.183 184.17 775.203 184.162 C 776.046 184.533 776.316 185.666 776.472 186.49 C 776.687 187.662 776.761 189.072 776.316 190.185 Z M 776.316 190.185" style="stroke: #111111; stroke-width: 3px;"></path>
  <path fill="#000000" d="M 783.21 251.537 C 777.363 250.533 771.406 250.228 765.492 250.646 C 763.832 250.767 762.179 250.943 760.535 251.174 C 760.183 251.22 760.332 251.759 760.683 251.713 C 766.457 250.904 772.332 250.802 778.144 251.396 C 779.796 251.564 781.437 251.795 783.074 252.076 C 783.414 252.131 783.566 251.592 783.21 251.537 Z M 783.21 251.537" style="stroke: #111111; stroke-width: 3px;"></path>
</svg>
